{
.appVersion = "939";
copyright = "Copyright 2011 Google Inc. All Rights Reserved.";
customParameters = (
{
name = license;
value = "Licensed under the Apache License, Version 2.0";
},
{
name = licenseURL;
value = "http://www.apache.org/licenses/LICENSE-2.0";
},
{
name = vendorID;
value = GOOG;
},
{
name = panose;
value = (
2,
0,
0,
0,
0,
0,
0,
0,
0,
0
);
},
{
name = unicodeRanges;
value = (
0,
1,
2,
3,
4,
5,
6,
7,
9,
29,
30,
31,
32,
33,
34,
35,
36,
37,
38,
40,
45,
60,
62,
64,
69
);
},
{
name = codePageRanges;
value = (
1252,
1250,
1251,
1253,
1254,
1257,
1258
);
},
{
name = glyphOrder;
value = (
.notdef,
uni0000,
uni0002,
uni0009,
uni000D,
space,
exclam,
quotedbl,
numbersign,
dollar,
percent,
ampersand,
quotesingle,
parenleft,
parenright,
asterisk,
plus,
comma,
hyphen,
period,
slash,
zero,
one,
two,
three,
four,
five,
six,
seven,
eight,
nine,
colon,
semicolon,
less,
equal,
greater,
question,
at,
A,
B,
C,
D,
E,
F,
G,
H,
I,
J,
K,
L,
M,
N,
O,
P,
Q,
R,
S,
T,
U,
V,
W,
X,
Y,
Z,
bracketleft,
backslash,
bracketright,
asciicircum,
underscore,
grave,
a,
b,
c,
d,
e,
f,
g,
h,
i,
j,
k,
l,
m,
n,
o,
p,
q,
r,
s,
t,
u,
v,
w,
x,
y,
z,
braceleft,
bar,
braceright,
asciitilde,
exclamdown,
cent,
sterling,
currency,
yen,
brokenbar,
section,
dieresis,
copyright,
ordfeminine,
guillemotleft,
logicalnot,
registered,
macron,
degree,
plusminus,
twosuperior,
threesuperior,
acute,
mu,
paragraph,
periodcentered,
cedilla,
onesuperior,
ordmasculine,
guillemotright,
onequarter,
onehalf,
threequarters,
questiondown,
AE,
multiply,
Oslash,
Thorn,
germandbls,
ae,
eth,
divide,
oslash,
thorn,
dcroat,
Hbar,
dotlessi,
kgreenlandic,
Lslash,
lslash,
Eng,
eng,
OE,
oe,
longs,
uni0180,
uni0181,
uni0182,
uni0183,
uni0184,
uni0185,
uni0186,
uni0187,
uni0188,
uni0189,
uni018A,
uni018B,
uni018C,
uni018D,
uni018E,
uni018F,
uni0190,
uni0191,
florin,
uni0193,
uni0194,
uni0195,
uni0197,
uni0198,
uni0199,
uni019A,
uni019B,
uni019C,
uni019D,
Ohorn,
ohorn,
uni01A2,
uni01A3,
uni01A4,
uni01A5,
uni01A6,
uni01A7,
uni01A8,

glyphs = (
{
glyphname = .notdef;
lastChange = "2017-05-24 16:56:05 +0000";
layers = (
{
layerId = "D40DD59D-1539-4674-98F2-408D5EBDB9DF";
paths = (
{
closed = 1;
nodes = (
"808 1456 LINE",
"100 1456 LINE",
"100 0 LINE",
"808 0 LINE"
);
},
{
closed = 1;
nodes = (
"452 796 LINE",
"194 1402 LINE",
"709 1402 LINE"
);
},
{
closed = 1;
nodes = (
"754 84 LINE",
"480 728 LINE",
"754 1372 LINE"
);
},
{
closed = 1;
nodes = (
"154 96 LINE",
"154 1360 LINE",
"422 728 LINE"
);
},
{
closed = 1;
nodes = (
"709 54 LINE",
"194 54 LINE",
"452 660 LINE"
);
}
);
width = 908;
}
);
note = .notdef;
},
{
glyphname = exclam;
lastChange = "2017-05-24 16:56:05 +0000";
layers = (
{
layerId = "D40DD59D-1539-4674-98F2-408D5EBDB9DF";
paths = (
{
closed = 1;
nodes = (
"156 461 LINE",
"430 461 LINE",
"473 1456 LINE",
"113 1456 LINE"
);
},
{
closed = 1;
nodes = (
"104 55 OFFCURVE",
"180 -18 OFFCURVE",
"291 -18 CURVE SMOOTH",
"402 -18 OFFCURVE",
"477 55 OFFCURVE",
"477 151 CURVE SMOOTH",
"477 247 OFFCURVE",
"402 320 OFFCURVE",
"291 320 CURVE SMOOTH",
"180 320 OFFCURVE",
"104 247 OFFCURVE",
"104 151 CURVE SMOOTH"
);
}
);
width = 566;
}
);
note = exclam;
unicode = 0021;
},
{
glyphname = quotedbl;
lastChange = "2017-05-24 16:56:05 +0000";
layers = (
{
layerId = "D40DD59D-1539-4674-98F2-408D5EBDB9DF";
paths = (
{
closed = 1;
nodes = (
"26 1537 LINE",
"26 969 LINE",
"213 969 LINE",
"256 1398 LINE",
"256 1537 LINE"
);
},
{
closed = 1;
nodes = (
"378 1537 LINE",
"378 969 LINE",
"564 969 LINE",
"607 1398 LINE",
"607 1537 LINE"
);
}
);
width = 650;
}
);
leftKerningGroup = quotedbl;
note = quotedbl;
rightKerningGroup = quotedbl;
unicode = 0022;
},
{
glyphname = numbersign;
lastChange = "2017-05-24 16:56:05 +0000";
layers = (
{
layerId = "D40DD59D-1539-4674-98F2-408D5EBDB9DF";
paths = (
{
closed = 1;
nodes = (
"812 410 LINE",
"1070 410 LINE",
"1070 593 LINE",
"842 593 LINE",
"885 857 LINE",
"1146 857 LINE",
"1146 1040 LINE",
"915 1040 LINE",
"984 1456 LINE",
"785 1456 LINE",
"716 1040 LINE",
"555 1040 LINE",
"623 1456 LINE",
"425 1456 LINE",
"356 1040 LINE",
"105 1040 LINE",
"105 857 LINE",
"326 857 LINE",
"283 593 LINE",
"30 593 LINE",
"30 410 LINE",
"253 410 LINE",
"185 0 LINE",
"384 0 LINE",
"451 410 LINE",
"613 410 LINE",
"545 0 LINE",
"744 0 LINE"
);
},
{
closed = 1;
nodes = (
"686 857 LINE",
"643 593 LINE",
"481 593 LINE",
"525 857 LINE"
);
}
);
width = 1190;
}
);
note = numbersign;
unicode = 0023;
},
{
glyphname = dollar;
lastChange = "2017-05-24 16:56:05 +0000";
layers = (
{
layerId = "D40DD59D-1539-4674-98F2-408D5EBDB9DF";
paths = (
{
closed = 1;
nodes = (
"1098 657 OFFCURVE",
"907 756 OFFCURVE",
"647 867 CURVE SMOOTH",
"514 927 OFFCURVE",
"474 975 OFFCURVE",
"474 1066 CURVE SMOOTH",
"474 1151 OFFCURVE",
"514 1222 OFFCURVE",
"614 1222 CURVE SMOOTH",
"702 1222 OFFCURVE",
"768 1159 OFFCURVE",
"768 1006 CURVE",
"1105 1006 LINE",
"1105 1269 OFFCURVE",
"950 1435 OFFCURVE",
"714 1470 CURVE",
"714 1685 LINE",
"555 1685 LINE",
"555 1474 LINE",
"306 1451 OFFCURVE",
"137 1297 OFFCURVE",
"137 1068 CURVE SMOOTH",
"137 796 OFFCURVE",
"321 701 OFFCURVE",
"588 594 CURVE SMOOTH",
"713 541 OFFCURVE",
"761 495 OFFCURVE",
"761 386 CURVE SMOOTH",
"761 302 OFFCURVE",
"716 234 OFFCURVE",
"615 234 CURVE SMOOTH",
"512 234 OFFCURVE",
"420 290 OFFCURVE",
"420 467 CURVE",
"83 467 LINE",
"83 358 OFFCURVE",
"105 269 OFFCURVE",
"148 201 CURVE SMOOTH",
"235 64 OFFCURVE",
"382 -1 OFFCURVE",
"535 -17 CURVE",
"535 -218 LINE",
"694 -218 LINE",
"694 -17 LINE",
"937 8 OFFCURVE",
"1098 153 OFFCURVE",
"1098 388 CURVE SMOOTH"
);
}
);
width = 1187;
}
);
note = dollar;
unicode = 0024;
},
{
glyphname = percent;
lastChange = "2017-05-24 16:56:05 +0000";
layers = (
{
layerId = "D40DD59D-1539-4674-98F2-408D5EBDB9DF";
paths = (
{
closed = 1;
nodes = (
"91 936 OFFCURVE",
"200 800 OFFCURVE",
"416 800 CURVE SMOOTH",
"633 800 OFFCURVE",
"739 936 OFFCURVE",
"739 1099 CURVE SMOOTH",
"739 1176 LINE SMOOTH",
"739 1341 OFFCURVE",
"633 1477 OFFCURVE",
"414 1477 CURVE SMOOTH",
"201 1477 OFFCURVE",
"91 1341 OFFCURVE",
"91 1176 CURVE SMOOTH",
"91 1099 LINE SMOOTH"
);
},
{
closed = 1;
nodes = (
"323 188 LINE",
"480 109 LINE",
"1191 1247 LINE",
"1034 1326 LINE"
);
},
{
closed = 1;
nodes = (
"307 1239 OFFCURVE",
"343 1295 OFFCURVE",
"414 1295 CURVE SMOOTH",
"489 1295 OFFCURVE",
"522 1239 OFFCURVE",
"522 1176 CURVE SMOOTH",
"522 1115 LINE SMOOTH",
"522 1026 OFFCURVE",
"487 982 OFFCURVE",
"416 982 CURVE SMOOTH",
"343 982 OFFCURVE",
"307 1038 OFFCURVE",
"307 1099 CURVE SMOOTH",
"307 1176 LINE SMOOTH"
);
},
{
closed = 1;
nodes = (
"782 116 OFFCURVE",
"893 -20 OFFCURVE",
"1109 -20 CURVE SMOOTH",
"1326 -20 OFFCURVE",
"1431 116 OFFCURVE",
"1431 280 CURVE SMOOTH",
"1431 357 LINE SMOOTH",
"1431 521 OFFCURVE",
"1326 657 OFFCURVE",
"1107 657 CURVE SMOOTH",
"892 657 OFFCURVE",
"782 521 OFFCURVE",
"782 357 CURVE SMOOTH",
"782 280 LINE SMOOTH"
);
},
{
closed = 1;
nodes = (
"999 430 OFFCURVE",
"1035 475 OFFCURVE",
"1107 475 CURVE SMOOTH",
"1179 475 OFFCURVE",
"1215 420 OFFCURVE",
"1215 357 CURVE SMOOTH",
"1215 280 LINE SMOOTH",
"1215 219 OFFCURVE",
"1201 162 OFFCURVE",
"1109 162 CURVE SMOOTH",
"1048 162 OFFCURVE",
"999 219 OFFCURVE",
"999 280 CURVE SMOOTH",
"999 340 LINE SMOOTH"
);
}
);
width = 1521;
}
);
note = percent;
unicode = 0025;
},
{
glyphname = ampersand;
lastChange = "2017-05-24 16:56:05 +0000";
layers = (
{
layerId = "D40DD59D-1539-4674-98F2-408D5EBDB9DF";
paths = (
{
closed = 1;
nodes = (
"1123 256 LINE",
"1214 373 OFFCURVE",
"1259 531 OFFCURVE",
"1259 728 CURVE",
"977 728 LINE",
"977 641 OFFCURVE",
"959 560 OFFCURVE",
"923 487 CURVE",
"699 745 LINE",
"772 796 LINE SMOOTH",
"909 892 OFFCURVE",
"978 1002 OFFCURVE",
"978 1127 CURVE SMOOTH",
"978 1316 OFFCURVE",
"829 1477 OFFCURVE",
"597 1477 CURVE SMOOTH",
"348 1477 OFFCURVE",
"186 1313 OFFCURVE",
"186 1084 CURVE SMOOTH",
"186 976 OFFCURVE",
"232 879 OFFCURVE",
"312 767 CURVE",
"308 765 LINE",
"160 657 OFFCURVE",
"56 560 OFFCURVE",
"56 391 CURVE SMOOTH",
"56 150 OFFCURVE",
"239 -21 OFFCURVE",
"532 -21 CURVE SMOOTH",
"680 -21 OFFCURVE",
"790 10 OFFCURVE",
"902 77 CURVE",
"970 0 LINE",
"1346 0 LINE"
);
},
{
closed = 1;
nodes = (
"477 1159 OFFCURVE",
"517 1217 OFFCURVE",
"596 1217 CURVE SMOOTH",
"667 1217 OFFCURVE",
"708 1158 OFFCURVE",
"708 1103 CURVE SMOOTH",
"708 1058 OFFCURVE",
"700 1011 OFFCURVE",
"617 958 CURVE SMOOTH",
"554 918 LINE",
"503 985 OFFCURVE",
"477 1042 OFFCURVE",
"477 1088 CURVE SMOOTH"
);
},
{
closed = 1;
nodes = (
"395 473 OFFCURVE",
"414 525 OFFCURVE",
"451 572 CURVE",
"461 579 LINE",
"723 280 LINE",
"669 253 OFFCURVE",
"613 239 OFFCURVE",
"555 239 CURVE SMOOTH",
"468 239 OFFCURVE",
"395 310 OFFCURVE",
"395 414 CURVE SMOOTH"
);
}
);
width = 1381;
}
);
note = ampersand;
unicode = 0026;
},
{
glyphname = quotesingle;
lastChange = "2017-05-24 16:56:05 +0000";
layers = (
{
layerId = "D40DD59D-1539-4674-98F2-408D5EBDB9DF";
paths = (
{
closed = 1;
nodes = (
"44 1536 LINE",
"44 961 LINE",
"250 961 LINE",
"284 1374 LINE",
"284 1536 LINE"
);
}
);
width = 316;
}
);
leftKerningGroup = quotedbl;
note = quotesingle;
rightKerningGroup = quotedbl;
unicode = 0027;
},
{
glyphname = parenleft;
lastChange = "2017-05-24 16:56:05 +0000";
layers = (
{
layerId = "D40DD59D-1539-4674-98F2-408D5EBDB9DF";
paths = (
{
closed = 1;
nodes = (
"122 370 OFFCURVE",
"147 211 OFFCURVE",
"196 74 CURVE SMOOTH",
"293 -202 OFFCURVE",
"455 -383 OFFCURVE",
"620 -450 CURVE",
"683 -284 LINE",
"534 -175 OFFCURVE",
"389 83 OFFCURVE",
"389 562 CURVE SMOOTH",
"389 611 LINE SMOOTH",
"392 1075 OFFCURVE",
"535 1332 OFFCURVE",
"683 1440 CURVE",
"620 1606 LINE",
"537 1573 OFFCURVE",
"458 1511 OFFCURVE",
"382 1422 CURVE SMOOTH",
"230 1243 OFFCURVE",
"121 960 OFFCURVE",
"121 592 CURVE SMOOTH",
"121 549 LINE SMOOTH"
);
}
);
width = 723;
}
);
note = parenleft;
unicode = 0028;
},
{
glyphname = parenright;
lastChange = "2017-05-24 16:56:05 +0000";
layers = (
{
layerId = "D40DD59D-1539-4674-98F2-408D5EBDB9DF";
paths = (
{
closed = 1;
nodes = (
"626 767 OFFCURVE",
"601 925 OFFCURVE",
"550 1066 CURVE SMOOTH",
"448 1346 OFFCURVE",
"277 1539 OFFCURVE",
"105 1606 CURVE",
"40 1440 LINE",
"189 1331 OFFCURVE",
"334 1073 OFFCURVE",
"334 594 CURVE SMOOTH",
"334 545 LINE SMOOTH",
"331 81 OFFCURVE",
"187 -176 OFFCURVE",
"40 -284 CURVE",
"105 -450 LINE",
"191 -417 OFFCURVE",
"274 -353 OFFCURVE",
"354 -260 CURVE SMOOTH",
"513 -73 OFFCURVE",
"626 213 OFFCURVE",
"626 564 CURVE SMOOTH",
"626 592 LINE SMOOTH"
);
}
);
width = 722;
}
);
note = parenright;
unicode = 0029;
},
{
glyphname = asterisk;
lastChange = "2017-05-24 16:56:05 +0000";
layers = (
{
layerId = "D40DD59D-1539-4674-98F2-408D5EBDB9DF";
paths = (
{
closed = 1;
nodes = (
"481 855 LINE",
"665 561 LINE",
"837 679 LINE",
"618 944 LINE",
"948 1034 LINE",
"884 1225 LINE",
"573 1097 LINE",
"599 1456 LINE",
"386 1456 LINE",
"410 1104 LINE",
"92 1235 LINE",
"27 1046 LINE",
"352 956 LINE",
"125 684 LINE",
"297 571 LINE"
);
}
);
width = 953;
}
);
note = asterisk;
unicode = 002A;
},
{
glyphname = plus;
lastChange = "2017-05-24 16:56:05 +0000";
layers = (
{
layerId = "D40DD59D-1539-4674-98F2-408D5EBDB9DF";
paths = (
{
closed = 1;
nodes = (
"703 826 LINE",
"703 1206 LINE",
"388 1206 LINE",
"388 826 LINE",
"45 826 LINE",
"45 537 LINE",
"388 537 LINE",
"388 146 LINE",
"703 146 LINE",
"703 537 LINE",
"1043 537 LINE",
"1043 826 LINE"
);
}
);
width = 1094;
}
);
note = plus;
unicode = 002B;
},
{
glyphname = comma;
lastChange = "2017-05-24 16:56:05 +0000";
layers = (
{
layerId = "D40DD59D-1539-4674-98F2-408D5EBDB9DF";
paths = (
{
closed = 1;
nodes = (
"150 19 LINE SMOOTH",
"150 -58 OFFCURVE",
"137 -122 OFFCURVE",
"111 -172 CURVE SMOOTH",
"43 -312 LINE",
"214 -392 LINE",
"327 -293 OFFCURVE",
"418 -125 OFFCURVE",
"419 36 CURVE SMOOTH",
"421 254 LINE",
"150 254 LINE"
);
}
);
width = 552;
}
);
leftKerningGroup = comma;
note = comma;
rightKerningGroup = comma;
unicode = 002C;
},
{
glyphname = hyphen;
lastChange = "2017-05-24 16:56:05 +0000";
layers = (
{
layerId = "D40DD59D-1539-4674-98F2-408D5EBDB9DF";
paths = (
{
closed = 1;
nodes = (
"152 497 LINE",
"753 497 LINE",
"753 758 LINE",
"152 758 LINE"
);
}
);
width = 921;
}
);
leftKerningGroup = hyphen;
note = hyphen;
unicode = 002D;
},
{
glyphname = period;
lastChange = "2017-05-24 16:56:05 +0000";
layers = (
{
layerId = "D40DD59D-1539-4674-98F2-408D5EBDB9DF";
paths = (
{
closed = 1;
nodes = (
"117 62 OFFCURVE",
"192 -11 OFFCURVE",
"303 -11 CURVE SMOOTH",
"414 -11 OFFCURVE",
"489 62 OFFCURVE",
"489 158 CURVE SMOOTH",
"489 254 OFFCURVE",
"414 327 OFFCURVE",
"303 327 CURVE SMOOTH",
"192 327 OFFCURVE",
"117 254 OFFCURVE",
"117 158 CURVE SMOOTH"
);
}
);
width = 620;
}
);
leftKerningGroup = comma;
note = period;
rightKerningGroup = comma;
unicode = 002E;
},
{
glyphname = slash;
lastChange = "2017-05-24 16:56:05 +0000";
layers = (
{
layerId = "D40DD59D-1539-4674-98F2-408D5EBDB9DF";
paths = (
{
closed = 1;
nodes = (
"-29 -125 LINE",
"211 -125 LINE",
"709 1456 LINE",
"469 1456 LINE"
);
}
);
width = 719;
}
);
note = slash;
unicode = 002F;
},
{
glyphname = zero;
lastChange = "2017-05-24 16:56:05 +0000";
layers = (
{
layerId = "D40DD59D-1539-4674-98F2-408D5EBDB9DF";
paths = (
{
closed = 1;
nodes = (
"1101 1281 OFFCURVE",
"892 1476 OFFCURVE",
"593 1476 CURVE SMOOTH",
"293 1476 OFFCURVE",
"86 1281 OFFCURVE",
"86 861 CURVE SMOOTH",
"86 595 LINE SMOOTH",
"86 175 OFFCURVE",
"295 -20 OFFCURVE",
"595 -20 CURVE SMOOTH",
"894 -20 OFFCURVE",
"1101 175 OFFCURVE",
"1101 595 CURVE SMOOTH",
"1101 861 LINE SMOOTH"
);
},
{
closed = 1;
nodes = (
"763 431 OFFCURVE",
"748 352 OFFCURVE",
"718 307 CURVE SMOOTH",
"687 262 OFFCURVE",
"646 240 OFFCURVE",
"595 240 CURVE SMOOTH",
"542 240 OFFCURVE",
"500 263 OFFCURVE",
"469 309 CURVE SMOOTH",
"438 354 OFFCURVE",
"423 436 OFFCURVE",
"423 554 CURVE SMOOTH",
"423 912 LINE SMOOTH",
"424 1137 OFFCURVE",
"489 1216 OFFCURVE",
"593 1216 CURVE SMOOTH",
"646 1216 OFFCURVE",
"687 1193 OFFCURVE",
"718 1147 CURVE SMOOTH",
"749 1101 OFFCURVE",
"764 1020 OFFCURVE",
"764 904 CURVE SMOOTH",
"764 546 LINE SMOOTH"
);
}
);
width = 1187;
}
);
note = zero;
unicode = 0030;
},
{
glyphname = one;
lastChange = "2017-05-24 16:56:05 +0000";
layers = (
{
layerId = "D40DD59D-1539-4674-98F2-408D5EBDB9DF";
paths = (
{
closed = 1;
nodes = (
"167 1235 LINE",
"167 979 LINE",
"499 1076 LINE",
"499 0 LINE",
"836 0 LINE",
"836 1456 LINE",
"805 1456 LINE"
);
}
);
width = 1187;
}
);
note = one;
unicode = 0031;
},
{
glyphname = two;
lastChange = "2017-05-24 16:56:05 +0000";
layers = (
{
layerId = "D40DD59D-1539-4674-98F2-408D5EBDB9DF";
paths = (
{
closed = 1;
nodes = (
"720 477 LINE",
"939 693 OFFCURVE",
"1069 852 OFFCURVE",
"1069 1055 CURVE SMOOTH",
"1069 1320 OFFCURVE",
"900 1477 OFFCURVE",
"579 1477 CURVE SMOOTH",
"270 1477 OFFCURVE",
"60 1256 OFFCURVE",
"60 988 CURVE",
"398 988 LINE",
"398 1119 OFFCURVE",
"466 1217 OFFCURVE",
"571 1217 CURVE SMOOTH",
"678 1217 OFFCURVE",
"731 1153 OFFCURVE",
"731 1025 CURVE SMOOTH",
"731 949 OFFCURVE",
"673 845 OFFCURVE",
"558 712 CURVE",
"90 220 LINE",
"90 0 LINE",
"1106 0 LINE",
"1106 260 LINE",
"532 260 LINE"
);
}
);
width = 1187;
}
);
note = two;
unicode = 0032;
},
{
glyphname = three;
lastChange = "2017-05-24 16:56:05 +0000";
layers = (
{
layerId = "D40DD59D-1539-4674-98F2-408D5EBDB9DF";
paths = (
{
closed = 1;
nodes = (
"690 618 OFFCURVE",
"768 563 OFFCURVE",
"768 416 CURVE SMOOTH",
"768 317 OFFCURVE",
"697 240 OFFCURVE",
"573 240 CURVE SMOOTH",
"472 240 OFFCURVE",
"386 312 OFFCURVE",
"386 405 CURVE",
"48 405 LINE",
"48 306 OFFCURVE",
"74 225 OFFCURVE",
"126 162 CURVE SMOOTH",
"230 37 OFFCURVE",
"399 -20 OFFCURVE",
"562 -20 CURVE SMOOTH",
"871 -20 OFFCURVE",
"1106 136 OFFCURVE",
"1106 409 CURVE SMOOTH",
"1106 577 OFFCURVE",
"1011 692 OFFCURVE",
"858 748 CURVE",
"994 812 OFFCURVE",
"1082 929 OFFCURVE",
"1082 1061 CURVE SMOOTH",
"1082 1333 OFFCURVE",
"871 1477 OFFCURVE",
"562 1477 CURVE SMOOTH",
"301 1477 OFFCURVE",
"70 1328 OFFCURVE",
"70 1081 CURVE",
"408 1081 LINE",
"408 1166 OFFCURVE",
"492 1217 OFFCURVE",
"573 1217 CURVE SMOOTH",
"692 1217 OFFCURVE",
"745 1141 OFFCURVE",
"745 1054 CURVE SMOOTH",
"745 931 OFFCURVE",
"682 869 OFFCURVE",
"556 869 CURVE SMOOTH",
"397 869 LINE",
"397 618 LINE",
"561 618 LINE SMOOTH"
);
}
);
width = 1187;
}
);
note = three;
unicode = 0033;
},
{
glyphname = four;
lastChange = "2017-05-24 16:56:05 +0000";
layers = (
{
layerId = "D40DD59D-1539-4674-98F2-408D5EBDB9DF";
paths = (
{
closed = 1;
nodes = (
"643 309 LINE",
"643 0 LINE",
"980 0 LINE",
"980 309 LINE",
"1127 309 LINE",
"1127 569 LINE",
"980 569 LINE",
"980 1456 LINE",
"643 1456 LINE",
"643 1454 LINE",
"59 515 LINE",
"79 309 LINE"
);
},
{
closed = 1;
nodes = (
"643 1019 LINE",
"643 569 LINE",
"381 569 LINE",
"621 983 LINE"
);
}
);
width = 1187;
}
);
note = four;
unicode = 0034;
},
{
glyphname = five;
lastChange = "2017-05-24 16:56:05 +0000";
layers = (
{
layerId = "D40DD59D-1539-4674-98F2-408D5EBDB9DF";
paths = (
{
closed = 1;
nodes = (
"402 682 OFFCURVE",
"454 725 OFFCURVE",
"553 725 CURVE SMOOTH",
"700 725 OFFCURVE",
"760 635 OFFCURVE",
"760 492 CURVE SMOOTH",
"760 356 OFFCURVE",
"725 240 OFFCURVE",
"590 240 CURVE SMOOTH",
"491 240 OFFCURVE",
"424 307 OFFCURVE",
"419 414 CURVE",
"80 414 LINE",
"79 325 OFFCURVE",
"104 248 OFFCURVE",
"153 183 CURVE SMOOTH",
"252 53 OFFCURVE",
"420 -20 OFFCURVE",
"592 -20 CURVE SMOOTH",
"707 -20 OFFCURVE",
"802 3 OFFCURVE",
"877 50 CURVE SMOOTH",
"1026 143 OFFCURVE",
"1098 302 OFFCURVE",
"1098 469 CURVE SMOOTH",
"1098 781 OFFCURVE",
"936 958 OFFCURVE",
"648 958 CURVE SMOOTH",
"555 958 OFFCURVE",
"471 924 OFFCURVE",
"439 905 CURVE",
"472 1194 LINE",
"1048 1194 LINE",
"1048 1456 LINE",
"197 1456 LINE",
"109 712 LINE",
"377 649 LINE"
);
}
);
width = 1187;
}
);
note = five;
unicode = 0035;
},
{
glyphname = six;
lastChange = "2017-05-24 16:56:05 +0000";
layers = (
{
layerId = "D40DD59D-1539-4674-98F2-408D5EBDB9DF";
paths = (
{
closed = 1;
nodes = (
"1129 765 OFFCURVE",
"982 982 OFFCURVE",
"717 982 CURVE SMOOTH",
"600 982 OFFCURVE",
"504 945 OFFCURVE",
"429 871 CURVE",
"470 1100 OFFCURVE",
"656 1212 OFFCURVE",
"885 1212 CURVE SMOOTH",
"903 1212 LINE",
"903 1477 LINE",
"849 1477 LINE SMOOTH",
"713 1477 OFFCURVE",
"587 1446 OFFCURVE",
"471 1384 CURVE SMOOTH",
"238 1259 OFFCURVE",
"84 1021 OFFCURVE",
"84 689 CURVE SMOOTH",
"84 555 LINE SMOOTH",
"88 194 OFFCURVE",
"316 -20 OFFCURVE",
"620 -20 CURVE SMOOTH",
"919 -20 OFFCURVE",
"1129 197 OFFCURVE",
"1129 482 CURVE SMOOTH"
);
},
{
closed = 1;
nodes = (
"450 678 OFFCURVE",
"511 724 OFFCURVE",
"599 724 CURVE SMOOTH",
"712 724 OFFCURVE",
"791 631 OFFCURVE",
"791 482 CURVE SMOOTH",
"791 343 OFFCURVE",
"716 240 OFFCURVE",
"611 240 CURVE SMOOTH",
"484 240 OFFCURVE",
"421 332 OFFCURVE",
"421 516 CURVE SMOOTH",
"421 619 LINE"
);
}
);
width = 1187;
}
);
note = six;
unicode = 0036;
},
{
glyphname = seven;
lastChange = "2017-05-24 16:56:05 +0000";
layers = (
{
layerId = "D40DD59D-1539-4674-98F2-408D5EBDB9DF";
paths = (
{
closed = 1;
nodes = (
"52 1196 LINE",
"747 1196 LINE",
"202 0 LINE",
"558 0 LINE",
"1102 1276 LINE",
"1102 1456 LINE",
"52 1456 LINE"
);
}
);
width = 1187;
}
);
note = seven;
unicode = 0037;
},
{
glyphname = eight;
lastChange = "2017-05-24 16:56:05 +0000";
layers = (
{
layerId = "D40DD59D-1539-4674-98F2-408D5EBDB9DF";
paths = (
{
closed = 1;
nodes = (
"1101 562 OFFCURVE",
"1014 683 OFFCURVE",
"875 750 CURVE",
"996 815 OFFCURVE",
"1071 927 OFFCURVE",
"1071 1067 CURVE SMOOTH",
"1071 1334 OFFCURVE",
"873 1477 OFFCURVE",
"593 1477 CURVE SMOOTH",
"316 1477 OFFCURVE",
"116 1334 OFFCURVE",
"116 1067 CURVE SMOOTH",
"116 927 OFFCURVE",
"191 816 OFFCURVE",
"314 751 CURVE",
"174 684 OFFCURVE",
"85 562 OFFCURVE",
"85 401 CURVE SMOOTH",
"85 122 OFFCURVE",
"304 -20 OFFCURVE",
"595 -20 CURVE SMOOTH",
"887 -20 OFFCURVE",
"1101 122 OFFCURVE",
"1101 401 CURVE SMOOTH"
);
},
{
closed = 1;
nodes = (
"734 945 OFFCURVE",
"688 875 OFFCURVE",
"595 875 CURVE SMOOTH",
"502 875 OFFCURVE",
"454 945 OFFCURVE",
"454 1049 CURVE SMOOTH",
"454 1161 OFFCURVE",
"500 1217 OFFCURVE",
"593 1217 CURVE SMOOTH",
"687 1217 OFFCURVE",
"734 1161 OFFCURVE",
"734 1049 CURVE SMOOTH"
);
},
{
closed = 1;
nodes = (
"762 311 OFFCURVE",
"696 240 OFFCURVE",
"595 240 CURVE SMOOTH",
"492 240 OFFCURVE",
"423 311 OFFCURVE",
"423 428 CURVE SMOOTH",
"423 547 OFFCURVE",
"493 615 OFFCURVE",
"593 615 CURVE SMOOTH",
"696 615 OFFCURVE",
"762 547 OFFCURVE",
"762 428 CURVE SMOOTH"
);
}
);
width = 1187;
}
);
note = eight;
unicode = 0038;
},
{
glyphname = nine;
lastChange = "2017-05-24 16:56:05 +0000";
layers = (
{
layerId = "D40DD59D-1539-4674-98F2-408D5EBDB9DF";
paths = (
{
closed = 1;
nodes = (
"1096 1264 OFFCURVE",
"866 1477 OFFCURVE",
"587 1477 CURVE SMOOTH",
"298 1477 OFFCURVE",
"80 1248 OFFCURVE",
"80 957 CURVE SMOOTH",
"80 661 OFFCURVE",
"244 465 OFFCURVE",
"509 465 CURVE SMOOTH",
"599 465 OFFCURVE",
"680 498 OFFCURVE",
"753 563 CURVE",
"724 339 OFFCURVE",
"563 250 OFFCURVE",
"323 250 CURVE SMOOTH",
"303 250 LINE",
"303 -20 LINE",
"329 -20 LINE SMOOTH",
"472 -20 OFFCURVE",
"602 10 OFFCURVE",
"718 69 CURVE SMOOTH",
"950 187 OFFCURVE",
"1096 420 OFFCURVE",
"1096 765 CURVE SMOOTH",
"1096 881 LINE SMOOTH"
);
},
{
closed = 1;
nodes = (
"418 1084 OFFCURVE",
"477 1217 OFFCURVE",
"584 1217 CURVE SMOOTH",
"691 1217 OFFCURVE",
"758 1130 OFFCURVE",
"758 943 CURVE SMOOTH",
"758 802 LINE",
"726 739 OFFCURVE",
"674 708 OFFCURVE",
"601 708 CURVE SMOOTH",
"478 708 OFFCURVE",
"418 816 OFFCURVE",
"418 957 CURVE SMOOTH"
);
}
);
width = 1187;
}
);
note = nine;
unicode = 0039;
},
{
glyphname = colon;
lastChange = "2017-05-24 16:56:05 +0000";
layers = (
{
layerId = "D40DD59D-1539-4674-98F2-408D5EBDB9DF";
paths = (
{
closed = 1;
nodes = (
"118 62 OFFCURVE",
"193 -11 OFFCURVE",
"304 -11 CURVE SMOOTH",
"415 -11 OFFCURVE",
"490 62 OFFCURVE",
"490 158 CURVE SMOOTH",
"490 254 OFFCURVE",
"415 327 OFFCURVE",
"304 327 CURVE SMOOTH",
"193 327 OFFCURVE",
"118 254 OFFCURVE",
"118 158 CURVE SMOOTH"
);
},
{
closed = 1;
nodes = (
"118 860 OFFCURVE",
"193 787 OFFCURVE",
"304 787 CURVE SMOOTH",
"415 787 OFFCURVE",
"490 860 OFFCURVE",
"490 956 CURVE SMOOTH",
"490 1052 OFFCURVE",
"415 1125 OFFCURVE",
"304 1125 CURVE SMOOTH",
"193 1125 OFFCURVE",
"118 1052 OFFCURVE",
"118 956 CURVE SMOOTH"
);
}
);
width = 615;
}
);
note = colon;
unicode = 003A;
},
{
glyphname = semicolon;
lastChange = "2017-05-24 16:56:05 +0000";
layers = (
{
layerId = "D40DD59D-1539-4674-98F2-408D5EBDB9DF";
paths = (
{
closed = 1;
nodes = (
"107 860 OFFCURVE",
"182 787 OFFCURVE",
"293 787 CURVE SMOOTH",
"404 787 OFFCURVE",
"479 860 OFFCURVE",
"479 956 CURVE SMOOTH",
"479 1052 OFFCURVE",
"404 1125 OFFCURVE",
"293 1125 CURVE SMOOTH",
"182 1125 OFFCURVE",
"107 1052 OFFCURVE",
"107 956 CURVE SMOOTH"
);
},
{
closed = 1;
nodes = (
"175 19 LINE SMOOTH",
"175 -58 OFFCURVE",
"162 -122 OFFCURVE",
"136 -172 CURVE SMOOTH",
"68 -312 LINE",
"239 -392 LINE",
"352 -293 OFFCURVE",
"443 -125 OFFCURVE",
"444 36 CURVE SMOOTH",
"446 254 LINE",
"175 254 LINE"
);
}
);
width = 590;
}
);
note = semicolon;
unicode = 003B;
},
{
glyphname = less;
lastChange = "2017-05-24 16:56:05 +0000";
layers = (
{
layerId = "D40DD59D-1539-4674-98F2-408D5EBDB9DF";
paths = (
{
closed = 1;
nodes = (
"384 610 LINE",
"931 798 LINE",
"931 1104 LINE",
"46 744 LINE",
"46 478 LINE",
"931 118 LINE",
"931 425 LINE"
);
}
);
width = 1045;
}
);
note = less;
unicode = 003C;
},
{
glyphname = equal;
lastChange = "2017-05-24 16:56:05 +0000";
layers = (
{
layerId = "D40DD59D-1539-4674-98F2-408D5EBDB9DF";
paths = (
{
closed = 1;
nodes = (
"128 722 LINE",
"1055 722 LINE",
"1055 982 LINE",
"128 982 LINE"
);
},
{
closed = 1;
nodes = (
"128 283 LINE",
"1055 283 LINE",
"1055 543 LINE",
"128 543 LINE"
);
}
);
width = 1200;
}
);
note = equal;
unicode = 003D;
},
{
glyphname = greater;
lastChange = "2017-05-24 16:56:05 +0000";
layers = (
{
layerId = "D40DD59D-1539-4674-98F2-408D5EBDB9DF";
paths = (
{
closed = 1;
nodes = (
"656 612 LINE",
"111 423 LINE",
"111 117 LINE",
"991 477 LINE",
"991 743 LINE",
"111 1103 LINE",
"111 797 LINE"
);
}
);
width = 1051;
}
);
note = greater;
unicode = 003E;
},
{
glyphname = question;
lastChange = "2017-05-24 16:56:05 +0000";
layers = (
{
layerId = "D40DD59D-1539-4674-98F2-408D5EBDB9DF";
paths = (
{
closed = 1;
nodes = (
"634 566 OFFCURVE",
"654 628 OFFCURVE",
"733 696 CURVE SMOOTH",
"868 819 OFFCURVE",
"974 907 OFFCURVE",
"974 1080 CURVE SMOOTH",
"974 1339 OFFCURVE",
"798 1476 OFFCURVE",
"506 1476 CURVE SMOOTH",
"242 1476 OFFCURVE",
"36 1350 OFFCURVE",
"31 1053 CURVE",
"370 1053 LINE",
"373 1168 OFFCURVE",
"437 1216 OFFCURVE",
"506 1216 CURVE SMOOTH",
"592 1216 OFFCURVE",
"635 1166 OFFCURVE",
"635 1065 CURVE SMOOTH",
"635 985 OFFCURVE",
"587 925 OFFCURVE",
"484 838 CURVE SMOOTH",
"380 750 OFFCURVE",
"344 638 OFFCURVE",
"344 461 CURVE",
"631 461 LINE"
);
},
{
closed = 1;
nodes = (
"303 61 OFFCURVE",
"379 -12 OFFCURVE",
"490 -12 CURVE SMOOTH",
"601 -12 OFFCURVE",
"677 61 OFFCURVE",
"677 157 CURVE SMOOTH",
"677 253 OFFCURVE",
"601 326 OFFCURVE",
"490 326 CURVE SMOOTH",
"379 326 OFFCURVE",
"303 253 OFFCURVE",
"303 157 CURVE SMOOTH"
);
}
);
width = 1044;
}
);
note = question;
unicode = 003F;
},
{
glyphname = at;
lastChange = "2017-05-24 16:56:05 +0000";
layers = (
{
layerId = "D40DD59D-1539-4674-98F2-408D5EBDB9DF";
paths = (
{
closed = 1;
nodes = (
"1141 -234 OFFCURVE",
"1010 -263 OFFCURVE",
"894 -263 CURVE SMOOTH",
"692 -263 OFFCURVE",
"537 -203 OFFCURVE",
"430 -82 CURVE SMOOTH",
"215 158 OFFCURVE",
"269 621 OFFCURVE",
"380 857 CURVE SMOOTH",
"491 1092 OFFCURVE",
"690 1238 OFFCURVE",
"959 1238 CURVE SMOOTH",
"1384 1238 OFFCURVE",
"1573 957 OFFCURVE",
"1552 540 CURVE SMOOTH",
"1545 321 OFFCURVE",
"1462 154 OFFCURVE",
"1347 154 CURVE SMOOTH",
"1294 154 OFFCURVE",
"1238 182 OFFCURVE",
"1251 293 CURVE SMOOTH",
"1301 880 LINE",
"1218 937 OFFCURVE",
"1145 990 OFFCURVE",
"986 990 CURVE SMOOTH",
"735 990 OFFCURVE",
"543 773 OFFCURVE",
"503 436 CURVE SMOOTH",
"476 161 OFFCURVE",
"605 -17 OFFCURVE",
"798 -17 CURVE SMOOTH",
"908 -17 OFFCURVE",
"995 27 OFFCURVE",
"1060 116 CURVE",
"1109 25 OFFCURVE",
"1190 -21 OFFCURVE",
"1303 -21 CURVE SMOOTH",
"1407 -21 OFFCURVE",
"1492 7 OFFCURVE",
"1557 63 CURVE SMOOTH",
"1687 175 OFFCURVE",
"1747 361 OFFCURVE",
"1754 550 CURVE SMOOTH",
"1775 1061 OFFCURVE",
"1490 1410 OFFCURVE",
"963 1410 CURVE SMOOTH",
"786 1410 OFFCURVE",
"632 1369 OFFCURVE",
"501 1286 CURVE SMOOTH",
"239 1121 OFFCURVE",
"83 823 OFFCURVE",
"67 458 CURVE SMOOTH",
"46 -142 OFFCURVE",
"350 -453 OFFCURVE",
"890 -453 CURVE SMOOTH",
"1014 -453 OFFCURVE",
"1170 -424 OFFCURVE",
"1263 -364 CURVE",
"1225 -198 LINE"
);
},
{
closed = 1;
nodes = (
"778 671 OFFCURVE",
"846 799 OFFCURVE",
"1005 799 CURVE SMOOTH",
"1026 799 OFFCURVE",
"1047 796 OFFCURVE",
"1068 791 CURVE",
"1029 335 LINE",
"1006 268 OFFCURVE",
"980 224 OFFCURVE",
"951 204 CURVE SMOOTH",
"922 183 OFFCURVE",
"897 173 OFFCURVE",
"876 173 CURVE SMOOTH",
"781 173 OFFCURVE",
"740 261 OFFCURVE",
"753 436 CURVE SMOOTH"
);
}
);
width = 1834;
}
);
note = at;
unicode = 0040;
},
{
glyphname = A;
lastChange = "2017-05-24 16:56:05 +0000";
layers = (
{
layerId = "D40DD59D-1539-4674-98F2-408D5EBDB9DF";
paths = (
{
closed = 1;
nodes = (
"457 272 LINE",
"938 272 LINE",
"1022 0 LINE",
"1400 0 LINE",
"862 1456 LINE",
"531 1456 LINE",
"-4 0 LINE",
"373 0 LINE"
);
},
{
closed = 1;
nodes = (
"854 543 LINE",
"541 543 LINE",
"697 1050 LINE"
);
}
);
width = 1395;
}
);
leftKerningGroup = A;
note = A;
rightKerningGroup = A;
unicode = 0041;
},
{
glyphname = B;
lastChange = "2017-05-24 16:56:05 +0000";
layers = (
{
layerId = "D40DD59D-1539-4674-98F2-408D5EBDB9DF";
paths = (
{
closed = 1;
nodes = (
"1238 564 OFFCURVE",
"1175 699 OFFCURVE",
"1003 743 CURVE",
"1154 800 OFFCURVE",
"1208 922 OFFCURVE",
"1208 1054 CURVE SMOOTH",
"1208 1326 OFFCURVE",
"993 1456 OFFCURVE",
"634 1456 CURVE SMOOTH",
"111 1456 LINE",
"111 0 LINE",
"701 0 LINE SMOOTH",
"1058 3 OFFCURVE",
"1238 146 OFFCURVE",
"1238 431 CURVE SMOOTH"
);
},
{
closed = 1;
nodes = (
"786 1182 OFFCURVE",
"857 1125 OFFCURVE",
"857 1012 CURVE SMOOTH",
"857 904 OFFCURVE",
"795 849 OFFCURVE",
"632 849 CURVE SMOOTH",
"462 849 LINE",
"462 1185 LINE",
"644 1185 LINE SMOOTH"
);
},
{
closed = 1;
nodes = (
"889 344 OFFCURVE",
"834 270 OFFCURVE",
"691 270 CURVE SMOOTH",
"462 270 LINE",
"462 619 LINE",
"717 619 LINE SMOOTH",
"832 616 OFFCURVE",
"889 555 OFFCURVE",
"889 436 CURVE SMOOTH"
);
}
);
width = 1322;
}
);
note = B;
rightKerningGroup = B;
unicode = 0042;
},
{
glyphname = C;
lastChange = "2017-05-24 16:56:05 +0000";
layers = (
{
layerId = "D40DD59D-1539-4674-98F2-408D5EBDB9DF";
paths = (
{
closed = 1;
nodes = (
"934 334 OFFCURVE",
"850 255 OFFCURVE",
"687 255 CURVE SMOOTH",
"496 255 OFFCURVE",
"426 379 OFFCURVE",
"426 688 CURVE SMOOTH",
"426 777 LINE SMOOTH",
"427 1081 OFFCURVE",
"510 1202 OFFCURVE",
"682 1202 CURVE SMOOTH",
"869 1202 OFFCURVE",
"936 1117 OFFCURVE",
"941 953 CURVE",
"1291 953 LINE",
"1264 1256 OFFCURVE",
"1062 1477 OFFCURVE",
"682 1477 CURVE SMOOTH",
"313 1477 OFFCURVE",
"70 1206 OFFCURVE",
"70 767 CURVE SMOOTH",
"70 672 LINE SMOOTH",
"75 245 OFFCURVE",
"302 -20 OFFCURVE",
"687 -20 CURVE SMOOTH",
"1046 -20 OFFCURVE",
"1274 188 OFFCURVE",
"1289 493 CURVE",
"939 493 LINE"
);
}
);
width = 1344;
}
);
leftKerningGroup = C;
note = C;
rightKerningGroup = C;
unicode = 0043;
},
{
glyphname = D;
lastChange = "2017-05-24 16:56:05 +0000";
layers = (
{
layerId = "D40DD59D-1539-4674-98F2-408D5EBDB9DF";
paths = (
{
closed = 1;
nodes = (
"977 1 OFFCURVE",
"1254 288 OFFCURVE",
"1254 697 CURVE SMOOTH",
"1254 758 LINE SMOOTH",
"1254 895 OFFCURVE",
"1225 1017 OFFCURVE",
"1168 1122 CURVE SMOOTH",
"1052 1332 OFFCURVE",
"842 1456 OFFCURVE",
"579 1456 CURVE SMOOTH",
"111 1456 LINE",
"111 0 LINE",
"586 0 LINE SMOOTH"
);
},
{
closed = 1;
nodes = (
"795 1179 OFFCURVE",
"896 1037 OFFCURVE",
"896 760 CURVE SMOOTH",
"895 649 LINE SMOOTH",
"884 396 OFFCURVE",
"780 270 OFFCURVE",
"584 270 CURVE SMOOTH",
"462 270 LINE",
"462 1185 LINE",
"592 1185 LINE SMOOTH"
);
}
);
width = 1325;
}
);
note = D;
rightKerningGroup = D;
unicode = 0044;
},
{
glyphname = E;
lastChange = "2017-05-24 16:56:05 +0000";
layers = (
{
layerId = "D40DD59D-1539-4674-98F2-408D5EBDB9DF";
paths = (
{
closed = 1;
nodes = (
"1113 270 LINE",
"462 270 LINE",
"462 617 LINE",
"1013 617 LINE",
"1013 878 LINE",
"462 878 LINE",
"462 1185 LINE",
"1116 1185 LINE",
"1116 1456 LINE",
"111 1456 LINE",
"111 0 LINE",
"1113 0 LINE"
);
}
);
width = 1146;
}
);
note = E;
rightKerningGroup = E;
unicode = 0045;
},
{
glyphname = F;
lastChange = "2017-05-24 16:56:05 +0000";
layers = (
{
layerId = "D40DD59D-1539-4674-98F2-408D5EBDB9DF";
paths = (
{
closed = 1;
nodes = (
"462 580 LINE",
"1028 580 LINE",
"1028 850 LINE",
"462 850 LINE",
"462 1185 LINE",
"1085 1185 LINE",
"1085 1456 LINE",
"111 1456 LINE",
"111 0 LINE",
"462 0 LINE"
);
}
);
width = 1120;
}
);
note = F;
unicode = 0046;
},
{
glyphname = G;
lastChange = "2017-05-24 16:56:05 +0000";
layers = (
{
layerId = "D40DD59D-1539-4674-98F2-408D5EBDB9DF";
paths = (
{
closed = 1;
nodes = (
"707 537 LINE",
"951 537 LINE",
"951 311 LINE",
"906 270 OFFCURVE",
"839 250 OFFCURVE",
"748 250 CURVE SMOOTH",
"543 250 OFFCURVE",
"439 395 OFFCURVE",
"439 687 CURVE SMOOTH",
"439 776 LINE SMOOTH",
"440 1065 OFFCURVE",
"548 1207 OFFCURVE",
"716 1207 CURVE SMOOTH",
"879 1207 OFFCURVE",
"943 1125 OFFCURVE",
"964 981 CURVE",
"1301 981 LINE",
"1272 1272 OFFCURVE",
"1105 1477 OFFCURVE",
"704 1477 CURVE SMOOTH",
"341 1477 OFFCURVE",
"82 1221 OFFCURVE",
"82 768 CURVE SMOOTH",
"82 687 LINE SMOOTH",
"82 234 OFFCURVE",
"336 -20 OFFCURVE",
"723 -20 CURVE SMOOTH",
"1036 -20 OFFCURVE",
"1227 97 OFFCURVE",
"1302 180 CURVE",
"1302 778 LINE",
"707 778 LINE"
);
}
);
width = 1396;
}
);
leftKerningGroup = C;
note = G;
unicode = 0047;
},
{
glyphname = H;
lastChange = "2017-05-24 16:56:05 +0000";
layers = (
{
layerId = "D40DD59D-1539-4674-98F2-408D5EBDB9DF";
paths = (
{
closed = 1;
nodes = (
"1328 1456 LINE",
"978 1456 LINE",
"978 878 LINE",
"462 878 LINE",
"462 1456 LINE",
"111 1456 LINE",
"111 0 LINE",
"462 0 LINE",
"462 608 LINE",
"978 608 LINE",
"978 0 LINE",
"1328 0 LINE"
);
}
);
width = 1439;
}
);
note = H;
rightKerningGroup = H;
unicode = 0048;
},
{
glyphname = I;
lastChange = "2017-05-24 16:56:05 +0000";
layers = (
{
layerId = "D40DD59D-1539-4674-98F2-408D5EBDB9DF";
paths = (
{
closed = 1;
nodes = (
"134 0 LINE",
"484 0 LINE",
"484 1456 LINE",
"134 1456 LINE"
);
}
);
width = 619;
}
);
note = I;
rightKerningGroup = H;
unicode = 0049;
},
{
glyphname = J;
lastChange = "2017-05-24 16:56:05 +0000";
layers = (
{
layerId = "D40DD59D-1539-4674-98F2-408D5EBDB9DF";
paths = (
{
closed = 1;
nodes = (
"689 318 OFFCURVE",
"639 250 OFFCURVE",
"539 250 CURVE SMOOTH",
"442 250 OFFCURVE",
"389 292 OFFCURVE",
"389 440 CURVE",
"37 440 LINE",
"37 124 OFFCURVE",
"246 -20 OFFCURVE",
"539 -20 CURVE SMOOTH",
"820 -20 OFFCURVE",
"1040 165 OFFCURVE",
"1040 457 CURVE SMOOTH",
"1040 1456 LINE",
"690 1456 LINE",
"690 454 LINE SMOOTH"
);
}
);
width = 1151;
}
);
leftKerningGroup = J;
note = J;
rightKerningGroup = J;
unicode = 004A;
},
{
glyphname = K;
lastChange = "2017-05-24 16:56:05 +0000";
layers = (
{
layerId = "D40DD59D-1539-4674-98F2-408D5EBDB9DF";
paths = (
{
closed = 1;
nodes = (
"840 813 LINE",
"1331 1456 LINE",
"898 1456 LINE",
"584 999 LINE",
"462 814 LINE",
"462 1456 LINE",
"111 1456 LINE",
"111 0 LINE",
"462 0 LINE",
"462 384 LINE",
"606 541 LINE",
"916 0 LINE",
"1331 0 LINE"
);
}
);
width = 1310;
}
);
note = K;
rightKerningGroup = K;
unicode = 004B;
},
{
glyphname = L;
lastChange = "2017-05-24 16:56:05 +0000";
layers = (
{
layerId = "D40DD59D-1539-4674-98F2-408D5EBDB9DF";
paths = (
{
closed = 1;
nodes = (
"462 1456 LINE",
"111 1456 LINE",
"111 0 LINE",
"1073 0 LINE",
"1073 270 LINE",
"462 270 LINE"
);
}
);
width = 1110;
}
);
note = L;
rightKerningGroup = L;
unicode = 004C;
},
{
glyphname = M;
lastChange = "2017-05-24 16:56:05 +0000";
layers = (
{
layerId = "D40DD59D-1539-4674-98F2-408D5EBDB9DF";
paths = (
{
closed = 1;
nodes = (
"111 1456 LINE",
"111 0 LINE",
"462 0 LINE",
"462 340 LINE",
"428 1036 LINE",
"780 0 LINE",
"1012 0 LINE",
"1364 1036 LINE",
"1330 340 LINE",
"1330 0 LINE",
"1682 0 LINE",
"1682 1456 LINE",
"1221 1456 LINE",
"896 443 LINE",
"571 1456 LINE"
);
}
);
width = 1795;
}
);
note = M;
rightKerningGroup = H;
unicode = 004D;
},
{
glyphname = N;
lastChange = "2017-05-24 16:56:05 +0000";
layers = (
{
layerId = "D40DD59D-1539-4674-98F2-408D5EBDB9DF";
paths = (
{
closed = 1;
nodes = (
"977 550 LINE",
"462 1456 LINE",
"111 1456 LINE",
"111 0 LINE",
"462 0 LINE",
"462 906 LINE",
"977 0 LINE",
"1327 0 LINE",
"1327 1456 LINE",
"977 1456 LINE"
);
}
);
width = 1438;
}
);
note = N;
rightKerningGroup = H;
unicode = 004E;
},
{
glyphname = O;
lastChange = "2017-05-24 16:56:05 +0000";
layers = (
{
layerId = "D40DD59D-1539-4674-98F2-408D5EBDB9DF";
paths = (
{
closed = 1;
nodes = (
"1343 1202 OFFCURVE",
"1078 1476 OFFCURVE",
"706 1476 CURVE SMOOTH",
"331 1476 OFFCURVE",
"70 1202 OFFCURVE",
"70 757 CURVE SMOOTH",
"70 698 LINE SMOOTH",
"70 253 OFFCURVE",
"333 -20 OFFCURVE",
"708 -20 CURVE SMOOTH",
"1080 -20 OFFCURVE",
"1343 253 OFFCURVE",
"1343 698 CURVE SMOOTH",
"1343 757 LINE SMOOTH"
);
},
{
closed = 1;
nodes = (
"986 411 OFFCURVE",
"885 254 OFFCURVE",
"708 254 CURVE SMOOTH",
"521 254 OFFCURVE",
"427 413 OFFCURVE",
"427 698 CURVE SMOOTH",
"428 811 LINE SMOOTH",
"439 1071 OFFCURVE",
"531 1201 OFFCURVE",
"706 1201 CURVE SMOOTH",
"894 1201 OFFCURVE",
"987 1052 OFFCURVE",
"987 759 CURVE SMOOTH",
"987 692 LINE SMOOTH"
);
}
);
width = 1414;
}
);
leftKerningGroup = C;
note = O;
rightKerningGroup = D;
unicode = 004F;
},
{
glyphname = P;
lastChange = "2017-05-24 16:56:05 +0000";
layers = (
{
layerId = "D40DD59D-1539-4674-98F2-408D5EBDB9DF";
paths = (
{
closed = 1;
nodes = (
"1041 494 OFFCURVE",
"1256 679 OFFCURVE",
"1256 962 CURVE SMOOTH",
"1256 1247 OFFCURVE",
"1041 1456 OFFCURVE",
"692 1456 CURVE SMOOTH",
"111 1456 LINE",
"111 0 LINE",
"462 0 LINE",
"462 494 LINE",
"692 494 LINE SMOOTH"
);
},
{
closed = 1;
nodes = (
"839 1185 OFFCURVE",
"901 1079 OFFCURVE",
"901 960 CURVE SMOOTH",
"901 847 OFFCURVE",
"839 765 OFFCURVE",
"692 765 CURVE SMOOTH",
"462 765 LINE",
"462 1185 LINE",
"692 1185 LINE SMOOTH"
);
}
);
width = 1334;
}
);
note = P;
rightKerningGroup = P;
unicode = 0050;
},
{
glyphname = Q;
lastChange = "2017-05-24 16:56:05 +0000";
layers = (
{
layerId = "D40DD59D-1539-4674-98F2-408D5EBDB9DF";
paths = (
{
closed = 1;
nodes = (
"1251 225 OFFCURVE",
"1346 431 OFFCURVE",
"1346 698 CURVE SMOOTH",
"1346 757 LINE SMOOTH",
"1346 1202 OFFCURVE",
"1080 1476 OFFCURVE",
"708 1476 CURVE SMOOTH",
"333 1476 OFFCURVE",
"72 1202 OFFCURVE",
"72 757 CURVE SMOOTH",
"72 698 LINE SMOOTH",
"72 253 OFFCURVE",
"335 -20 OFFCURVE",
"710 -20 CURVE",
"799 -15 LINE",
"1111 -266 LINE",
"1329 -82 LINE",
"1094 104 LINE"
);
},
{
closed = 1;
nodes = (
"988 411 OFFCURVE",
"887 254 OFFCURVE",
"710 254 CURVE SMOOTH",
"523 254 OFFCURVE",
"429 413 OFFCURVE",
"429 698 CURVE SMOOTH",
"430 811 LINE SMOOTH",
"441 1071 OFFCURVE",
"533 1201 OFFCURVE",
"708 1201 CURVE SMOOTH",
"896 1201 OFFCURVE",
"989 1052 OFFCURVE",
"989 759 CURVE SMOOTH",
"989 692 LINE SMOOTH"
);
}
);
width = 1414;
}
);
leftKerningGroup = C;
note = Q;
unicode = 0051;
},
{
glyphname = R;
lastChange = "2017-05-24 16:56:05 +0000";
layers = (
{
layerId = "D40DD59D-1539-4674-98F2-408D5EBDB9DF";
paths = (
{
closed = 1;
nodes = (
"1284 15 LINE",
"981 602 LINE",
"1134 674 OFFCURVE",
"1235 792 OFFCURVE",
"1235 1016 CURVE SMOOTH",
"1235 1303 OFFCURVE",
"1020 1456 OFFCURVE",
"684 1456 CURVE SMOOTH",
"111 1456 LINE",
"111 0 LINE",
"462 0 LINE",
"462 514 LINE",
"651 514 LINE",
"908 0 LINE",
"1284 0 LINE"
);
},
{
closed = 1;
nodes = (
"819 1183 OFFCURVE",
"884 1116 OFFCURVE",
"884 984 CURVE SMOOTH",
"884 851 OFFCURVE",
"817 785 OFFCURVE",
"684 785 CURVE SMOOTH",
"462 785 LINE",
"462 1185 LINE",
"690 1185 LINE SMOOTH"
);
}
);
width = 1336;
}
);
note = R;
unicode = 0052;
},
{
glyphname = S;
lastChange = "2017-05-24 16:56:05 +0000";
layers = (
{
layerId = "D40DD59D-1539-4674-98F2-408D5EBDB9DF";
paths = (
{
closed = 1;
nodes = (
"861 308 OFFCURVE",
"807 244 OFFCURVE",
"674 244 CURVE SMOOTH",
"509 244 OFFCURVE",
"416 301 OFFCURVE",
"416 472 CURVE",
"64 472 LINE",
"64 357 OFFCURVE",
"94 264 OFFCURVE",
"154 191 CURVE SMOOTH",
"274 46 OFFCURVE",
"474 -20 OFFCURVE",
"674 -20 CURVE SMOOTH",
"999 -20 OFFCURVE",
"1212 126 OFFCURVE",
"1212 389 CURVE SMOOTH",
"1212 634 OFFCURVE",
"1034 771 OFFCURVE",
"725 870 CURVE SMOOTH",
"558 923 OFFCURVE",
"458 977 OFFCURVE",
"458 1064 CURVE SMOOTH",
"458 1144 OFFCURVE",
"527 1211 OFFCURVE",
"660 1211 CURVE SMOOTH",
"796 1211 OFFCURVE",
"863 1133 OFFCURVE",
"863 1024 CURVE",
"1212 1024 LINE",
"1212 1299 OFFCURVE",
"987 1476 OFFCURVE",
"668 1476 CURVE SMOOTH",
"345 1476 OFFCURVE",
"108 1316 OFFCURVE",
"108 1067 CURVE SMOOTH",
"108 988 OFFCURVE",
"128 920 OFFCURVE",
"167 864 CURVE SMOOTH",
"245 752 OFFCURVE",
"390 671 OFFCURVE",
"605 600 CURVE SMOOTH",
"712 564 OFFCURVE",
"782 531 OFFCURVE",
"814 501 CURVE SMOOTH",
"845 471 OFFCURVE",
"861 433 OFFCURVE",
"861 387 CURVE SMOOTH"
);
}
);
width = 1282;
}
);
leftKerningGroup = S;
note = S;
unicode = 0053;
},
{
glyphname = T;
lastChange = "2017-05-24 16:56:05 +0000";
layers = (
{
layerId = "D40DD59D-1539-4674-98F2-408D5EBDB9DF";
paths = (
{
closed = 1;
nodes = (
"465 0 LINE",
"816 0 LINE",
"816 1185 LINE",
"1254 1185 LINE",
"1254 1456 LINE",
"37 1456 LINE",
"37 1185 LINE",
"465 1185 LINE"
);
}
);
width = 1292;
}
);
leftKerningGroup = T;
note = T;
rightKerningGroup = T;
unicode = 0054;
},
{
glyphname = U;
lastChange = "2017-05-24 16:56:05 +0000";
layers = (
{
layerId = "D40DD59D-1539-4674-98F2-408D5EBDB9DF";
paths = (
{
closed = 1;
nodes = (
"901 325 OFFCURVE",
"825 250 OFFCURVE",
"681 250 CURVE SMOOTH",
"536 250 OFFCURVE",
"462 330 OFFCURVE",
"458 489 CURVE",
"458 1456 LINE",
"106 1456 LINE",
"106 505 LINE SMOOTH",
"106 164 OFFCURVE",
"338 -20 OFFCURVE",
"681 -20 CURVE SMOOTH",
"1026 -20 OFFCURVE",
"1252 164 OFFCURVE",
"1252 505 CURVE SMOOTH",
"1252 1456 LINE",
"901 1456 LINE",
"901 505 LINE SMOOTH"
);
}
);
width = 1361;
}
);
leftKerningGroup = U;
note = U;
rightKerningGroup = J;
unicode = 0055;
},
{
glyphname = V;
lastChange = "2017-05-24 16:56:05 +0000";
layers = (
{
layerId = "D40DD59D-1539-4674-98F2-408D5EBDB9DF";
paths = (
{
closed = 1;
nodes = (
"676 394 LINE",
"387 1456 LINE",
"-4 1456 LINE",
"484 0 LINE",
"867 0 LINE",
"1358 1456 LINE",
"965 1456 LINE"
);
}
);
width = 1354;
}
);
leftKerningGroup = V;
note = V;
rightKerningGroup = V;
unicode = 0056;
},
{
glyphname = W;
lastChange = "2017-05-24 16:56:05 +0000";
layers = (
{
layerId = "D40DD59D-1539-4674-98F2-408D5EBDB9DF";
paths = (
{
closed = 1;
nodes = (
"1239 542 LINE",
"1035 1456 LINE",
"737 1456 LINE",
"537 545 LINE",
"370 1456 LINE",
"22 1456 LINE",
"331 0 LINE",
"695 0 LINE",
"886 830 LINE",
"1081 0 LINE",
"1444 0 LINE",
"1753 1456 LINE",
"1406 1456 LINE"
);
}
);
width = 1780;
}
);
leftKerningGroup = W;
note = W;
rightKerningGroup = W;
unicode = 0057;
},
{
glyphname = X;
lastChange = "2017-05-24 16:56:05 +0000";
layers = (
{
layerId = "D40DD59D-1539-4674-98F2-408D5EBDB9DF";
paths = (
{
closed = 1;
nodes = (
"422 734 LINE",
"4 0 LINE",
"409 0 LINE",
"654 493 LINE",
"899 0 LINE",
"1303 0 LINE",
"886 734 LINE",
"1292 1456 LINE",
"892 1456 LINE",
"654 972 LINE",
"416 1456 LINE",
"15 1456 LINE"
);
}
);
width = 1308;
}
);
leftKerningGroup = X;
note = X;
rightKerningGroup = X;
unicode = 0058;
},
{
glyphname = Y;
lastChange = "2017-05-24 16:56:05 +0000";
layers = (
{
layerId = "D40DD59D-1539-4674-98F2-408D5EBDB9DF";
paths = (
{
closed = 1;
nodes = (
"465 523 LINE",
"465 0 LINE",
"822 0 LINE",
"822 523 LINE",
"1290 1456 LINE",
"912 1456 LINE",
"643 824 LINE",
"375 1456 LINE",
"-4 1456 LINE"
);
}
);
width = 1286;
}
);
leftKerningGroup = Y;
note = Y;
rightKerningGroup = Y;
unicode = 0059;
},
{
glyphname = Z;
lastChange = "2017-05-24 16:56:05 +0000";
layers = (
{
layerId = "D40DD59D-1539-4674-98F2-408D5EBDB9DF";
paths = (
{
closed = 1;
nodes = (
"67 185 LINE",
"67 0 LINE",
"1201 0 LINE",
"1201 270 LINE",
"506 270 LINE",
"1194 1276 LINE",
"1194 1456 LINE",
"62 1456 LINE",
"62 1185 LINE",
"762 1185 LINE"
);
}
);
width = 1250;
}
);
leftKerningGroup = Z;
note = Z;
rightKerningGroup = Z;
unicode = 005A;
},
{
glyphname = bracketleft;
lastChange = "2017-05-24 16:56:05 +0000";
layers = (
{
layerId = "D40DD59D-1539-4674-98F2-408D5EBDB9DF";
paths = (
{
closed = 1;
nodes = (
"108 -349 LINE",
"565 -349 LINE",
"565 -104 LINE",
"447 -104 LINE",
"447 1460 LINE",
"565 1460 LINE",
"565 1706 LINE",
"108 1706 LINE"
);
}
);
width = 578;
}
);
note = bracketleft;
unicode = 005B;
},
{
glyphname = backslash;
lastChange = "2017-05-24 16:56:05 +0000";
layers = (
{
layerId = "D40DD59D-1539-4674-98F2-408D5EBDB9DF";
paths = (
{
closed = 1;
nodes = (
"332 1456 LINE",
"-21 1456 LINE",
"586 -125 LINE",
"940 -125 LINE"
);
}
);
width = 874;
}
);
note = backslash;
unicode = 005C;
},
{
glyphname = bracketright;
lastChange = "2017-05-24 16:56:05 +0000";
layers = (
{
layerId = "D40DD59D-1539-4674-98F2-408D5EBDB9DF";
paths = (
{
closed = 1;
nodes = (
"134 -104 LINE",
"14 -104 LINE",
"14 -349 LINE",
"471 -349 LINE",
"471 1706 LINE",
"14 1706 LINE",
"14 1460 LINE",
"134 1460 LINE"
);
}
);
width = 578;
}
);
note = bracketright;
unicode = 005D;
},
{
glyphname = asciicircum;
lastChange = "2017-05-24 16:56:05 +0000";
layers = (
{
layerId = "D40DD59D-1539-4674-98F2-408D5EBDB9DF";
paths = (
{
closed = 1;
nodes = (
"460 1182 LINE",
"630 729 LINE",
"884 729 LINE",
"585 1456 LINE",
"335 1456 LINE",
"36 729 LINE",
"290 729 LINE"
);
}
);
width = 917;
}
);
note = asciicircum;
unicode = 005E;
},
{
glyphname = underscore;
lastChange = "2017-05-24 16:56:05 +0000";
layers = (
{
layerId = "D40DD59D-1539-4674-98F2-408D5EBDB9DF";
paths = (
{
closed = 1;
nodes = (
"-1 -251 LINE",
"903 -251 LINE",
"903 0 LINE",
"-1 0 LINE"
);
}
);
width = 905;
}
);
note = underscore;
unicode = 005F;
},
{
glyphname = grave;
lastChange = "2017-05-24 16:56:05 +0000";
layers = (
{
layerId = "D40DD59D-1539-4674-98F2-408D5EBDB9DF";
paths = (
{
closed = 1;
nodes = (
"337 1222 LINE",
"610 1222 LINE",
"411 1536 LINE",
"55 1536 LINE"
);
}
);
width = 696;
}
);
note = grave;
unicode = 0060;
},
{
glyphname = a;
lastChange = "2017-05-24 16:56:05 +0000";
layers = (
{
layerId = "D40DD59D-1539-4674-98F2-408D5EBDB9DF";
paths = (
{
closed = 1;
nodes = (
"1042 17 LINE",
"1013 71 OFFCURVE",
"997 147 OFFCURVE",
"996 245 CURVE",
"996 716 LINE SMOOTH",
"996 973 OFFCURVE",
"803 1102 OFFCURVE",
"546 1102 CURVE SMOOTH",
"257 1102 OFFCURVE",
"71 950 OFFCURVE",
"71 749 CURVE",
"408 749 LINE",
"408 828 OFFCURVE",
"448 867 OFFCURVE",
"528 867 CURVE SMOOTH",
"614 867 OFFCURVE",
"657 817 OFFCURVE",
"657 718 CURVE SMOOTH",
"657 661 LINE",
"542 661 LINE SMOOTH",
"202 658 OFFCURVE",
"46 525 OFFCURVE",
"46 305 CURVE SMOOTH",
"46 113 OFFCURVE",
"213 -20 OFFCURVE",
"413 -20 CURVE SMOOTH",
"524 -20 OFFCURVE",
"611 19 OFFCURVE",
"673 97 CURVE",
"681 58 OFFCURVE",
"691 26 OFFCURVE",
"704 0 CURVE",
"1042 0 LINE"
);
},
{
closed = 1;
nodes = (
"430 220 OFFCURVE",
"383 262 OFFCURVE",
"383 323 CURVE SMOOTH",
"383 404 OFFCURVE",
"424 481 OFFCURVE",
"551 481 CURVE SMOOTH",
"657 481 LINE",
"657 306 LINE",
"633 262 OFFCURVE",
"576 220 OFFCURVE",
"493 220 CURVE SMOOTH"
);
}
);
width = 1088;
}
);
leftKerningGroup = a;
note = a;
rightKerningGroup = a;
unicode = 0061;
},
{
glyphname = b;
lastChange = "2017-05-24 16:56:05 +0000";
layers = (
{
layerId = "D40DD59D-1539-4674-98F2-408D5EBDB9DF";
paths = (
{
closed = 1;
nodes = (
"1098 873 OFFCURVE",
"965 1102 OFFCURVE",
"677 1102 CURVE SMOOTH",
"579 1102 OFFCURVE",
"498 1067 OFFCURVE",
"435 996 CURVE",
"435 1536 LINE",
"98 1536 LINE",
"98 0 LINE",
"400 0 LINE",
"415 111 LINE",
"481 24 OFFCURVE",
"569 -20 OFFCURVE",
"679 -20 CURVE SMOOTH",
"967 -20 OFFCURVE",
"1099 205 OFFCURVE",
"1099 532 CURVE SMOOTH",
"1099 557 LINE"
);
},
{
closed = 1;
nodes = (
"734 842 OFFCURVE",
"762 710 OFFCURVE",
"762 553 CURVE SMOOTH",
"762 340 OFFCURVE",
"736 239 OFFCURVE",
"595 239 CURVE SMOOTH",
"517 239 OFFCURVE",
"464 267 OFFCURVE",
"435 324 CURVE",
"435 756 LINE",
"464 813 OFFCURVE",
"516 842 OFFCURVE",
"593 842 CURVE SMOOTH"
);
}
);
width = 1153;
}
);
note = b;
rightKerningGroup = b;
unicode = 0062;
},
{
glyphname = c;
lastChange = "2017-05-24 16:56:05 +0000";
layers = (
{
layerId = "D40DD59D-1539-4674-98F2-408D5EBDB9DF";
paths = (
{
closed = 1;
nodes = (
"411 240 OFFCURVE",
"390 369 OFFCURVE",
"390 529 CURVE SMOOTH",
"390 725 OFFCURVE",
"414 842 OFFCURVE",
"550 842 CURVE SMOOTH",
"653 842 OFFCURVE",
"703 765 OFFCURVE",
"700 668 CURVE",
"1017 668 LINE",
"1018 943 OFFCURVE",
"827 1102 OFFCURVE",
"558 1102 CURVE SMOOTH",
"222 1102 OFFCURVE",
"53 865 OFFCURVE",
"53 552 CURVE SMOOTH",
"53 529 LINE SMOOTH",
"53 216 OFFCURVE",
"221 -20 OFFCURVE",
"560 -20 CURVE SMOOTH",
"820 -20 OFFCURVE",
"1018 142 OFFCURVE",
"1017 386 CURVE",
"700 386 LINE",
"702 289 OFFCURVE",
"653 240 OFFCURVE",
"552 240 CURVE SMOOTH"
);
}
);
width = 1065;
}
);
leftKerningGroup = c;
note = c;
rightKerningGroup = c;
unicode = 0063;
},
{
glyphname = d;
lastChange = "2017-05-24 16:56:05 +0000";
layers = (
{
layerId = "D40DD59D-1539-4674-98F2-408D5EBDB9DF";
paths = (
{
closed = 1;
nodes = (
"1056 1536 LINE",
"717 1536 LINE",
"717 989 LINE",
"652 1064 OFFCURVE",
"571 1102 OFFCURVE",
"474 1102 CURVE SMOOTH",
"198 1102 OFFCURVE",
"53 878 OFFCURVE",
"53 549 CURVE SMOOTH",
"53 524 LINE SMOOTH",
"54 211 OFFCURVE",
"199 -20 OFFCURVE",
"472 -20 CURVE SMOOTH",
"577 -20 OFFCURVE",
"665 25 OFFCURVE",
"736 116 CURVE",
"752 0 LINE",
"1056 0 LINE"
);
},
{
closed = 1;
nodes = (
"390 725 OFFCURVE",
"435 842 OFFCURVE",
"560 842 CURVE SMOOTH",
"635 842 OFFCURVE",
"687 811 OFFCURVE",
"717 748 CURVE",
"717 333 LINE",
"686 271 OFFCURVE",
"633 240 OFFCURVE",
"558 240 CURVE SMOOTH",
"429 240 OFFCURVE",
"390 365 OFFCURVE",
"390 528 CURVE SMOOTH"
);
}
);
width = 1152;
}
);
leftKerningGroup = c;
note = d;
unicode = 0064;
},
{
glyphname = e;
lastChange = "2017-05-24 16:56:05 +0000";
layers = (
{
layerId = "D40DD59D-1539-4674-98F2-408D5EBDB9DF";
paths = (
{
closed = 1;
nodes = (
"832 277 OFFCURVE",
"748 240 OFFCURVE",
"641 240 CURVE SMOOTH",
"513 240 OFFCURVE",
"429 315 OFFCURVE",
"405 435 CURVE",
"1074 435 LINE",
"1074 572 LINE SMOOTH",
"1074 897 OFFCURVE",
"890 1102 OFFCURVE",
"583 1102 CURVE SMOOTH",
"236 1102 OFFCURVE",
"61 859 OFFCURVE",
"61 543 CURVE SMOOTH",
"61 502 LINE SMOOTH",
"62 219 OFFCURVE",
"267 -20 OFFCURVE",
"619 -20 CURVE SMOOTH",
"827 -20 OFFCURVE",
"978 75 OFFCURVE",
"1045 170 CURVE",
"892 352 LINE"
);
},
{
closed = 1;
nodes = (
"691 842 OFFCURVE",
"746 785 OFFCURVE",
"745 672 CURVE SMOOTH",
"745 646 LINE",
"405 646 LINE",
"420 759 OFFCURVE",
"465 842 OFFCURVE",
"580 842 CURVE SMOOTH"
);
}
);
width = 1116;
}
);
leftKerningGroup = c;
note = e;
rightKerningGroup = e;
unicode = 0065;
},
{
glyphname = f;
lastChange = "2017-05-24 16:56:05 +0000";
layers = (
{
layerId = "D40DD59D-1539-4674-98F2-408D5EBDB9DF";
paths = (
{
closed = 1;
nodes = (
"508 1082 LINE",
"508 1170 LINE SMOOTH",
"508 1255 OFFCURVE",
"559 1297 OFFCURVE",
"660 1297 CURVE SMOOTH",
"692 1297 OFFCURVE",
"720 1294 OFFCURVE",
"744 1288 CURVE",
"743 1536 LINE",
"686 1550 OFFCURVE",
"633 1557 OFFCURVE",
"584 1557 CURVE SMOOTH",
"580 1557 LINE SMOOTH",
"331 1556 OFFCURVE",
"170 1421 OFFCURVE",
"169 1173 CURVE SMOOTH",
"169 1082 LINE",
"13 1082 LINE",
"13 848 LINE",
"169 848 LINE",
"169 0 LINE",
"508 0 LINE",
"508 848 LINE",
"718 848 LINE",
"718 1082 LINE"
);
}
);
width = 743;
}
);
note = f;
unicode = 0066;
},
{
glyphname = g;
lastChange = "2017-05-24 16:56:05 +0000";
layers = (
{
layerId = "D40DD59D-1539-4674-98F2-408D5EBDB9DF";
paths = (
{
closed = 1;
nodes = (
"860 -426 OFFCURVE",
"1081 -258 OFFCURVE",
"1081 42 CURVE SMOOTH",
"1081 1082 LINE",
"775 1082 LINE",
"763 989 LINE",
"700 1064 OFFCURVE",
"612 1102 OFFCURVE",
"499 1102 CURVE SMOOTH",
"224 1102 OFFCURVE",
"56 878 OFFCURVE",
"56 549 CURVE SMOOTH",
"56 528 LINE SMOOTH",
"56 213 OFFCURVE",
"224 -20 OFFCURVE",
"497 -20 CURVE SMOOTH",
"598 -20 OFFCURVE",
"680 16 OFFCURVE",
"743 88 CURVE",
"743 38 LINE SMOOTH",
"741 -105 OFFCURVE",
"666 -177 OFFCURVE",
"519 -177 CURVE SMOOTH",
"418 -177 OFFCURVE",
"335 -140 OFFCURVE",
"270 -66 CURVE",
"129 -264 LINE",
"218 -371 OFFCURVE",
"386 -426 OFFCURVE",
"531 -426 CURVE SMOOTH"
);
},
{
closed = 1;
nodes = (
"393 725 OFFCURVE",
"458 842 OFFCURVE",
"585 842 CURVE SMOOTH",
"658 842 OFFCURVE",
"711 817 OFFCURVE",
"743 768 CURVE",
"743 314 LINE",
"710 265 OFFCURVE",
"656 240 OFFCURVE",
"583 240 CURVE SMOOTH",
"455 240 OFFCURVE",
"393 365 OFFCURVE",
"393 528 CURVE SMOOTH"
);
}
);
width = 1179;
}
);
leftKerningGroup = c;
note = g;
unicode = 0067;
},
{
glyphname = h;
lastChange = "2017-05-24 16:56:05 +0000";
layers = (
{
layerId = "D40DD59D-1539-4674-98F2-408D5EBDB9DF";
paths = (
{
closed = 1;
nodes = (
"668 842 OFFCURVE",
"725 806 OFFCURVE",
"725 674 CURVE SMOOTH",
"725 0 LINE",
"1064 0 LINE",
"1064 677 LINE",
"1063 988 OFFCURVE",
"914 1102 OFFCURVE",
"701 1102 CURVE SMOOTH",
"590 1102 OFFCURVE",
"498 1057 OFFCURVE",
"425 967 CURVE",
"425 1536 LINE",
"88 1536 LINE",
"88 0 LINE",
"425 0 LINE",
"425 777 LINE",
"454 820 OFFCURVE",
"503 842 OFFCURVE",
"571 842 CURVE SMOOTH"
);
}
);
width = 1156;
}
);
note = h;
rightKerningGroup = h;
unicode = 0068;
},
{
glyphname = i;
lastChange = "2017-05-24 16:56:05 +0000";
layers = (
{
layerId = "D40DD59D-1539-4674-98F2-408D5EBDB9DF";
paths = (
{
closed = 1;
nodes = (
"93 1265 OFFCURVE",
"169 1197 OFFCURVE",
"280 1197 CURVE SMOOTH",
"391 1197 OFFCURVE",
"467 1265 OFFCURVE",
"467 1361 CURVE SMOOTH",
"467 1457 OFFCURVE",
"391 1525 OFFCURVE",
"280 1525 CURVE SMOOTH",
"169 1525 OFFCURVE",
"93 1457 OFFCURVE",
"93 1361 CURVE SMOOTH"
);
},
{
closed = 1;
nodes = (
"113 0 LINE",
"451 0 LINE",
"451 1082 LINE",
"113 1082 LINE"
);
}
);
width = 563;
}
);
note = i;
unicode = 0069;
},
{
glyphname = j;
lastChange = "2017-05-24 16:56:05 +0000";
layers = (
{
layerId = "D40DD59D-1539-4674-98F2-408D5EBDB9DF";
paths = (
{
closed = 1;
nodes = (
"95 1265 OFFCURVE",
"171 1197 OFFCURVE",
"282 1197 CURVE SMOOTH",
"393 1197 OFFCURVE",
"469 1265 OFFCURVE",
"469 1361 CURVE SMOOTH",
"469 1457 OFFCURVE",
"393 1525 OFFCURVE",
"282 1525 CURVE SMOOTH",
"171 1525 OFFCURVE",
"95 1457 OFFCURVE",
"95 1361 CURVE SMOOTH"
);
},
{
closed = 1;
nodes = (
"120 -128 OFFCURVE",
"73 -174 OFFCURVE",
"-21 -174 CURVE SMOOTH",
"-48 -174 OFFCURVE",
"-80 -171 OFFCURVE",
"-117 -165 CURVE",
"-117 -420 LINE",
"-66 -431 OFFCURVE",
"-13 -437 OFFCURVE",
"43 -437 CURVE SMOOTH",
"300 -437 OFFCURVE",
"458 -295 OFFCURVE",
"458 -35 CURVE SMOOTH",
"458 1082 LINE",
"120 1082 LINE",
"120 -35 LINE SMOOTH"
);
}
);
width = 554;
}
);
note = j;
unicode = 006A;
},
{
glyphname = k;
lastChange = "2017-05-24 16:56:05 +0000";
layers = (
{
layerId = "D40DD59D-1539-4674-98F2-408D5EBDB9DF";
paths = (
{
closed = 1;
nodes = (
"747 637 LINE",
"1127 1082 LINE",
"723 1082 LINE",
"435 722 LINE",
"435 1537 LINE",
"98 1537 LINE",
"98 0 LINE",
"435 0 LINE",
"435 309 LINE",
"529 403 LINE",
"766 0 LINE",
"1152 0 LINE"
);
}
);
width = 1120;
}
);
note = k;
unicode = 006B;
},
{
glyphname = l;
lastChange = "2017-05-24 16:56:05 +0000";
layers = (
{
layerId = "D40DD59D-1539-4674-98F2-408D5EBDB9DF";
paths = (
{
closed = 1;
nodes = (
"113 0 LINE",
"451 0 LINE",
"451 1536 LINE",
"113 1536 LINE"
);
}
);
width = 563;
}
);
note = l;
unicode = 006C;
},
{
glyphname = m;
lastChange = "2017-05-24 16:56:05 +0000";
layers = (
{
layerId = "D40DD59D-1539-4674-98F2-408D5EBDB9DF";
paths = (
{
closed = 1;
nodes = (
"665 842 OFFCURVE",
"713 816 OFFCURVE",
"713 679 CURVE SMOOTH",
"713 0 LINE",
"1050 0 LINE",
"1049 753 LINE",
"1082 812 OFFCURVE",
"1132 842 OFFCURVE",
"1199 842 CURVE SMOOTH",
"1279 842 OFFCURVE",
"1328 816 OFFCURVE",
"1328 681 CURVE SMOOTH",
"1328 0 LINE",
"1666 0 LINE",
"1666 686 LINE",
"1665 995 OFFCURVE",
"1524 1102 OFFCURVE",
"1328 1102 CURVE SMOOTH",
"1189 1102 OFFCURVE",
"1084 1048 OFFCURVE",
"1011 939 CURVE",
"961 1048 OFFCURVE",
"869 1102 OFFCURVE",
"734 1102 CURVE SMOOTH",
"603 1102 OFFCURVE",
"501 1053 OFFCURVE",
"426 955 CURVE",
"414 1082 LINE",
"98 1082 LINE",
"98 0 LINE",
"435 0 LINE",
"435 753 LINE",
"470 812 OFFCURVE",
"519 842 OFFCURVE",
"582 842 CURVE SMOOTH"
);
}
);
width = 1764;
}
);
leftKerningGroup = m;
note = m;
rightKerningGroup = h;
unicode = 006D;
},
{
glyphname = n;
lastChange = "2017-05-24 16:56:05 +0000";
layers = (
{
layerId = "D40DD59D-1539-4674-98F2-408D5EBDB9DF";
paths = (
{
closed = 1;
nodes = (
"669 842 OFFCURVE",
"725 813 OFFCURVE",
"725 682 CURVE SMOOTH",
"725 0 LINE",
"1064 0 LINE",
"1064 686 LINE",
"1063 995 OFFCURVE",
"924 1102 OFFCURVE",
"724 1102 CURVE SMOOTH",
"594 1102 OFFCURVE",
"491 1053 OFFCURVE",
"416 956 CURVE",
"405 1082 LINE",
"89 1082 LINE",
"89 0 LINE",
"426 0 LINE",
"426 765 LINE",
"457 816 OFFCURVE",
"506 842 OFFCURVE",
"572 842 CURVE SMOOTH"
);
}
);
width = 1156;
}
);
leftKerningGroup = m;
note = n;
rightKerningGroup = h;
unicode = 006E;
},
{
glyphname = o;
lastChange = "2017-05-24 16:56:05 +0000";
layers = (
{
layerId = "D40DD59D-1539-4674-98F2-408D5EBDB9DF";
paths = (
{
closed = 1;
nodes = (
"58 208 OFFCURVE",
"240 -20 OFFCURVE",
"576 -20 CURVE SMOOTH",
"915 -20 OFFCURVE",
"1097 214 OFFCURVE",
"1097 530 CURVE SMOOTH",
"1097 551 LINE SMOOTH",
"1097 867 OFFCURVE",
"914 1102 OFFCURVE",
"574 1102 CURVE SMOOTH",
"235 1102 OFFCURVE",
"53 867 OFFCURVE",
"53 551 CURVE SMOOTH",
"53 517 LINE SMOOTH"
);
},
{
closed = 1;
nodes = (
"390 718 OFFCURVE",
"433 842 OFFCURVE",
"574 842 CURVE SMOOTH",
"719 842 OFFCURVE",
"760 710 OFFCURVE",
"760 551 CURVE SMOOTH",
"760 359 OFFCURVE",
"717 240 OFFCURVE",
"576 240 CURVE SMOOTH",
"431 240 OFFCURVE",
"390 367 OFFCURVE",
"390 530 CURVE SMOOTH"
);
}
);
width = 1151;
}
);
leftKerningGroup = o;
note = o;
rightKerningGroup = o;
unicode = 006F;
},
{
glyphname = p;
lastChange = "2017-05-24 16:56:05 +0000";
layers = (
{
layerId = "D40DD59D-1539-4674-98F2-408D5EBDB9DF";
paths = (
{
closed = 1;
nodes = (
"952 -20 OFFCURVE",
"1099 218 OFFCURVE",
"1099 533 CURVE SMOOTH",
"1099 554 LINE SMOOTH",
"1099 883 OFFCURVE",
"953 1102 OFFCURVE",
"678 1102 CURVE SMOOTH",
"573 1102 OFFCURVE",
"488 1062 OFFCURVE",
"423 982 CURVE",
"412 1082 LINE",
"98 1082 LINE",
"98 -416 LINE",
"435 -416 LINE",
"435 89 LINE",
"499 16 OFFCURVE",
"580 -20 OFFCURVE",
"679 -20 CURVE SMOOTH"
);
},
{
closed = 1;
nodes = (
"719 842 OFFCURVE",
"762 722 OFFCURVE",
"762 554 CURVE SMOOTH",
"762 363 OFFCURVE",
"723 240 OFFCURVE",
"596 240 CURVE SMOOTH",
"518 240 OFFCURVE",
"464 270 OFFCURVE",
"435 329 CURVE",
"435 756 LINE",
"462 813 OFFCURVE",
"515 842 OFFCURVE",
"594 842 CURVE SMOOTH"
);
}
);
width = 1153;
}
);
leftKerningGroup = m;
note = p;
rightKerningGroup = b;
unicode = 0070;
},
{
glyphname = q;
lastChange = "2017-05-24 16:56:05 +0000";
layers = (
{
layerId = "D40DD59D-1539-4674-98F2-408D5EBDB9DF";
paths = (
{
closed = 1;
nodes = (
"740 966 LINE",
"673 1057 OFFCURVE",
"584 1102 OFFCURVE",
"473 1102 CURVE SMOOTH",
"200 1102 OFFCURVE",
"53 881 OFFCURVE",
"53 552 CURVE SMOOTH",
"53 527 LINE SMOOTH",
"54 214 OFFCURVE",
"200 -20 OFFCURVE",
"471 -20 CURVE SMOOTH",
"572 -20 OFFCURVE",
"654 17 OFFCURVE",
"717 90 CURVE",
"717 -416 LINE",
"1056 -416 LINE",
"1056 1082 LINE",
"764 1082 LINE"
);
},
{
closed = 1;
nodes = (
"390 728 OFFCURVE",
"432 842 OFFCURVE",
"559 842 CURVE SMOOTH",
"636 842 OFFCURVE",
"689 813 OFFCURVE",
"717 756 CURVE",
"717 327 LINE",
"688 269 OFFCURVE",
"634 240 OFFCURVE",
"557 240 CURVE SMOOTH",
"429 240 OFFCURVE",
"390 370 OFFCURVE",
"390 531 CURVE SMOOTH"
);
}
);
width = 1151;
}
);
leftKerningGroup = c;
note = q;
unicode = 0071;
},
{
glyphname = r;
lastChange = "2017-05-24 16:56:05 +0000";
layers = (
{
layerId = "D40DD59D-1539-4674-98F2-408D5EBDB9DF";
paths = (
{
closed = 1;
nodes = (
"755 1090 LINE",
"730 1098 OFFCURVE",
"699 1102 OFFCURVE",
"662 1102 CURVE SMOOTH",
"560 1102 OFFCURVE",
"481 1049 OFFCURVE",
"424 944 CURVE",
"413 1082 LINE",
"98 1082 LINE",
"98 0 LINE",
"435 0 LINE",
"435 686 LINE",
"465 752 OFFCURVE",
"533 785 OFFCURVE",
"638 785 CURVE",
"749 777 LINE"
);
}
);
width = 776;
}
);
note = r;
rightKerningGroup = r;
unicode = 0072;
},
{
glyphname = s;
lastChange = "2017-05-24 16:56:05 +0000";
layers = (
{
layerId = "D40DD59D-1539-4674-98F2-408D5EBDB9DF";
paths = (
{
closed = 1;
nodes = (
"662 237 OFFCURVE",
"616 203 OFFCURVE",
"523 203 CURVE SMOOTH",
"423 203 OFFCURVE",
"354 247 OFFCURVE",
"350 347 CURVE",
"36 347 LINE",
"36 172 OFFCURVE",
"203 -20 OFFCURVE",
"514 -20 CURVE SMOOTH",
"805 -20 OFFCURVE",
"987 123 OFFCURVE",
"987 314 CURVE SMOOTH",
"987 537 OFFCURVE",
"807 614 OFFCURVE",
"568 659 CURVE SMOOTH",
"448 682 OFFCURVE",
"388 721 OFFCURVE",
"388 777 CURVE SMOOTH",
"388 840 OFFCURVE",
"445 880 OFFCURVE",
"514 880 CURVE SMOOTH",
"605 880 OFFCURVE",
"651 837 OFFCURVE",
"651 750 CURVE",
"988 750 LINE",
"988 958 OFFCURVE",
"806 1102 OFFCURVE",
"515 1102 CURVE SMOOTH",
"231 1102 OFFCURVE",
"69 943 OFFCURVE",
"69 760 CURVE SMOOTH",
"69 572 OFFCURVE",
"234 474 OFFCURVE",
"445 427 CURVE SMOOTH",
"526 409 OFFCURVE",
"583 391 OFFCURVE",
"615 374 CURVE",
"646 356 OFFCURVE",
"662 333 OFFCURVE",
"662 304 CURVE SMOOTH"
);
}
);
width = 1050;
}
);
leftKerningGroup = s;
note = s;
unicode = 0073;
},
{
glyphname = t;
lastChange = "2017-05-24 16:56:05 +0000";
layers = (
{
layerId = "D40DD59D-1539-4674-98F2-408D5EBDB9DF";
paths = (
{
closed = 1;
nodes = (
"658 246 OFFCURVE",
"630 244 OFFCURVE",
"597 244 CURVE SMOOTH",
"514 244 OFFCURVE",
"487 266 OFFCURVE",
"487 353 CURVE SMOOTH",
"487 848 LINE",
"665 848 LINE",
"665 1082 LINE",
"487 1082 LINE",
"487 1351 LINE",
"150 1351 LINE",
"150 1082 LINE",
"13 1082 LINE",
"13 848 LINE",
"150 848 LINE",
"150 311 LINE SMOOTH",
"150 76 OFFCURVE",
"274 -20 OFFCURVE",
"491 -20 CURVE SMOOTH",
"558 -20 OFFCURVE",
"622 -10 OFFCURVE",
"681 9 CURVE",
"681 250 LINE"
);
}
);
width = 704;
}
);
note = t;
unicode = 0074;
},
{
glyphname = u;
lastChange = "2017-05-24 16:56:05 +0000";
layers = (
{
layerId = "D40DD59D-1539-4674-98F2-408D5EBDB9DF";
paths = (
{
closed = 1;
nodes = (
"1065 1082 LINE",
"727 1082 LINE",
"727 325 LINE",
"696 268 OFFCURVE",
"641 240 OFFCURVE",
"562 240 CURVE SMOOTH",
"471 240 OFFCURVE",
"426 287 OFFCURVE",
"426 380 CURVE SMOOTH",
"426 1082 LINE",
"89 1082 LINE",
"89 382 LINE SMOOTH",
"89 97 OFFCURVE",
"236 -20 OFFCURVE",
"451 -20 CURVE SMOOTH",
"572 -20 OFFCURVE",
"668 25 OFFCURVE",
"739 116 CURVE",
"749 0 LINE",
"1065 0 LINE"
);
}
);
width = 1156;
}
);
leftKerningGroup = u;
note = u;
unicode = 0075;
},
{
glyphname = v;
lastChange = "2017-05-24 16:56:05 +0000";
layers = (
{
layerId = "D40DD59D-1539-4674-98F2-408D5EBDB9DF";
paths = (
{
closed = 1;
nodes = (
"527 400 LINE",
"359 1082 LINE",
"3 1082 LINE",
"356 0 LINE",
"699 0 LINE",
"1053 1082 LINE",
"698 1082 LINE"
);
}
);
width = 1058;
}
);
leftKerningGroup = v;
note = v;
rightKerningGroup = v;
unicode = 0076;
},
{
glyphname = w;
lastChange = "2017-05-24 16:56:05 +0000";
layers = (
{
layerId = "D40DD59D-1539-4674-98F2-408D5EBDB9DF";
paths = (
{
closed = 1;
nodes = (
"1030 442 LINE",
"859 1082 LINE",
"624 1082 LINE",
"452 430 LINE",
"345 1082 LINE",
"22 1082 LINE",
"278 0 LINE",
"562 0 LINE",
"743 641 LINE",
"921 0 LINE",
"1207 0 LINE",
"1461 1082 LINE",
"1138 1082 LINE"
);
}
);
width = 1487;
}
);
note = w;
unicode = 0077;
},
{
glyphname = x;
lastChange = "2017-05-24 16:56:05 +0000";
layers = (
{
layerId = "D40DD59D-1539-4674-98F2-408D5EBDB9DF";
paths = (
{
closed = 1;
nodes = (
"311 555 LINE",
"12 0 LINE",
"365 0 LINE",
"533 320 LINE",
"702 0 LINE",
"1055 0 LINE",
"756 555 LINE",
"1040 1082 LINE",
"690 1082 LINE",
"533 784 LINE",
"381 1082 LINE",
"28 1082 LINE"
);
}
);
width = 1055;
}
);
leftKerningGroup = x;
note = x;
rightKerningGroup = x;
unicode = 0078;
},
{
glyphname = y;
lastChange = "2017-05-24 16:56:05 +0000";
layers = (
{
layerId = "D40DD59D-1539-4674-98F2-408D5EBDB9DF";
paths = (
{
closed = 1;
nodes = (
"707 1082 LINE",
"528 471 LINE",
"356 1082 LINE",
"-5 1082 LINE",
"373 -11 LINE",
"345 -82 LINE",
"325 -143 OFFCURVE",
"289 -176 OFFCURVE",
"181 -176 CURVE SMOOTH",
"137 -176 LINE",
"137 -417 LINE",
"213 -434 LINE",
"277 -437 LINE",
"359 -437 OFFCURVE",
"424 -421 OFFCURVE",
"472 -390 CURVE SMOOTH",
"567 -328 OFFCURVE",
"610 -234 OFFCURVE",
"634 -161 CURVE SMOOTH",
"1069 1082 LINE"
);
}
);
width = 1061;
}
);
leftKerningGroup = v;
note = y;
rightKerningGroup = v;
unicode = 0079;
},
{
glyphname = z;
lastChange = "2017-05-24 16:56:05 +0000";
layers = (
{
layerId = "D40DD59D-1539-4674-98F2-408D5EBDB9DF";
paths = (
{
closed = 1;
nodes = (
"67 188 LINE",
"67 0 LINE",
"985 0 LINE",
"985 260 LINE",
"494 260 LINE",
"975 900 LINE",
"975 1082 LINE",
"87 1082 LINE",
"87 822 LINE",
"546 822 LINE"
);
}
);
width = 1055;
}
);
leftKerningGroup = z;
note = z;
rightKerningGroup = z;
unicode = 007A;
},
{
glyphname = braceleft;
lastChange = "2017-05-24 16:56:05 +0000";
layers = (
{
layerId = "D40DD59D-1539-4674-98F2-408D5EBDB9DF";
paths = (
{
closed = 1;
nodes = (
"148 505 OFFCURVE",
"202 438 OFFCURVE",
"202 303 CURVE SMOOTH",
"202 106 LINE SMOOTH",
"202 -105 OFFCURVE",
"287 -283 OFFCURVE",
"562 -360 CURVE",
"626 -183 LINE",
"523 -142 OFFCURVE",
"495 -30 OFFCURVE",
"495 106 CURVE SMOOTH",
"495 299 LINE SMOOTH",
"495 452 OFFCURVE",
"433 558 OFFCURVE",
"310 619 CURVE",
"433 680 OFFCURVE",
"495 786 OFFCURVE",
"495 939 CURVE SMOOTH",
"495 1132 LINE SMOOTH",
"495 1268 OFFCURVE",
"523 1380 OFFCURVE",
"626 1421 CURVE",
"562 1597 LINE",
"287 1520 OFFCURVE",
"202 1343 OFFCURVE",
"202 1132 CURVE SMOOTH",
"202 934 LINE SMOOTH",
"202 799 OFFCURVE",
"148 732 OFFCURVE",
"41 732 CURVE",
"41 505 LINE"
);
}
);
width = 666;
}
);
note = braceleft;
unicode = 007B;
},
{
glyphname = bar;
lastChange = "2017-05-24 16:56:05 +0000";
layers = (
{
layerId = "D40DD59D-1539-4674-98F2-408D5EBDB9DF";
paths = (
{
closed = 1;
nodes = (
"173 -270 LINE",
"356 -270 LINE",
"356 1456 LINE",
"173 1456 LINE"
);
}
);
width = 524;
}
);
note = bar;
unicode = 007C;
},
{
glyphname = braceright;
lastChange = "2017-05-24 16:56:05 +0000";
layers = (
{
layerId = "D40DD59D-1539-4674-98F2-408D5EBDB9DF";
paths = (
{
closed = 1;
nodes = (
"519 732 OFFCURVE",
"465 799 OFFCURVE",
"465 933 CURVE SMOOTH",
"465 1132 LINE SMOOTH",
"465 1343 OFFCURVE",
"380 1520 OFFCURVE",
"105 1597 CURVE",
"41 1421 LINE",
"145 1380 OFFCURVE",
"172 1268 OFFCURVE",
"172 1132 CURVE SMOOTH",
"172 937 LINE SMOOTH",
"172 786 OFFCURVE",
"234 680 OFFCURVE",
"359 619 CURVE",
"234 558 OFFCURVE",
"172 452 OFFCURVE",
"172 301 CURVE SMOOTH",
"172 106 LINE SMOOTH",
"172 -30 OFFCURVE",
"145 -142 OFFCURVE",
"41 -183 CURVE",
"105 -360 LINE",
"380 -283 OFFCURVE",
"465 -105 OFFCURVE",
"465 106 CURVE SMOOTH",
"465 304 LINE SMOOTH",
"465 438 OFFCURVE",
"519 505 OFFCURVE",
"627 505 CURVE",
"627 732 LINE"
);
}
);
width = 666;
}
);
note = braceright;
unicode = 007D;
},
{
glyphname = asciitilde;
lastChange = "2017-05-24 16:56:05 +0000";
layers = (
{
layerId = "D40DD59D-1539-4674-98F2-408D5EBDB9DF";
paths = (
{
closed = 1;
nodes = (
"957 704 OFFCURVE",
"909 628 OFFCURVE",
"841 628 CURVE SMOOTH",
"798 628 OFFCURVE",
"751 653 OFFCURVE",
"702 704 CURVE SMOOTH",
"616 792 OFFCURVE",
"524 836 OFFCURVE",
"427 836 CURVE SMOOTH",
"230 836 OFFCURVE",
"94 681 OFFCURVE",
"94 409 CURVE",
"333 405 LINE",
"333 500 OFFCURVE",
"381 576 OFFCURVE",
"449 576 CURVE SMOOTH",
"494 576 OFFCURVE",
"543 550 OFFCURVE",
"594 497 CURVE SMOOTH",
"686 406 OFFCURVE",
"759 367 OFFCURVE",
"863 367 CURVE SMOOTH",
"1060 367 OFFCURVE",
"1198 530 OFFCURVE",
"1198 799 CURVE",
"957 800 LINE"
);
}
);
width = 1295;
}
);
note = asciitilde;
unicode = 007E;
},
{
glyphname = exclamdown;
lastChange = "2017-05-24 16:56:05 +0000";
layers = (
{
layerId = "D40DD59D-1539-4674-98F2-408D5EBDB9DF";
paths = (
{
closed = 1;
nodes = (
"497 1029 OFFCURVE",
"421 1102 OFFCURVE",
"310 1102 CURVE SMOOTH",
"199 1102 OFFCURVE",
"123 1029 OFFCURVE",
"123 933 CURVE SMOOTH",
"123 837 OFFCURVE",
"199 764 OFFCURVE",
"310 764 CURVE SMOOTH",
"421 764 OFFCURVE",
"497 837 OFFCURVE",
"497 933 CURVE SMOOTH"
);
},
{
closed = 1;
nodes = (
"445 623 LINE",
"171 623 LINE",
"128 -372 LINE",
"488 -372 LINE"
);
}
);
width = 616;
}
);
note = exclamdown;
unicode = 00A1;
},
{
glyphname = cent;
lastChange = "2017-05-24 16:56:05 +0000";
layers = (
{
layerId = "D40DD59D-1539-4674-98F2-408D5EBDB9DF";
paths = (
{
closed = 1;
nodes = (
"747 289 OFFCURVE",
"698 240 OFFCURVE",
"597 240 CURVE SMOOTH",
"456 240 OFFCURVE",
"435 369 OFFCURVE",
"435 529 CURVE SMOOTH",
"435 725 OFFCURVE",
"459 842 OFFCURVE",
"595 842 CURVE SMOOTH",
"698 842 OFFCURVE",
"748 765 OFFCURVE",
"745 668 CURVE",
"1062 668 LINE",
"1063 905 OFFCURVE",
"922 1056 OFFCURVE",
"710 1093 CURVE",
"710 1318 LINE",
"510 1318 LINE",
"510 1095 LINE",
"235 1055 OFFCURVE",
"98 835 OFFCURVE",
"98 552 CURVE SMOOTH",
"98 529 LINE SMOOTH",
"98 246 OFFCURVE",
"235 27 OFFCURVE",
"510 -13 CURVE",
"510 -245 LINE",
"710 -245 LINE",
"710 -11 LINE",
"917 26 OFFCURVE",
"1063 177 OFFCURVE",
"1062 386 CURVE",
"745 386 LINE"
);
}
);
width = 1210;
}
);
note = cent;
unicode = 00A2;
},
{
glyphname = sterling;
lastChange = "2017-05-24 16:56:05 +0000";
layers = (
{
layerId = "D40DD59D-1539-4674-98F2-408D5EBDB9DF";
paths = (
{
closed = 1;
nodes = (
"1175 270 LINE",
"568 270 LINE",
"607 314 OFFCURVE",
"627 374 OFFCURVE",
"627 449 CURVE",
"622 561 LINE",
"918 561 LINE",
"918 822 LINE",
"611 822 LINE",
"601 1039 LINE",
"601 1150 OFFCURVE",
"639 1205 OFFCURVE",
"715 1205 CURVE SMOOTH",
"790 1205 OFFCURVE",
"851 1167 OFFCURVE",
"851 1048 CURVE",
"1180 1048 LINE",
"1180 1304 OFFCURVE",
"1013 1475 OFFCURVE",
"706 1475 CURVE SMOOTH",
"430 1475 OFFCURVE",
"252 1315 OFFCURVE",
"252 1039 CURVE SMOOTH",
"258 822 LINE",
"103 822 LINE",
"103 561 LINE",
"266 561 LINE",
"270 426 LINE SMOOTH",
"270 351 OFFCURVE",
"269 285 OFFCURVE",
"210 270 CURVE",
"106 270 LINE",
"106 0 LINE",
"1176 0 LINE"
);
}
);
width = 1230;
}
);
note = sterling;
unicode = 00A3;
},
{
glyphname = currency;
lastChange = "2017-05-24 16:56:05 +0000";
layers = (
{
layerId = "D40DD59D-1539-4674-98F2-408D5EBDB9DF";
paths = (
{
closed = 1;
nodes = (
"1261 364 OFFCURVE",
"1294 480 OFFCURVE",
"1294 608 CURVE SMOOTH",
"1294 742 OFFCURVE",
"1259 863 OFFCURVE",
"1188 970 CURVE",
"1335 1120 LINE",
"1193 1265 LINE",
"1049 1117 LINE",
"946 1195 OFFCURVE",
"829 1234 OFFCURVE",
"700 1234 CURVE SMOOTH",
"571 1234 OFFCURVE",
"455 1196 OFFCURVE",
"352 1119 CURVE",
"210 1264 LINE",
"69 1120 LINE",
"213 973 LINE",
"140 866 OFFCURVE",
"104 744 OFFCURVE",
"104 608 CURVE SMOOTH",
"104 478 OFFCURVE",
"138 361 OFFCURVE",
"205 256 CURVE",
"69 118 LINE",
"210 -26 LINE",
"339 106 LINE",
"445 22 OFFCURVE",
"565 -20 OFFCURVE",
"700 -20 CURVE SMOOTH",
"835 -20 OFFCURVE",
"956 23 OFFCURVE",
"1062 108 CURVE",
"1193 -27 LINE",
"1335 118 LINE",
"1196 259 LINE"
);
},
{
closed = 1;
nodes = (
"290 853 OFFCURVE",
"472 1042 OFFCURVE",
"700 1042 CURVE SMOOTH",
"927 1042 OFFCURVE",
"1109 853 OFFCURVE",
"1109 608 CURVE SMOOTH",
"1109 363 OFFCURVE",
"927 173 OFFCURVE",
"700 173 CURVE SMOOTH",
"472 173 OFFCURVE",
"290 363 OFFCURVE",
"290 608 CURVE SMOOTH"
);
}
);
width = 1398;
}
);
note = currency;
unicode = 00A4;
},
{
glyphname = yen;
lastChange = "2017-05-24 16:56:05 +0000";
layers = (
{
layerId = "D40DD59D-1539-4674-98F2-408D5EBDB9DF";
paths = (
{
closed = 1;
nodes = (
"726 452 LINE",
"726 552 LINE",
"998 552 LINE",
"998 742 LINE",
"793 742 LINE",
"1099 1456 LINE",
"741 1456 LINE",
"555 936 LINE",
"367 1456 LINE",
"10 1456 LINE",
"316 742 LINE",
"73 742 LINE",
"73 552 LINE",
"376 552 LINE",
"376 452 LINE",
"73 452 LINE",
"73 263 LINE",
"376 263 LINE",
"376 0 LINE",
"726 0 LINE",
"726 263 LINE",
"998 263 LINE",
"998 452 LINE"
);
}
);
width = 1108;
}
);
note = yen;
unicode = 00A5;
},
{
glyphname = brokenbar;
lastChange = "2017-05-24 16:56:05 +0000";
layers = (
{
layerId = "D40DD59D-1539-4674-98F2-408D5EBDB9DF";
paths = (
{
closed = 1;
nodes = (
"119 698 LINE",
"411 698 LINE",
"411 1456 LINE",
"119 1456 LINE"
);
},
{
closed = 1;
nodes = (
"119 525 LINE",
"119 -270 LINE",
"411 -270 LINE",
"411 525 LINE"
);
}
);
width = 525;
}
);
note = brokenbar;
unicode = 00A6;
},
{
glyphname = section;
lastChange = "2017-05-24 16:56:05 +0000";
layers = (
{
layerId = "D40DD59D-1539-4674-98F2-408D5EBDB9DF";
paths = (
{
closed = 1;
nodes = (
"1178 66 OFFCURVE",
"1132 163 OFFCURVE",
"1041 232 CURVE",
"1144 293 OFFCURVE",
"1195 382 OFFCURVE",
"1195 500 CURVE SMOOTH",
"1195 733 OFFCURVE",
"1027 838 OFFCURVE",
"720 917 CURVE SMOOTH",
"619 943 OFFCURVE",
"549 967 OFFCURVE",
"509 990 CURVE SMOOTH",
"468 1012 OFFCURVE",
"448 1046 OFFCURVE",
"448 1092 CURVE SMOOTH",
"448 1161 OFFCURVE",
"504 1216 OFFCURVE",
"643 1216 CURVE SMOOTH",
"774 1216 OFFCURVE",
"838 1144 OFFCURVE",
"838 1051 CURVE",
"1175 1051 LINE",
"1175 1324 OFFCURVE",
"974 1476 OFFCURVE",
"643 1476 CURVE SMOOTH",
"320 1476 OFFCURVE",
"110 1325 OFFCURVE",
"110 1090 CURVE SMOOTH",
"110 965 OFFCURVE",
"157 868 OFFCURVE",
"250 798 CURVE",
"145 736 OFFCURVE",
"93 646 OFFCURVE",
"93 528 CURVE SMOOTH",
"93 296 OFFCURVE",
"263 193 OFFCURVE",
"566 112 CURVE SMOOTH",
"669 85 OFFCURVE",
"740 59 OFFCURVE",
"781 34 CURVE SMOOTH",
"821 9 OFFCURVE",
"841 -23 OFFCURVE",
"841 -62 CURVE SMOOTH",
"841 -138 OFFCURVE",
"777 -176 OFFCURVE",
"648 -176 CURVE SMOOTH",
"540 -176 OFFCURVE",
"431 -153 OFFCURVE",
"431 -25 CURVE",
"94 -25 LINE",
"94 -131 OFFCURVE",
"121 -214 OFFCURVE",
"175 -274 CURVE SMOOTH",
"283 -394 OFFCURVE",
"463 -437 OFFCURVE",
"648 -437 CURVE SMOOTH",
"968 -437 OFFCURVE",
"1178 -305 OFFCURVE",
"1178 -61 CURVE SMOOTH"
);
},
{
closed = 1;
nodes = (
"585 409 OFFCURVE",
"515 437 OFFCURVE",
"481 461 CURVE SMOOTH",
"447 485 OFFCURVE",
"430 521 OFFCURVE",
"430 568 CURVE SMOOTH",
"430 621 OFFCURVE",
"447 661 OFFCURVE",
"480 688 CURVE",
"582 656 LINE SMOOTH",
"687 625 OFFCURVE",
"760 596 OFFCURVE",
"801 569 CURVE SMOOTH",
"842 541 OFFCURVE",
"863 505 OFFCURVE",
"863 462 CURVE SMOOTH",
"863 411 OFFCURVE",
"844 371 OFFCURVE",
"807 342 CURVE",
"690 376 LINE SMOOTH"
);
}
);
width = 1302;
}
);
note = section;
unicode = 00A7;
},
{
glyphname = dieresis;
lastChange = "2017-05-24 16:56:05 +0000";
layers = (
{
layerId = "D40DD59D-1539-4674-98F2-408D5EBDB9DF";
paths = (
{
closed = 1;
nodes = (
"95 1290 OFFCURVE",
"163 1232 OFFCURVE",
"246 1232 CURVE SMOOTH",
"329 1232 OFFCURVE",
"397 1290 OFFCURVE",
"397 1365 CURVE SMOOTH",
"397 1440 OFFCURVE",
"329 1498 OFFCURVE",
"246 1498 CURVE SMOOTH",
"163 1498 OFFCURVE",
"95 1440 OFFCURVE",
"95 1365 CURVE SMOOTH"
);
},
{
closed = 1;
nodes = (
"614 1290 OFFCURVE",
"684 1232 OFFCURVE",
"765 1232 CURVE SMOOTH",
"848 1232 OFFCURVE",
"916 1290 OFFCURVE",
"916 1365 CURVE SMOOTH",
"916 1440 OFFCURVE",
"848 1498 OFFCURVE",
"765 1498 CURVE SMOOTH",
"684 1498 OFFCURVE",
"614 1440 OFFCURVE",
"614 1365 CURVE SMOOTH"
);
}
);
width = 1013;
}
);
note = dieresis;
unicode = 00A8;
},
{
glyphname = copyright;
lastChange = "2017-05-24 16:56:05 +0000";
layers = (
{
layerId = "D40DD59D-1539-4674-98F2-408D5EBDB9DF";
paths = (
{
closed = 1;
nodes = (
"86 588 OFFCURVE",
"118 461 OFFCURVE",
"182 348 CURVE SMOOTH",
"310 121 OFFCURVE",
"535 -20 OFFCURVE",
"796 -20 CURVE SMOOTH",
"927 -20 OFFCURVE",
"1046 13 OFFCURVE",
"1153 79 CURVE SMOOTH",
"1368 211 OFFCURVE",
"1506 448 OFFCURVE",
"1506 729 CURVE SMOOTH",
"1506 870 OFFCURVE",
"1474 997 OFFCURVE",
"1410 1110 CURVE SMOOTH",
"1282 1336 OFFCURVE",
"1057 1476 OFFCURVE",
"796 1476 CURVE SMOOTH",
"665 1476 OFFCURVE",
"546 1443 OFFCURVE",
"439 1378 CURVE SMOOTH",
"224 1246 OFFCURVE",
"86 1010 OFFCURVE",
"86 729 CURVE SMOOTH"
);
},
{
closed = 1;
nodes = (
"208 847 OFFCURVE",
"235 953 OFFCURVE",
"288 1047 CURVE SMOOTH",
"394 1234 OFFCURVE",
"580 1351 OFFCURVE",
"796 1351 CURVE SMOOTH",
"904 1351 OFFCURVE",
"1002 1324 OFFCURVE",
"1091 1269 CURVE SMOOTH",
"1268 1160 OFFCURVE",
"1383 965 OFFCURVE",
"1383 729 CURVE SMOOTH",
"1383 380 OFFCURVE",
"1121 105 OFFCURVE",
"796 105 CURVE SMOOTH",
"688 105 OFFCURVE",
"590 133 OFFCURVE",
"501 188 CURVE SMOOTH",
"323 298 OFFCURVE",
"208 493 OFFCURVE",
"208 729 CURVE SMOOTH"
);
},
{
closed = 1;
nodes = (
"961 465 OFFCURVE",
"899 417 OFFCURVE",
"782 417 CURVE SMOOTH",
"654 417 OFFCURVE",
"588 520 OFFCURVE",
"588 669 CURVE SMOOTH",
"588 789 LINE SMOOTH",
"588 936 OFFCURVE",
"654 1040 OFFCURVE",
"782 1040 CURVE SMOOTH",
"902 1040 OFFCURVE",
"962 980 OFFCURVE",
"962 861 CURVE",
"1118 861 LINE",
"1118 1070 OFFCURVE",
"987 1175 OFFCURVE",
"782 1175 CURVE SMOOTH",
"567 1175 OFFCURVE",
"433 1017 OFFCURVE",
"433 788 CURVE SMOOTH",
"433 669 LINE SMOOTH",
"433 438 OFFCURVE",
"567 282 OFFCURVE",
"782 282 CURVE SMOOTH",
"987 282 OFFCURVE",
"1117 385 OFFCURVE",
"1117 596 CURVE",
"961 596 LINE"
);
}
);
width = 1609;
}
);
note = copyright;
unicode = 00A9;
},
{
glyphname = ordfeminine;
lastChange = "2017-05-24 16:56:05 +0000";
layers = (
{
layerId = "D40DD59D-1539-4674-98F2-408D5EBDB9DF";
paths = (
{
closed = 1;
nodes = (
"761 758 OFFCURVE",
"752 818 OFFCURVE",
"752 886 CURVE SMOOTH",
"752 1200 LINE SMOOTH",
"752 1383 OFFCURVE",
"636 1476 OFFCURVE",
"461 1476 CURVE SMOOTH",
"273 1476 OFFCURVE",
"150 1378 OFFCURVE",
"150 1243 CURVE",
"323 1229 LINE",
"323 1295 OFFCURVE",
"369 1328 OFFCURVE",
"461 1328 CURVE SMOOTH",
"538 1328 OFFCURVE",
"577 1286 OFFCURVE",
"577 1201 CURVE SMOOTH",
"577 1150 LINE",
"458 1150 LINE SMOOTH",
"242 1146 OFFCURVE",
"134 1069 OFFCURVE",
"134 919 CURVE SMOOTH",
"134 782 OFFCURVE",
"223 691 OFFCURVE",
"383 691 CURVE SMOOTH",
"466 691 OFFCURVE",
"533 718 OFFCURVE",
"584 773 CURVE",
"588 749 OFFCURVE",
"594 726 OFFCURVE",
"601 705 CURVE",
"778 705 LINE"
);
},
{
closed = 1;
nodes = (
"348 835 OFFCURVE",
"309 864 OFFCURVE",
"309 923 CURVE SMOOTH",
"309 980 OFFCURVE",
"360 1033 OFFCURVE",
"476 1033 CURVE SMOOTH",
"577 1033 LINE",
"577 897 LINE",
"541 864 OFFCURVE",
"479 835 OFFCURVE",
"426 835 CURVE SMOOTH"
);
}
);
width = 905;
}
);
note = ordfeminine;
unicode = 00AA;
},
{
glyphname = guillemotleft;
lastChange = "2017-05-24 16:56:05 +0000";
layers = (
{
layerId = "D40DD59D-1539-4674-98F2-408D5EBDB9DF";
paths = (
{
closed = 1;
nodes = (
"311 516 LINE",
"543 915 LINE",
"337 915 LINE",
"64 525 LINE",
"64 506 LINE",
"337 116 LINE",
"543 116 LINE"
);
},
{
closed = 1;
nodes = (
"725 516 LINE",
"957 915 LINE",
"751 915 LINE",
"478 525 LINE",
"478 506 LINE",
"751 116 LINE",
"957 116 LINE"
);
}
);
width = 1054;
}
);
note = guillemotleft;
unicode = 00AB;
},
{
glyphname = logicalnot;
lastChange = "2017-05-24 16:56:05 +0000";
layers = (
{
layerId = "D40DD59D-1539-4674-98F2-408D5EBDB9DF";
paths = (
{
closed = 1;
nodes = (
"761 634 LINE",
"761 374 LINE",
"961 374 LINE",
"961 805 LINE",
"126 805 LINE",
"126 634 LINE"
);
}
);
width = 1125;
}
);
note = logicalnot;
unicode = 00AC;
},
{
glyphname = registered;
lastChange = "2017-05-24 16:56:05 +0000";
layers = (
{
layerId = "D40DD59D-1539-4674-98F2-408D5EBDB9DF";
paths = (
{
closed = 1;
nodes = (
"86 588 OFFCURVE",
"118 461 OFFCURVE",
"182 348 CURVE SMOOTH",
"310 121 OFFCURVE",
"535 -20 OFFCURVE",
"796 -20 CURVE SMOOTH",
"927 -20 OFFCURVE",
"1046 13 OFFCURVE",
"1153 79 CURVE SMOOTH",
"1368 211 OFFCURVE",
"1506 448 OFFCURVE",
"1506 729 CURVE SMOOTH",
"1506 870 OFFCURVE",
"1474 997 OFFCURVE",
"1410 1110 CURVE SMOOTH",
"1282 1336 OFFCURVE",
"1057 1476 OFFCURVE",
"796 1476 CURVE SMOOTH",
"665 1476 OFFCURVE",
"546 1443 OFFCURVE",
"439 1378 CURVE SMOOTH",
"224 1246 OFFCURVE",
"86 1010 OFFCURVE",
"86 729 CURVE SMOOTH"
);
},
{
closed = 1;
nodes = (
"208 847 OFFCURVE",
"235 953 OFFCURVE",
"288 1047 CURVE SMOOTH",
"394 1234 OFFCURVE",
"580 1351 OFFCURVE",
"796 1351 CURVE SMOOTH",
"904 1351 OFFCURVE",
"1002 1324 OFFCURVE",
"1091 1269 CURVE SMOOTH",
"1268 1160 OFFCURVE",
"1383 965 OFFCURVE",
"1383 729 CURVE SMOOTH",
"1383 380 OFFCURVE",
"1121 105 OFFCURVE",
"796 105 CURVE SMOOTH",
"688 105 OFFCURVE",
"590 133 OFFCURVE",
"501 188 CURVE SMOOTH",
"323 298 OFFCURVE",
"208 493 OFFCURVE",
"208 729 CURVE SMOOTH"
);
},
{
closed = 1;
nodes = (
"905 653 OFFCURVE",
"953 608 OFFCURVE",
"953 511 CURVE SMOOTH",
"953 414 OFFCURVE",
"953 351 OFFCURVE",
"966 316 CURVE",
"1121 316 LINE",
"1121 332 LINE",
"1114 347 OFFCURVE",
"1110 366 OFFCURVE",
"1108 389 CURVE",
"1105 412 OFFCURVE",
"1104 451 OFFCURVE",
"1104 506 CURVE SMOOTH",
"1104 614 OFFCURVE",
"1077 689 OFFCURVE",
"1000 732 CURVE",
"1071 773 OFFCURVE",
"1107 829 OFFCURVE",
"1107 902 CURVE SMOOTH",
"1107 1074 OFFCURVE",
"979 1166 OFFCURVE",
"782 1166 CURVE SMOOTH",
"501 1166 LINE",
"501 316 LINE",
"652 316 LINE",
"652 653 LINE",
"810 653 LINE SMOOTH"
);
},
{
closed = 1;
nodes = (
"913 1033 OFFCURVE",
"957 1000 OFFCURVE",
"957 903 CURVE SMOOTH",
"957 826 OFFCURVE",
"874 787 OFFCURVE",
"779 787 CURVE SMOOTH",
"652 787 LINE",
"652 1033 LINE",
"782 1033 LINE SMOOTH"
);
}
);
width = 1609;
}
);
note = registered;
unicode = 00AE;
},
{
glyphname = macron;
lastChange = "2017-05-24 16:56:05 +0000";
layers = (
{
layerId = "D40DD59D-1539-4674-98F2-408D5EBDB9DF";
paths = (
{
closed = 1;
nodes = (
"181 1285 LINE",
"875 1285 LINE",
"875 1458 LINE",
"181 1458 LINE"
);
}
);
width = 1066;
}
);
note = macron;
unicode = 00AF;
},
{
glyphname = degree;
lastChange = "2017-05-24 16:56:05 +0000";
layers = (
{
layerId = "D40DD59D-1539-4674-98F2-408D5EBDB9DF";
paths = (
{
closed = 1;
nodes = (
"126 1042 OFFCURVE",
"253 918 OFFCURVE",
"406 918 CURVE SMOOTH",
"558 918 OFFCURVE",
"682 1042 OFFCURVE",
"682 1195 CURVE SMOOTH",
"682 1348 OFFCURVE",
"558 1476 OFFCURVE",
"406 1476 CURVE SMOOTH",
"253 1476 OFFCURVE",
"126 1348 OFFCURVE",
"126 1195 CURVE SMOOTH"
);
},
{
closed = 1;
nodes = (
"280 1268 OFFCURVE",
"338 1323 OFFCURVE",
"406 1323 CURVE SMOOTH",
"474 1323 OFFCURVE",
"527 1268 OFFCURVE",
"527 1195 CURVE SMOOTH",
"527 1123 OFFCURVE",
"474 1071 OFFCURVE",
"406 1071 CURVE SMOOTH",
"338 1071 OFFCURVE",
"280 1124 OFFCURVE",
"280 1195 CURVE SMOOTH"
);
}
);
width = 814;
}
);
note = degree;
unicode = 00B0;
},
{
glyphname = plusminus;
lastChange = "2017-05-24 16:56:05 +0000";
layers = (
{
layerId = "D40DD59D-1539-4674-98F2-408D5EBDB9DF";
paths = (
{
closed = 1;
nodes = (
"688 974 LINE",
"688 1293 LINE",
"395 1293 LINE",
"395 974 LINE",
"84 974 LINE",
"84 703 LINE",
"395 703 LINE",
"395 355 LINE",
"688 355 LINE",
"688 703 LINE",
"1000 703 LINE",
"1000 974 LINE"
);
},
{
closed = 1;
nodes = (
"101 1 LINE",
"980 1 LINE",
"980 265 LINE",
"101 265 LINE"
);
}
);
width = 1103;
}
);
note = plusminus;
unicode = 00B1;
},
{
glyphname = twosuperior;
lastChange = "2017-05-24 16:56:05 +0000";
layers = (
{
layerId = "D40DD59D-1539-4674-98F2-408D5EBDB9DF";
paths = (
{
closed = 1;
nodes = (
"448 910 LINE",
"609 1027 OFFCURVE",
"678 1095 OFFCURVE",
"678 1216 CURVE SMOOTH",
"678 1384 OFFCURVE",
"571 1468 OFFCURVE",
"358 1468 CURVE SMOOTH",
"171 1468 OFFCURVE",
"52 1341 OFFCURVE",
"52 1189 CURVE",
"277 1189 LINE",
"277 1242 OFFCURVE",
"309 1292 OFFCURVE",
"370 1292 CURVE SMOOTH",
"426 1292 OFFCURVE",
"454 1267 OFFCURVE",
"454 1216 CURVE SMOOTH",
"454 1189 OFFCURVE",
"422 1126 OFFCURVE",
"355 1067 CURVE SMOOTH",
"70 814 LINE",
"70 667 LINE",
"697 667 LINE",
"697 842 LINE",
"368 842 LINE"
);
}
);
width = 768;
}
);
note = twosuperior;
unicode = 00B2;
},
{
glyphname = threesuperior;
lastChange = "2017-05-24 16:56:05 +0000";
layers = (
{
layerId = "D40DD59D-1539-4674-98F2-408D5EBDB9DF";
paths = (
{
closed = 1;
nodes = (
"443 999 OFFCURVE",
"481 970 OFFCURVE",
"481 913 CURVE SMOOTH",
"481 872 OFFCURVE",
"455 832 OFFCURVE",
"380 832 CURVE SMOOTH",
"311 832 OFFCURVE",
"268 871 OFFCURVE",
"268 908 CURVE",
"42 908 LINE",
"42 721 OFFCURVE",
"218 656 OFFCURVE",
"363 656 CURVE SMOOTH",
"556 656 OFFCURVE",
"706 741 OFFCURVE",
"706 889 CURVE SMOOTH",
"706 985 OFFCURVE",
"655 1046 OFFCURVE",
"554 1072 CURVE",
"635 1101 OFFCURVE",
"691 1158 OFFCURVE",
"691 1241 CURVE SMOOTH",
"691 1389 OFFCURVE",
"556 1468 OFFCURVE",
"363 1468 CURVE SMOOTH",
"206 1468 OFFCURVE",
"58 1393 OFFCURVE",
"58 1241 CURVE",
"282 1241 LINE",
"282 1274 OFFCURVE",
"324 1292 OFFCURVE",
"371 1292 CURVE SMOOTH",
"444 1292 OFFCURVE",
"467 1254 OFFCURVE",
"467 1223 CURVE SMOOTH",
"467 1168 OFFCURVE",
"434 1141 OFFCURVE",
"368 1141 CURVE SMOOTH",
"277 1141 LINE",
"277 999 LINE",
"368 999 LINE SMOOTH"
);
}
);
width = 768;
}
);
note = threesuperior;
unicode = 00B3;
},
{
glyphname = acute;
lastChange = "2017-05-24 16:56:05 +0000";
layers = (
{
layerId = "D40DD59D-1539-4674-98F2-408D5EBDB9DF";
paths = (
{
closed = 1;
nodes = (
"644 1536 LINE",
"288 1536 LINE",
"90 1222 LINE",
"365 1222 LINE"
);
}
);
width = 692;
}
);
note = acute;
unicode = 00B4;
},
{
glyphname = mu;
lastChange = "2017-05-24 16:56:05 +0000";
layers = (
{
layerId = "D40DD59D-1539-4674-98F2-408D5EBDB9DF";
paths = (
{
closed = 1;
nodes = (
"701 -21 OFFCURVE",
"771 4 OFFCURVE",
"830 53 CURVE",
"834 0 LINE",
"1152 0 LINE",
"1152 1082 LINE",
"814 1082 LINE",
"814 334 LINE",
"779 273 OFFCURVE",
"719 243 OFFCURVE",
"634 243 CURVE SMOOTH",
"530 243 OFFCURVE",
"470 285 OFFCURVE",
"470 462 CURVE SMOOTH",
"470 1082 LINE",
"133 1082 LINE",
"133 -416 LINE",
"470 -416 LINE",
"470 14 LINE",
"513 -9 OFFCURVE",
"562 -21 OFFCURVE",
"619 -21 CURVE SMOOTH"
);
}
);
width = 1314;
}
);
note = mu;
unicode = 00B5;
},
{
glyphname = paragraph;
lastChange = "2017-05-24 16:56:05 +0000";
layers = (
{
layerId = "D40DD59D-1539-4674-98F2-408D5EBDB9DF";
paths = (
{
closed = 1;
nodes = (
"574 1456 LINE SMOOTH",
"257 1456 OFFCURVE",
"82 1256 OFFCURVE",
"82 988 CURVE SMOOTH",
"82 720 OFFCURVE",
"255 523 OFFCURVE",
"567 520 CURVE SMOOTH",
"657 520 LINE",
"657 0 LINE",
"886 0 LINE",
"886 1456 LINE"
);
}
);
width = 1001;
}
);
note = paragraph;
unicode = 00B6;
},
{
glyphname = periodcentered;
lastChange = "2017-05-24 16:56:05 +0000";
layers = (
{
layerId = "D40DD59D-1539-4674-98F2-408D5EBDB9DF";
paths = (
{
closed = 1;
nodes = (
"138 589 OFFCURVE",
"214 516 OFFCURVE",
"325 516 CURVE SMOOTH",
"436 516 OFFCURVE",
"511 589 OFFCURVE",
"511 685 CURVE SMOOTH",
"511 781 OFFCURVE",
"436 854 OFFCURVE",
"325 854 CURVE SMOOTH",
"214 854 OFFCURVE",
"138 781 OFFCURVE",
"138 685 CURVE SMOOTH"
);
}
);
width = 658;
}
);
note = periodcentered;
unicode = 00B7;
},
{
glyphname = cedilla;
lastChange = "2017-05-24 16:56:05 +0000";
layers = (
{
layerId = "D40DD59D-1539-4674-98F2-408D5EBDB9DF";
paths = (
{
closed = 1;
nodes = (
"176 -141 OFFCURVE",
"221 -166 OFFCURVE",
"221 -209 CURVE SMOOTH",
"221 -260 OFFCURVE",
"191 -286 OFFCURVE",
"132 -286 CURVE",
"139 -472 LINE",
"384 -472 OFFCURVE",
"513 -373 OFFCURVE",
"513 -224 CURVE SMOOTH",
"513 -109 OFFCURVE",
"436 -64 OFFCURVE",
"363 -51 CURVE",
"374 10 LINE",
"117 10 LINE",
"86 -136 LINE"
);
}
);
width = 570;
}
);
note = cedilla;
unicode = 00B8;
},
{
glyphname = onesuperior;
lastChange = "2017-05-24 16:56:05 +0000";
layers = (
{
layerId = "D40DD59D-1539-4674-98F2-408D5EBDB9DF";
paths = (
{
closed = 1;
nodes = (
"143 1331 LINE",
"143 1164 LINE",
"319 1200 LINE",
"319 667 LINE",
"543 667 LINE",
"543 1453 LINE",
"524 1453 LINE"
);
}
);
width = 768;
}
);
note = onesuperior;
unicode = 00B9;
},
{
glyphname = ordmasculine;
lastChange = "2017-05-24 16:56:05 +0000";
layers = (
{
layerId = "D40DD59D-1539-4674-98F2-408D5EBDB9DF";
paths = (
{
closed = 1;
nodes = (
"118 837 OFFCURVE",
"253 690 OFFCURVE",
"466 690 CURVE SMOOTH",
"679 690 OFFCURVE",
"811 837 OFFCURVE",
"811 1044 CURVE SMOOTH",
"811 1121 LINE SMOOTH",
"811 1328 OFFCURVE",
"679 1476 OFFCURVE",
"464 1476 CURVE SMOOTH",
"252 1476 OFFCURVE",
"118 1328 OFFCURVE",
"118 1121 CURVE SMOOTH",
"118 1044 LINE SMOOTH"
);
},
{
closed = 1;
nodes = (
"293 1238 OFFCURVE",
"349 1328 OFFCURVE",
"464 1328 CURVE SMOOTH",
"580 1328 OFFCURVE",
"636 1238 OFFCURVE",
"636 1121 CURVE SMOOTH",
"636 1044 LINE SMOOTH",
"636 925 OFFCURVE",
"581 836 OFFCURVE",
"466 836 CURVE SMOOTH",
"349 836 OFFCURVE",
"293 925 OFFCURVE",
"293 1044 CURVE SMOOTH",
"293 1121 LINE SMOOTH"
);
}
);
width = 939;
}
);
note = ordmasculine;
unicode = 00BA;
},
{
glyphname = guillemotright;
lastChange = "2017-05-24 16:56:05 +0000";
layers = (
{
layerId = "D40DD59D-1539-4674-98F2-408D5EBDB9DF";
paths = (
{
closed = 1;
nodes = (
"309 514 LINE",
"78 115 LINE",
"284 115 LINE",
"557 505 LINE",
"557 524 LINE",
"284 914 LINE",
"78 914 LINE"
);
},
{
closed = 1;
nodes = (
"722 514 LINE",
"491 115 LINE",
"697 115 LINE",
"970 505 LINE",
"970 524 LINE",
"697 914 LINE",
"491 914 LINE"
);
}
);
width = 1054;
}
);
note = guillemotright;
unicode = 00BB;
},
{
glyphname = onequarter;
lastChange = "2017-05-24 16:56:05 +0000";
layers = (
{
layerId = "D40DD59D-1539-4674-98F2-408D5EBDB9DF";
paths = (
{
closed = 1;
nodes = (
"112 1328 LINE",
"112 1161 LINE",
"288 1197 LINE",
"288 664 LINE",
"512 664 LINE",
"512 1450 LINE",
"493 1450 LINE"
);
},
{
closed = 1;
nodes = (
"305 196 LINE",
"462 117 LINE",
"1173 1255 LINE",
"1016 1334 LINE"
);
},
{
closed = 1;
nodes = (
"1288 335 LINE",
"1288 789 LINE",
"1063 789 LINE",
"715 302 LINE",
"730 157 LINE",
"1063 157 LINE",
"1063 0 LINE",
"1288 0 LINE",
"1288 157 LINE",
"1368 157 LINE",
"1368 335 LINE"
);
},
{
closed = 1;
nodes = (
"1063 525 LINE",
"1063 335 LINE",
"926 335 LINE",
"1048 503 LINE"
);
}
);
width = 1452;
}
);
note = onequarter;
unicode = 00BC;
},
{
glyphname = onehalf;
lastChange = "2017-05-24 16:56:05 +0000";
layers = (
{
layerId = "D40DD59D-1539-4674-98F2-408D5EBDB9DF";
paths = (
{
closed = 1;
nodes = (
"265 196 LINE",
"422 117 LINE",
"1133 1255 LINE",
"976 1334 LINE"
);
},
{
closed = 1;
nodes = (
"88 1336 LINE",
"88 1169 LINE",
"264 1205 LINE",
"264 672 LINE",
"488 672 LINE",
"488 1458 LINE",
"469 1458 LINE"
);
},
{
closed = 1;
nodes = (
"1221 243 LINE",
"1382 360 OFFCURVE",
"1451 428 OFFCURVE",
"1451 549 CURVE SMOOTH",
"1451 717 OFFCURVE",
"1344 801 OFFCURVE",
"1131 801 CURVE SMOOTH",
"944 801 OFFCURVE",
"825 674 OFFCURVE",
"825 522 CURVE",
"1050 522 LINE",
"1050 575 OFFCURVE",
"1082 625 OFFCURVE",
"1143 625 CURVE SMOOTH",
"1199 625 OFFCURVE",
"1227 600 OFFCURVE",
"1227 549 CURVE SMOOTH",
"1227 522 OFFCURVE",
"1195 459 OFFCURVE",
"1128 400 CURVE SMOOTH",
"843 147 LINE",
"843 0 LINE",
"1470 0 LINE",
"1470 175 LINE",
"1141 175 LINE"
);
}
);
width = 1537;
}
);
note = onehalf;
unicode = 00BD;
},
{
glyphname = threequarters;
lastChange = "2017-05-24 16:56:05 +0000";
layers = (
{
layerId = "D40DD59D-1539-4674-98F2-408D5EBDB9DF";
paths = (
{
closed = 1;
nodes = (
"487 196 LINE",
"644 117 LINE",
"1355 1255 LINE",
"1198 1334 LINE"
);
},
{
closed = 1;
nodes = (
"1486 335 LINE",
"1486 789 LINE",
"1261 789 LINE",
"913 302 LINE",
"928 157 LINE",
"1261 157 LINE",
"1261 0 LINE",
"1486 0 LINE",
"1486 157 LINE",
"1566 157 LINE",
"1566 335 LINE"
);
},
{
closed = 1;
nodes = (
"1261 525 LINE",
"1261 335 LINE",
"1124 335 LINE",
"1246 503 LINE"
);
},
{
closed = 1;
nodes = (
"487 999 OFFCURVE",
"525 970 OFFCURVE",
"525 913 CURVE SMOOTH",
"525 872 OFFCURVE",
"499 832 OFFCURVE",
"424 832 CURVE SMOOTH",
"355 832 OFFCURVE",
"312 869 OFFCURVE",
"312 908 CURVE",
"86 908 LINE",
"86 721 OFFCURVE",
"262 656 OFFCURVE",
"407 656 CURVE SMOOTH",
"600 656 OFFCURVE",
"750 741 OFFCURVE",
"750 889 CURVE SMOOTH",
"750 985 OFFCURVE",
"699 1046 OFFCURVE",
"598 1072 CURVE",
"679 1101 OFFCURVE",
"735 1158 OFFCURVE",
"735 1241 CURVE SMOOTH",
"735 1389 OFFCURVE",
"600 1468 OFFCURVE",
"407 1468 CURVE SMOOTH",
"250 1468 OFFCURVE",
"102 1393 OFFCURVE",
"102 1241 CURVE",
"326 1241 LINE",
"326 1274 OFFCURVE",
"368 1292 OFFCURVE",
"415 1292 CURVE SMOOTH",
"488 1292 OFFCURVE",
"511 1252 OFFCURVE",
"511 1223 CURVE SMOOTH",
"511 1168 OFFCURVE",
"478 1141 OFFCURVE",
"412 1141 CURVE SMOOTH",
"321 1141 LINE",
"321 999 LINE",
"412 999 LINE SMOOTH"
);
}
);
width = 1689;
}
);
note = threequarters;
unicode = 00BE;
},
{
glyphname = questiondown;
lastChange = "2017-05-24 16:56:05 +0000";
layers = (
{
layerId = "D40DD59D-1539-4674-98F2-408D5EBDB9DF";
paths = (
{
closed = 1;
nodes = (
"756 1030 OFFCURVE",
"680 1103 OFFCURVE",
"569 1103 CURVE SMOOTH",
"458 1103 OFFCURVE",
"382 1030 OFFCURVE",
"382 934 CURVE SMOOTH",
"382 838 OFFCURVE",
"458 765 OFFCURVE",
"569 765 CURVE SMOOTH",
"680 765 OFFCURVE",
"756 838 OFFCURVE",
"756 934 CURVE SMOOTH"
);
},
{
closed = 1;
nodes = (
"414 525 OFFCURVE",
"405 476 OFFCURVE",
"325 404 CURVE SMOOTH",
"198 289 OFFCURVE",
"73 186 OFFCURVE",
"73 11 CURVE SMOOTH",
"73 -246 OFFCURVE",
"249 -385 OFFCURVE",
"540 -385 CURVE SMOOTH",
"804 -385 OFFCURVE",
"1010 -261 OFFCURVE",
"1014 38 CURVE",
"676 38 LINE",
"672 -77 OFFCURVE",
"613 -125 OFFCURVE",
"532 -125 CURVE SMOOTH",
"461 -125 OFFCURVE",
"411 -84 OFFCURVE",
"411 11 CURVE SMOOTH",
"411 112 OFFCURVE",
"477 174 OFFCURVE",
"570 258 CURVE SMOOTH",
"679 350 OFFCURVE",
"704 455 OFFCURVE",
"704 630 CURVE",
"417 630 LINE"
);
}
);
width = 1044;
}
);
note = questiondown;
unicode = 00BF;
},
{
glyphname = AE;
lastChange = "2017-05-24 16:56:05 +0000";
layers = (
{
layerId = "D40DD59D-1539-4674-98F2-408D5EBDB9DF";
paths = (
{
closed = 1;
nodes = (
"1266 612 LINE",
"1710 612 LINE",
"1710 876 LINE",
"1255 876 LINE",
"1242 1192 LINE",
"1791 1192 LINE",
"1791 1456 LINE",
"751 1456 LINE",
"16 0 LINE",
"406 0 LINE",
"558 329 LINE",
"941 329 LINE",
"955 0 LINE",
"1852 0 LINE",
"1852 264 LINE",
"1281 264 LINE"
);
},
{
closed = 1;
nodes = (
"930 599 LINE",
"683 599 LINE",
"909 1087 LINE"
);
}
);
width = 1926;
}
);
note = AE;
unicode = 00C6;
},
{
glyphname = multiply;
lastChange = "2017-05-24 16:56:05 +0000";
layers = (
{
layerId = "D40DD59D-1539-4674-98F2-408D5EBDB9DF";
paths = (
{
closed = 1;
nodes = (
"1025 992 LINE",
"832 1175 LINE",
"539 876 LINE",
"246 1175 LINE",
"53 992 LINE",
"353 686 LINE",
"53 381 LINE",
"246 198 LINE",
"539 497 LINE",
"832 198 LINE",
"1025 381 LINE",
"725 686 LINE"
);
}
);
width = 1084;
}
);
note = multiply;
unicode = 00D7;
},
{
glyphname = Oslash;
lastChange = "2017-05-24 16:56:05 +0000";
layers = (
{
layerId = "D40DD59D-1539-4674-98F2-408D5EBDB9DF";
paths = (
{
closed = 1;
nodes = (
"1091 -20 OFFCURVE",
"1355 253 OFFCURVE",
"1355 698 CURVE SMOOTH",
"1355 747 LINE SMOOTH",
"1355 988 OFFCURVE",
"1287 1175 OFFCURVE",
"1152 1308 CURVE",
"1273 1518 LINE",
"1066 1518 LINE",
"1005 1412 LINE",
"918 1455 OFFCURVE",
"822 1476 OFFCURVE",
"717 1476 CURVE SMOOTH",
"342 1476 OFFCURVE",
"81 1202 OFFCURVE",
"81 757 CURVE SMOOTH",
"81 707 LINE SMOOTH",
"81 468 OFFCURVE",
"147 283 OFFCURVE",
"280 150 CURVE",
"139 -95 LINE",
"347 -95 LINE",
"427 45 LINE",
"514 2 OFFCURVE",
"612 -20 OFFCURVE",
"719 -20 CURVE SMOOTH"
);
},
{
closed = 1;
nodes = (
"450 1071 OFFCURVE",
"542 1201 OFFCURVE",
"717 1201 CURVE SMOOTH",
"772 1201 OFFCURVE",
"819 1187 OFFCURVE",
"859 1158 CURVE",
"465 472 LINE",
"447 535 OFFCURVE",
"438 610 OFFCURVE",
"438 698 CURVE SMOOTH",
"439 811 LINE SMOOTH"
);
},
{
closed = 1;
nodes = (
"997 411 OFFCURVE",
"896 254 OFFCURVE",
"719 254 CURVE SMOOTH",
"662 254 OFFCURVE",
"613 269 OFFCURVE",
"573 298 CURVE",
"969 989 LINE",
"988 925 OFFCURVE",
"998 848 OFFCURVE",
"998 759 CURVE SMOOTH",
"998 692 LINE SMOOTH"
);
}
);
width = 1410;
}
);
leftKerningGroup = C;
note = Oslash;
unicode = 00D8;
},
{
glyphname = Thorn;
lastChange = "2017-05-24 16:56:05 +0000";
layers = (
{
layerId = "D40DD59D-1539-4674-98F2-408D5EBDB9DF";
paths = (
{
closed = 1;
nodes = (
"1017 278 OFFCURVE",
"1214 470 OFFCURVE",
"1214 738 CURVE SMOOTH",
"1214 1005 OFFCURVE",
"1021 1194 OFFCURVE",
"666 1198 CURVE SMOOTH",
"455 1198 LINE",
"455 1456 LINE",
"117 1456 LINE",
"117 0 LINE",
"455 0 LINE",
"455 278 LINE",
"654 278 LINE SMOOTH"
);
},
{
closed = 1;
nodes = (
"813 938 OFFCURVE",
"876 843 OFFCURVE",
"876 736 CURVE SMOOTH",
"876 632 OFFCURVE",
"813 538 OFFCURVE",
"654 538 CURVE SMOOTH",
"455 538 LINE",
"455 938 LINE",
"654 938 LINE SMOOTH"
);
}
);
width = 1266;
}
);
note = Thorn;
unicode = 00DE;
},
{
glyphname = germandbls;
lastChange = "2017-05-24 16:56:05 +0000";
layers = (
{
layerId = "D40DD59D-1539-4674-98F2-408D5EBDB9DF";
paths = (
{
closed = 1;
nodes = (
"472 1254 OFFCURVE",
"528 1302 OFFCURVE",
"611 1302 CURVE SMOOTH",
"692 1302 OFFCURVE",
"752 1246 OFFCURVE",
"752 1167 CURVE SMOOTH",
"752 1115 OFFCURVE",
"744 1075 OFFCURVE",
"729 1047 CURVE SMOOTH",
"697 990 OFFCURVE",
"658 940 OFFCURVE",
"658 817 CURVE SMOOTH",
"658 693 OFFCURVE",
"718 619 OFFCURVE",
"798 554 CURVE SMOOTH",
"877 489 OFFCURVE",
"936 440 OFFCURVE",
"936 365 CURVE SMOOTH",
"936 285 OFFCURVE",
"876 240 OFFCURVE",
"796 240 CURVE SMOOTH",
"711 240 OFFCURVE",
"641 255 OFFCURVE",
"586 284 CURVE",
"526 31 LINE",
"582 -1 OFFCURVE",
"695 -20 OFFCURVE",
"795 -20 CURVE SMOOTH",
"1110 -20 OFFCURVE",
"1272 128 OFFCURVE",
"1272 368 CURVE SMOOTH",
"1272 491 OFFCURVE",
"1209 579 OFFCURVE",
"1134 651 CURVE SMOOTH",
"1058 723 OFFCURVE",
"996 778 OFFCURVE",
"996 835 CURVE SMOOTH",
"996 890 OFFCURVE",
"1004 930 OFFCURVE",
"1020 957 CURVE SMOOTH",
"1052 1010 OFFCURVE",
"1091 1056 OFFCURVE",
"1091 1181 CURVE SMOOTH",
"1091 1430 OFFCURVE",
"887 1561 OFFCURVE",
"648 1561 CURVE SMOOTH",
"328 1561 OFFCURVE",
"135 1404 OFFCURVE",
"135 1099 CURVE SMOOTH",
"135 0 LINE",
"472 0 LINE",
"472 1093 LINE SMOOTH"
);
}
);
width = 1330;
}
);
note = germandbls;
unicode = 00DF;
},
{
glyphname = ae;
lastChange = "2017-05-24 16:56:05 +0000";
layers = (
{
layerId = "D40DD59D-1539-4674-98F2-408D5EBDB9DF";
paths = (
{
closed = 1;
nodes = (
"1486 268 OFFCURVE",
"1414 240 OFFCURVE",
"1285 240 CURVE SMOOTH",
"1132 240 OFFCURVE",
"1062 320 OFFCURVE",
"1047 435 CURVE",
"1686 435 LINE",
"1686 612 LINE SMOOTH",
"1686 763 OFFCURVE",
"1645 882 OFFCURVE",
"1562 970 CURVE SMOOTH",
"1397 1146 OFFCURVE",
"1076 1134 OFFCURVE",
"908 1011 CURVE",
"829 1072 OFFCURVE",
"723 1102 OFFCURVE",
"589 1102 CURVE SMOOTH",
"290 1102 OFFCURVE",
"99 958 OFFCURVE",
"99 759 CURVE",
"437 740 LINE",
"437 797 OFFCURVE",
"488 842 OFFCURVE",
"584 842 CURVE SMOOTH",
"673 842 OFFCURVE",
"717 795 OFFCURVE",
"717 701 CURVE SMOOTH",
"717 655 LINE",
"575 655 LINE SMOOTH",
"238 654 OFFCURVE",
"61 533 OFFCURVE",
"61 324 CURVE SMOOTH",
"61 115 OFFCURVE",
"212 -20 OFFCURVE",
"485 -20 CURVE SMOOTH",
"662 -20 OFFCURVE",
"786 43 OFFCURVE",
"859 114 CURVE",
"952 25 OFFCURVE",
"1079 -20 OFFCURVE",
"1238 -20 CURVE SMOOTH",
"1409 -20 OFFCURVE",
"1568 38 OFFCURVE",
"1651 101 CURVE",
"1569 307 LINE"
);
},
{
closed = 1;
nodes = (
"1313 842 OFFCURVE",
"1356 785 OFFCURVE",
"1356 672 CURVE SMOOTH",
"1356 646 LINE",
"1048 646 LINE",
"1061 763 OFFCURVE",
"1108 842 OFFCURVE",
"1227 842 CURVE SMOOTH"
);
},
{
closed = 1;
nodes = (
"449 212 OFFCURVE",
"399 248 OFFCURVE",
"399 320 CURVE SMOOTH",
"399 388 OFFCURVE",
"462 451 OFFCURVE",
"583 451 CURVE SMOOTH",
"717 451 LINE",
"717 275 LINE",
"664 233 OFFCURVE",
"608 212 OFFCURVE",
"549 212 CURVE SMOOTH"
);
}
);
width = 1730;
}
);
note = ae;
unicode = 00E6;
},
{
glyphname = eth;
lastChange = "2017-05-24 16:56:05 +0000";
layers = (
{
layerId = "D40DD59D-1539-4674-98F2-408D5EBDB9DF";
paths = (
{
closed = 1;
nodes = (
"1124 924 OFFCURVE",
"1027 1147 OFFCURVE",
"863 1308 CURVE",
"989 1386 LINE",
"912 1504 LINE",
"750 1404 LINE",
"631 1489 OFFCURVE",
"492 1548 OFFCURVE",
"334 1579 CURVE",
"227 1335 LINE",
"318 1310 OFFCURVE",
"399 1276 OFFCURVE",
"471 1232 CURVE",
"335 1148 LINE",
"413 1030 LINE",
"591 1140 LINE",
"662 1072 OFFCURVE",
"714 992 OFFCURVE",
"747 899 CURVE",
"680 940 OFFCURVE",
"603 961 OFFCURVE",
"518 961 CURVE SMOOTH",
"219 961 OFFCURVE",
"65 764 OFFCURVE",
"65 468 CURVE SMOOTH",
"65 196 OFFCURVE",
"270 -20 OFFCURVE",
"581 -20 CURVE SMOOTH",
"893 -20 OFFCURVE",
"1124 229 OFFCURVE",
"1124 593 CURVE SMOOTH",
"1124 656 LINE SMOOTH"
);
},
{
closed = 1;
nodes = (
"402 624 OFFCURVE",
"461 720 OFFCURVE",
"592 720 CURVE SMOOTH",
"677 720 OFFCURVE",
"742 698 OFFCURVE",
"785 655 CURVE",
"785 553 LINE SMOOTH",
"785 374 OFFCURVE",
"722 240 OFFCURVE",
"585 240 CURVE SMOOTH",
"470 240 OFFCURVE",
"402 336 OFFCURVE",
"402 468 CURVE SMOOTH"
);
}
);
width = 1166;
}
);
note = eth;
unicode = 00F0;
},
{
glyphname = divide;
lastChange = "2017-05-24 16:56:05 +0000";
layers = (
{
layerId = "D40DD59D-1539-4674-98F2-408D5EBDB9DF";
paths = (
{
closed = 1;
nodes = (
"394 990 OFFCURVE",
"470 922 OFFCURVE",
"581 922 CURVE SMOOTH",
"692 922 OFFCURVE",
"767 990 OFFCURVE",
"767 1086 CURVE SMOOTH",
"767 1182 OFFCURVE",
"692 1250 OFFCURVE",
"581 1250 CURVE SMOOTH",
"470 1250 OFFCURVE",
"394 1182 OFFCURVE",
"394 1086 CURVE SMOOTH"
);
},
{
closed = 1;
nodes = (
"60 563 LINE",
"1104 563 LINE",
"1104 807 LINE",
"60 807 LINE"
);
},
{
closed = 1;
nodes = (
"394 181 OFFCURVE",
"470 113 OFFCURVE",
"581 113 CURVE SMOOTH",
"692 113 OFFCURVE",
"767 181 OFFCURVE",
"767 277 CURVE SMOOTH",
"767 373 OFFCURVE",
"692 441 OFFCURVE",
"581 441 CURVE SMOOTH",
"470 441 OFFCURVE",
"394 373 OFFCURVE",
"394 277 CURVE SMOOTH"
);
}
);
width = 1167;
}
);
note = divide;
unicode = 00F7;
},
{
glyphname = oslash;
lastChange = "2017-05-24 16:56:05 +0000";
layers = (
{
layerId = "D40DD59D-1539-4674-98F2-408D5EBDB9DF";
paths = (
{
closed = 1;
nodes = (
"915 -20 OFFCURVE",
"1097 214 OFFCURVE",
"1097 530 CURVE SMOOTH",
"1097 749 OFFCURVE",
"1029 908 OFFCURVE",
"894 1007 CURVE",
"997 1219 LINE",
"820 1219 LINE",
"751 1077 LINE",
"697 1094 OFFCURVE",
"638 1102 OFFCURVE",
"574 1102 CURVE SMOOTH",
"235 1102 OFFCURVE",
"53 867 OFFCURVE",
"53 551 CURVE SMOOTH",
"53 329 OFFCURVE",
"123 169 OFFCURVE",
"262 70 CURVE",
"157 -145 LINE",
"334 -145 LINE",
"406 2 LINE",
"458 -13 OFFCURVE",
"515 -20 OFFCURVE",
"576 -20 CURVE SMOOTH"
);
},
{
closed = 1;
nodes = (
"390 718 OFFCURVE",
"433 842 OFFCURVE",
"574 842 CURVE SMOOTH",
"595 842 OFFCURVE",
"615 839 OFFCURVE",
"633 833 CURVE",
"409 373 LINE",
"396 414 OFFCURVE",
"390 467 OFFCURVE",
"390 530 CURVE SMOOTH"
);
},
{
closed = 1;
nodes = (
"760 359 OFFCURVE",
"717 240 OFFCURVE",
"576 240 CURVE SMOOTH",
"557 240 OFFCURVE",
"540 242 OFFCURVE",
"524 246 CURVE",
"744 698 LINE",
"755 657 OFFCURVE",
"760 608 OFFCURVE",
"760 551 CURVE SMOOTH"
);
}
);
width = 1152;
}
);
note = oslash;
unicode = 00F8;
},
{
glyphname = thorn;
lastChange = "2017-05-24 16:56:05 +0000";
layers = (
{
layerId = "D40DD59D-1539-4674-98F2-408D5EBDB9DF";
paths = (
{
closed = 1;
nodes = (
"950 -20 OFFCURVE",
"1097 218 OFFCURVE",
"1097 533 CURVE SMOOTH",
"1097 554 LINE SMOOTH",
"1097 883 OFFCURVE",
"950 1102 OFFCURVE",
"675 1102 CURVE SMOOTH",
"577 1102 OFFCURVE",
"497 1067 OFFCURVE",
"434 998 CURVE",
"434 1536 LINE",
"95 1536 LINE",
"95 -416 LINE",
"434 -416 LINE",
"434 87 LINE",
"498 16 OFFCURVE",
"579 -20 OFFCURVE",
"677 -20 CURVE SMOOTH"
);
},
{
closed = 1;
nodes = (
"717 842 OFFCURVE",
"760 722 OFFCURVE",
"760 554 CURVE SMOOTH",
"760 363 OFFCURVE",
"721 240 OFFCURVE",
"594 240 CURVE SMOOTH",
"517 240 OFFCURVE",
"464 269 OFFCURVE",
"434 326 CURVE",
"434 759 LINE",
"462 814 OFFCURVE",
"515 842 OFFCURVE",
"592 842 CURVE SMOOTH"
);
}
);
width = 1149;
}
);
note = thorn;
rightKerningGroup = b;
unicode = 00FE;
},
{
glyphname = dcroat;
lastChange = "2017-05-24 16:56:05 +0000";
layers = (
{
layerId = "D40DD59D-1539-4674-98F2-408D5EBDB9DF";
paths = (
{
closed = 1;
nodes = (
"1056 1215 LINE",
"1196 1215 LINE",
"1196 1406 LINE",
"1056 1406 LINE",
"1056 1536 LINE",
"717 1536 LINE",
"717 1406 LINE",
"465 1406 LINE",
"465 1215 LINE",
"717 1215 LINE",
"717 989 LINE",
"652 1064 OFFCURVE",
"571 1102 OFFCURVE",
"474 1102 CURVE SMOOTH",
"198 1102 OFFCURVE",
"53 878 OFFCURVE",
"53 549 CURVE SMOOTH",
"53 524 LINE SMOOTH",
"54 211 OFFCURVE",
"199 -20 OFFCURVE",
"472 -20 CURVE SMOOTH",
"577 -20 OFFCURVE",
"665 25 OFFCURVE",
"736 116 CURVE",
"752 0 LINE",
"1056 0 LINE"
);
},
{
closed = 1;
nodes = (
"390 725 OFFCURVE",
"435 842 OFFCURVE",
"560 842 CURVE SMOOTH",
"635 842 OFFCURVE",
"687 811 OFFCURVE",
"717 748 CURVE",
"717 333 LINE",
"686 271 OFFCURVE",
"633 240 OFFCURVE",
"558 240 CURVE SMOOTH",
"429 240 OFFCURVE",
"390 365 OFFCURVE",
"390 528 CURVE SMOOTH"
);
}
);
width = 1322;
}
);
note = dcroat;
unicode = 0111;
},
{
glyphname = Hbar;
lastChange = "2017-05-24 16:56:05 +0000";
layers = (
{
layerId = "D40DD59D-1539-4674-98F2-408D5EBDB9DF";
paths = (
{
closed = 1;
nodes = (
"1353 1060 LINE",
"1469 1060 LINE",
"1469 1243 LINE",
"1353 1243 LINE",
"1353 1456 LINE",
"1003 1456 LINE",
"1003 1243 LINE",
"487 1243 LINE",
"487 1456 LINE",
"136 1456 LINE",
"136 1243 LINE",
"33 1243 LINE",
"33 1060 LINE",
"136 1060 LINE",
"136 0 LINE",
"487 0 LINE",
"487 608 LINE",
"1003 608 LINE",
"1003 0 LINE",
"1353 0 LINE"
);
},
{
closed = 1;
nodes = (
"1003 1060 LINE",
"1003 878 LINE",
"487 878 LINE",
"487 1060 LINE"
);
}
);
width = 1493;
}
);
note = Hbar;
unicode = 0126;
},
{
glyphname = dotlessi;
lastChange = "2017-05-24 16:56:05 +0000";
layers = (
{
layerId = "D40DD59D-1539-4674-98F2-408D5EBDB9DF";
paths = (
{
closed = 1;
nodes = (
"124 0 LINE",
"462 0 LINE",
"462 1082 LINE",
"124 1082 LINE"
);
}
);
width = 584;
}
);
note = dotlessi;
unicode = 0131;
},
{
glyphname = kgreenlandic;
lastChange = "2017-05-24 16:56:05 +0000";
layers = (
{
layerId = "D40DD59D-1539-4674-98F2-408D5EBDB9DF";
paths = (
{
closed = 1;
nodes = (
"860 576 LINE",
"1203 1082 LINE",
"770 1082 LINE",
"545 693 LINE",
"455 693 LINE",
"455 1082 LINE",
"118 1082 LINE",
"118 0 LINE",
"455 0 LINE",
"455 378 LINE",
"576 378 LINE",
"777 0 LINE",
"1211 0 LINE"
);
}
);
width = 1243;
}
);
note = kgreenlandic;
unicode = 0138;
},
{
glyphname = Lslash;
lastChange = "2017-05-24 16:56:05 +0000";
layers = (
{
layerId = "D40DD59D-1539-4674-98F2-408D5EBDB9DF";
paths = (
{
closed = 1;
nodes = (
"512 735 LINE",
"707 789 LINE",
"707 967 LINE",
"512 913 LINE",
"512 1456 LINE",
"162 1456 LINE",
"162 817 LINE",
"26 780 LINE",
"26 602 LINE",
"162 639 LINE",
"162 0 LINE",
"1123 0 LINE",
"1123 270 LINE",
"512 270 LINE"
);
}
);
width = 1161;
}
);
note = Lslash;
unicode = 0141;
},
{
glyphname = lslash;
lastChange = "2017-05-24 16:56:05 +0000";
layers = (
{
layerId = "D40DD59D-1539-4674-98F2-408D5EBDB9DF";
paths = (
{
closed = 1;
nodes = (
"495 925 LINE",
"495 1536 LINE",
"156 1536 LINE",
"156 820 LINE",
"27 780 LINE",
"27 600 LINE",
"156 640 LINE",
"156 0 LINE",
"495 0 LINE",
"495 745 LINE",
"629 787 LINE",
"629 967 LINE"
);
}
);
width = 663;
}
);
note = lslash;
unicode = 0142;
},
{
glyphname = Eng;
lastChange = "2017-05-24 16:56:05 +0000";
layers = (
{
layerId = "D40DD59D-1539-4674-98F2-408D5EBDB9DF";
paths = (
{
closed = 1;
nodes = (
"464 907 LINE",
"987 0 LINE",
"987 -111 OFFCURVE",
"948 -166 OFFCURVE",
"870 -166 CURVE SMOOTH",
"835 -166 OFFCURVE",
"802 -162 OFFCURVE",
"770 -155 CURVE",
"756 -420 LINE",
"807 -431 OFFCURVE",
"862 -437 OFFCURVE",
"920 -437 CURVE SMOOTH",
"1180 -437 OFFCURVE",
"1338 -286 OFFCURVE",
"1338 -7 CURVE SMOOTH",
"1338 1456 LINE",
"987 1456 LINE",
"987 552 LINE",
"464 1456 LINE",
"113 1456 LINE",
"113 0 LINE",
"464 0 LINE"
);
}
);
width = 1453;
}
);
note = Eng;
unicode = 014A;
},
{
glyphname = eng;
lastChange = "2017-05-24 16:56:05 +0000";
layers = (
{
layerId = "D40DD59D-1539-4674-98F2-408D5EBDB9DF";
paths = (
{
closed = 1;
nodes = (
"1065 980 OFFCURVE",
"926 1102 OFFCURVE",
"727 1102 CURVE SMOOTH",
"598 1102 OFFCURVE",
"496 1044 OFFCURVE",
"421 928 CURVE",
"408 1082 LINE",
"90 1082 LINE",
"90 0 LINE",
"427 0 LINE",
"427 768 LINE",
"468 817 OFFCURVE",
"525 842 OFFCURVE",
"597 842 CURVE SMOOTH",
"678 842 OFFCURVE",
"726 797 OFFCURVE",
"726 652 CURVE SMOOTH",
"726 -18 LINE SMOOTH",
"725 -124 OFFCURVE",
"686 -177 OFFCURVE",
"609 -177 CURVE SMOOTH",
"577 -177 OFFCURVE",
"544 -173 OFFCURVE",
"509 -165 CURVE",
"495 -420 LINE",
"545 -431 OFFCURVE",
"598 -437 OFFCURVE",
"655 -437 CURVE SMOOTH",
"910 -437 OFFCURVE",
"1065 -288 OFFCURVE",
"1065 -15 CURVE SMOOTH",
"1065 651 LINE SMOOTH"
);
}
);
width = 1152;
}
);
note = eng;
unicode = 014B;
},
{
glyphname = OE;
lastChange = "2017-05-24 16:56:05 +0000";
layers = (
{
layerId = "D40DD59D-1539-4674-98F2-408D5EBDB9DF";
paths = (
{
closed = 1;
nodes = (
"1267 617 LINE",
"1818 617 LINE",
"1818 878 LINE",
"1267 878 LINE",
"1267 1185 LINE",
"1921 1185 LINE",
"1921 1456 LINE",
"1010 1456 LINE",
"899 1469 OFFCURVE",
"802 1476 OFFCURVE",
"720 1476 CURVE SMOOTH",
"347 1476 OFFCURVE",
"93 1233 OFFCURVE",
"93 880 CURVE SMOOTH",
"93 576 LINE SMOOTH",
"93 223 OFFCURVE",
"349 -20 OFFCURVE",
"722 -20 CURVE SMOOTH",
"803 -20 OFFCURVE",
"899 -13 OFFCURVE",
"1010 0 CURVE",
"1918 0 LINE",
"1918 270 LINE",
"1267 270 LINE"
);
},
{
closed = 1;
nodes = (
"430 1106 OFFCURVE",
"541 1216 OFFCURVE",
"720 1216 CURVE SMOOTH",
"784 1216 OFFCURVE",
"849 1212 OFFCURVE",
"916 1203 CURVE",
"916 252 LINE",
"850 244 OFFCURVE",
"785 240 OFFCURVE",
"722 240 CURVE SMOOTH",
"543 240 OFFCURVE",
"430 352 OFFCURVE",
"430 576 CURVE SMOOTH",
"430 882 LINE SMOOTH"
);
}
);
width = 1995;
}
);
leftKerningGroup = C;
note = OE;
unicode = 0152;
},
{
glyphname = oe;
lastChange = "2017-05-24 16:56:05 +0000";
layers = (
{
layerId = "D40DD59D-1539-4674-98F2-408D5EBDB9DF";
paths = (
{
closed = 1;
nodes = (
"1573 268 OFFCURVE",
"1508 240 OFFCURVE",
"1365 240 CURVE SMOOTH",
"1233 240 OFFCURVE",
"1160 326 OFFCURVE",
"1139 435 CURVE",
"1765 435 LINE",
"1765 612 LINE SMOOTH",
"1765 913 OFFCURVE",
"1590 1102 OFFCURVE",
"1295 1102 CURVE SMOOTH",
"1155 1103 OFFCURVE",
"1042 1062 OFFCURVE",
"955 978 CURVE",
"863 1061 OFFCURVE",
"744 1102 OFFCURVE",
"598 1102 CURVE SMOOTH",
"259 1102 OFFCURVE",
"76 867 OFFCURVE",
"76 551 CURVE SMOOTH",
"76 530 LINE SMOOTH",
"76 214 OFFCURVE",
"260 -20 OFFCURVE",
"600 -20 CURVE SMOOTH",
"749 -20 OFFCURVE",
"869 23 OFFCURVE",
"960 108 CURVE",
"1055 23 OFFCURVE",
"1175 -20 OFFCURVE",
"1319 -20 CURVE SMOOTH",
"1503 -20 OFFCURVE",
"1659 38 OFFCURVE",
"1744 101 CURVE",
"1664 307 LINE"
);
},
{
closed = 1;
nodes = (
"1388 842 OFFCURVE",
"1435 785 OFFCURVE",
"1435 672 CURVE SMOOTH",
"1435 646 LINE",
"1137 646 LINE",
"1150 759 OFFCURVE",
"1192 842 OFFCURVE",
"1295 842 CURVE SMOOTH"
);
},
{
closed = 1;
nodes = (
"413 718 OFFCURVE",
"457 842 OFFCURVE",
"598 842 CURVE SMOOTH",
"743 842 OFFCURVE",
"785 710 OFFCURVE",
"785 551 CURVE SMOOTH",
"785 359 OFFCURVE",
"741 240 OFFCURVE",
"600 240 CURVE SMOOTH",
"455 240 OFFCURVE",
"413 367 OFFCURVE",
"413 530 CURVE SMOOTH"
);
}
);
width = 1845;
}
);
leftKerningGroup = c;
note = oe;
unicode = 0153;
},
{
glyphname = longs;
lastChange = "2017-05-24 16:56:05 +0000";
layers = (
{
layerId = "D40DD59D-1539-4674-98F2-408D5EBDB9DF";
paths = (
{
closed = 1;
nodes = (
"432 1255 OFFCURVE",
"476 1297 OFFCURVE",
"564 1297 CURVE SMOOTH",
"600 1297 OFFCURVE",
"634 1294 OFFCURVE",
"666 1287 CURVE",
"690 1536 LINE",
"623 1550 OFFCURVE",
"567 1557 OFFCURVE",
"522 1557 CURVE SMOOTH",
"253 1557 OFFCURVE",
"95 1421 OFFCURVE",
"95 1170 CURVE SMOOTH",
"95 0 LINE",
"432 0 LINE",
"432 1170 LINE SMOOTH"
);
}
);
width = 539;
}
);
note = longs;
unicode = 017F;
},
{
glyphname = uni0181;
lastChange = "2017-05-24 16:56:05 +0000";
layers = (
{
layerId = "D40DD59D-1539-4674-98F2-408D5EBDB9DF";
paths = (
{
closed = 1;
nodes = (
"41 1001 OFFCURVE",
"47 949 OFFCURVE",
"58 901 CURVE",
"341 901 LINE",
"335 938 OFFCURVE",
"332 970 OFFCURVE",
"332 995 CURVE SMOOTH",
"332 1083 OFFCURVE",
"355 1181 OFFCURVE",
"467 1185 CURVE",
"467 0 LINE",
"1058 0 LINE SMOOTH",
"1415 3 OFFCURVE",
"1595 146 OFFCURVE",
"1595 431 CURVE SMOOTH",
"1595 564 OFFCURVE",
"1532 699 OFFCURVE",
"1359 743 CURVE",
"1510 800 OFFCURVE",
"1564 922 OFFCURVE",
"1564 1054 CURVE SMOOTH",
"1564 1326 OFFCURVE",
"1349 1456 OFFCURVE",
"990 1456 CURVE SMOOTH",
"467 1456 LINE",
"467 1456 LINE SMOOTH",
"194 1456 OFFCURVE",
"41 1305 OFFCURVE",
"41 1056 CURVE SMOOTH"
);
},
{
closed = 1;
nodes = (
"1143 1182 OFFCURVE",
"1214 1125 OFFCURVE",
"1214 1012 CURVE SMOOTH",
"1214 904 OFFCURVE",
"1152 849 OFFCURVE",
"989 849 CURVE SMOOTH",
"818 849 LINE",
"818 1185 LINE",
"1000 1185 LINE SMOOTH"
);
},
{
closed = 1;
nodes = (
"1245 344 OFFCURVE",
"1189 270 OFFCURVE",
"1048 270 CURVE SMOOTH",
"818 270 LINE",
"818 619 LINE",
"1073 619 LINE SMOOTH",
"1188 616 OFFCURVE",
"1245 555 OFFCURVE",
"1245 436 CURVE SMOOTH"
);
}
);
width = 1675;
}
);
note = uni0181;
unicode = 0181;
},
{
glyphname = uni0183;
lastChange = "2017-05-24 16:56:05 +0000";
layers = (
{
layerId = "D40DD59D-1539-4674-98F2-408D5EBDB9DF";
paths = (
{
closed = 1;
nodes = (
"415 111 LINE",
"481 24 OFFCURVE",
"569 -20 OFFCURVE",
"679 -20 CURVE SMOOTH",
"967 -20 OFFCURVE",
"1099 205 OFFCURVE",
"1099 532 CURVE SMOOTH",
"1099 557 LINE",
"1098 873 OFFCURVE",
"965 1102 OFFCURVE",
"677 1102 CURVE SMOOTH",
"579 1102 OFFCURVE",
"498 1067 OFFCURVE",
"435 996 CURVE",
"435 1345 LINE",
"914 1345 LINE",
"914 1536 LINE",
"98 1536 LINE",
"98 0 LINE",
"400 0 LINE"
);
},
{
closed = 1;
nodes = (
"734 842 OFFCURVE",
"762 710 OFFCURVE",
"762 553 CURVE SMOOTH",
"762 340 OFFCURVE",
"736 239 OFFCURVE",
"595 239 CURVE SMOOTH",
"517 239 OFFCURVE",
"464 267 OFFCURVE",
"435 324 CURVE",
"435 756 LINE",
"464 813 OFFCURVE",
"516 842 OFFCURVE",
"593 842 CURVE SMOOTH"
);
}
);
width = 1153;
}
);
note = uni0183;
rightKerningGroup = b;
unicode = 0183;
},
{
glyphname = uni0184;
lastChange = "2017-05-24 16:56:05 +0000";
layers = (
{
layerId = "D40DD59D-1539-4674-98F2-408D5EBDB9DF";
paths = (
{
closed = 1;
nodes = (
"1363 764 OFFCURVE",
"1140 950 OFFCURVE",
"796 955 CURVE SMOOTH",
"601 955 LINE",
"601 1456 LINE",
"249 1456 LINE",
"53 1291 LINE",
"53 1131 LINE",
"249 967 LINE",
"249 0 LINE",
"781 0 LINE SMOOTH",
"1134 0 OFFCURVE",
"1363 196 OFFCURVE",
"1363 483 CURVE SMOOTH"
);
},
{
closed = 1;
nodes = (
"781 685 LINE SMOOTH",
"932 685 OFFCURVE",
"1012 600 OFFCURVE",
"1012 485 CURVE SMOOTH",
"1012 365 OFFCURVE",
"932 270 OFFCURVE",
"781 270 CURVE SMOOTH",
"601 270 LINE",
"601 685 LINE"
);
}
);
width = 1413;
}
);
note = uni0184;
unicode = 0184;
},
{
glyphname = uni0185;
lastChange = "2017-05-24 16:56:05 +0000";
layers = (
{
layerId = "D40DD59D-1539-4674-98F2-408D5EBDB9DF";
paths = (
{
closed = 1;
nodes = (
"1229 873 OFFCURVE",
"1097 1102 OFFCURVE",
"808 1102 CURVE SMOOTH",
"709 1102 OFFCURVE",
"628 1066 OFFCURVE",
"565 995 CURVE",
"565 1536 LINE",
"228 1536 LINE",
"33 1371 LINE",
"33 1211 LINE",
"228 1047 LINE",
"228 0 LINE",
"530 0 LINE",
"545 112 LINE",
"612 24 OFFCURVE",
"700 -20 OFFCURVE",
"810 -20 CURVE SMOOTH",
"1098 -20 OFFCURVE",
"1230 205 OFFCURVE",
"1230 532 CURVE SMOOTH",
"1230 557 LINE"
);
},
{
closed = 1;
nodes = (
"866 842 OFFCURVE",
"892 710 OFFCURVE",
"892 553 CURVE SMOOTH",
"892 340 OFFCURVE",
"866 239 OFFCURVE",
"725 239 CURVE SMOOTH",
"647 239 OFFCURVE",
"594 268 OFFCURVE",
"565 326 CURVE",
"565 755 LINE",
"594 813 OFFCURVE",
"646 842 OFFCURVE",
"723 842 CURVE SMOOTH"
);
}
);
width = 1284;
}
);
note = uni0185;
rightKerningGroup = b;
unicode = 0185;
},
{
glyphname = uni0186;
lastChange = "2017-05-24 16:56:05 +0000";
layers = (
{
layerId = "D40DD59D-1539-4674-98F2-408D5EBDB9DF";
paths = (
{
closed = 1;
nodes = (
"80 200 OFFCURVE",
"282 -21 OFFCURVE",
"662 -21 CURVE SMOOTH",
"1033 -21 OFFCURVE",
"1274 250 OFFCURVE",
"1274 689 CURVE SMOOTH",
"1274 784 LINE",
"1269 1211 OFFCURVE",
"1042 1476 OFFCURVE",
"658 1476 CURVE SMOOTH",
"298 1476 OFFCURVE",
"70 1268 OFFCURVE",
"55 963 CURVE",
"405 963 LINE",
"410 1122 OFFCURVE",
"494 1201 OFFCURVE",
"658 1201 CURVE SMOOTH",
"847 1201 OFFCURVE",
"918 1077 OFFCURVE",
"918 768 CURVE SMOOTH",
"918 679 LINE SMOOTH",
"917 375 OFFCURVE",
"834 254 OFFCURVE",
"662 254 CURVE SMOOTH",
"475 254 OFFCURVE",
"408 339 OFFCURVE",
"403 503 CURVE",
"53 503 LINE"
);
}
);
width = 1344;
}
);
note = uni0186;
rightKerningGroup = D;
unicode = 0186;
},
{
glyphname = uni0187;
lastChange = "2017-05-24 16:56:05 +0000";
layers = (
{
layerId = "D40DD59D-1539-4674-98F2-408D5EBDB9DF";
paths = (
{
closed = 1;
nodes = (
"1522 1325 OFFCURVE",
"1554 1322 OFFCURVE",
"1593 1316 CURVE",
"1593 1585 LINE",
"1542 1596 OFFCURVE",
"1489 1602 OFFCURVE",
"1433 1602 CURVE SMOOTH",
"1242 1602 OFFCURVE",
"1113 1529 OFFCURVE",
"1047 1383 CURVE",
"948 1446 OFFCURVE",
"826 1477 OFFCURVE",
"682 1477 CURVE SMOOTH",
"313 1477 OFFCURVE",
"70 1206 OFFCURVE",
"70 767 CURVE SMOOTH",
"70 672 LINE SMOOTH",
"75 245 OFFCURVE",
"302 -20 OFFCURVE",
"687 -20 CURVE SMOOTH",
"1046 -20 OFFCURVE",
"1274 188 OFFCURVE",
"1289 493 CURVE",
"939 493 LINE",
"934 334 OFFCURVE",
"850 255 OFFCURVE",
"687 255 CURVE SMOOTH",
"496 255 OFFCURVE",
"426 379 OFFCURVE",
"426 688 CURVE SMOOTH",
"426 777 LINE SMOOTH",
"427 1081 OFFCURVE",
"510 1202 OFFCURVE",
"682 1202 CURVE SMOOTH",
"869 1202 OFFCURVE",
"936 1117 OFFCURVE",
"941 953 CURVE",
"1291 953 LINE",
"1291 1180 LINE SMOOTH",
"1291 1309 OFFCURVE",
"1408 1325 OFFCURVE",
"1495 1325 CURVE SMOOTH"
);
}
);
width = 1492;
}
);
leftKerningGroup = C;
note = uni0187;
unicode = 0187;
},
{
glyphname = uni0188;
lastChange = "2017-05-24 16:56:05 +0000";
layers = (
{
layerId = "D40DD59D-1539-4674-98F2-408D5EBDB9DF";
paths = (
{
closed = 1;
nodes = (
"1211 996 OFFCURVE",
"1239 994 OFFCURVE",
"1273 989 CURVE",
"1273 1205 LINE",
"1232 1215 OFFCURVE",
"1187 1220 OFFCURVE",
"1137 1220 CURVE SMOOTH",
"979 1220 OFFCURVE",
"873 1160 OFFCURVE",
"819 1039 CURVE",
"746 1081 OFFCURVE",
"659 1102 OFFCURVE",
"558 1102 CURVE SMOOTH",
"222 1102 OFFCURVE",
"53 865 OFFCURVE",
"53 552 CURVE SMOOTH",
"53 529 LINE SMOOTH",
"53 216 OFFCURVE",
"221 -20 OFFCURVE",
"560 -20 CURVE SMOOTH",
"820 -20 OFFCURVE",
"1018 142 OFFCURVE",
"1017 386 CURVE",
"700 386 LINE",
"702 289 OFFCURVE",
"653 240 OFFCURVE",
"552 240 CURVE SMOOTH",
"411 240 OFFCURVE",
"390 369 OFFCURVE",
"390 529 CURVE SMOOTH",
"390 725 OFFCURVE",
"414 842 OFFCURVE",
"550 842 CURVE SMOOTH",
"653 842 OFFCURVE",
"703 765 OFFCURVE",
"700 668 CURVE",
"1017 668 LINE",
"1017 861 LINE SMOOTH",
"1017 972 OFFCURVE",
"1115 996 OFFCURVE",
"1190 996 CURVE SMOOTH"
);
}
);
width = 1192;
}
);
leftKerningGroup = c;
note = uni0188;
unicode = 0188;
},
{
glyphname = uni018A;
lastChange = "2017-05-24 16:56:05 +0000";
layers = (
{
layerId = "D40DD59D-1539-4674-98F2-408D5EBDB9DF";
paths = (
{
closed = 1;
nodes = (
"41 1001 OFFCURVE",
"47 949 OFFCURVE",
"58 901 CURVE",
"341 901 LINE",
"335 938 OFFCURVE",
"332 970 OFFCURVE",
"332 995 CURVE SMOOTH",
"332 1083 OFFCURVE",
"355 1184 OFFCURVE",
"470 1185 CURVE",
"470 0 LINE",
"937 0 LINE SMOOTH",
"1337 0 OFFCURVE",
"1613 289 OFFCURVE",
"1613 697 CURVE SMOOTH",
"1613 753 LINE SMOOTH",
"1613 1170 OFFCURVE",
"1334 1456 OFFCURVE",
"938 1456 CURVE SMOOTH",
"470 1456 LINE",
"470 1456 LINE SMOOTH",
"194 1456 OFFCURVE",
"41 1305 OFFCURVE",
"41 1056 CURVE SMOOTH"
);
},
{
closed = 1;
nodes = (
"1154 1179 OFFCURVE",
"1255 1037 OFFCURVE",
"1255 760 CURVE SMOOTH",
"1254 649 LINE SMOOTH",
"1243 396 OFFCURVE",
"1139 270 OFFCURVE",
"943 270 CURVE SMOOTH",
"821 270 LINE",
"821 1185 LINE",
"951 1185 LINE SMOOTH"
);
}
);
width = 1684;
}
);
note = uni018A;
rightKerningGroup = D;
unicode = 018A;
},
{
glyphname = uni018B;
lastChange = "2017-05-24 16:56:05 +0000";
layers = (
{
layerId = "D40DD59D-1539-4674-98F2-408D5EBDB9DF";
paths = (
{
closed = 1;
nodes = (
"208 1456 LINE",
"208 1185 LINE",
"841 1185 LINE",
"841 955 LINE",
"647 955 LINE SMOOTH",
"302 951 OFFCURVE",
"77 764 OFFCURVE",
"77 483 CURVE SMOOTH",
"77 199 OFFCURVE",
"301 4 OFFCURVE",
"648 0 CURVE SMOOTH",
"1192 0 LINE",
"1192 1456 LINE"
);
},
{
closed = 1;
nodes = (
"508 270 OFFCURVE",
"428 365 OFFCURVE",
"428 485 CURVE SMOOTH",
"428 600 OFFCURVE",
"508 685 OFFCURVE",
"659 685 CURVE SMOOTH",
"841 685 LINE",
"841 270 LINE",
"659 270 LINE SMOOTH"
);
}
);
width = 1279;
}
);
note = uni018B;
rightKerningGroup = H;
unicode = 018B;
},
{
glyphname = uni018C;
lastChange = "2017-05-24 16:56:05 +0000";
layers = (
{
layerId = "D40DD59D-1539-4674-98F2-408D5EBDB9DF";
paths = (
{
closed = 1;
nodes = (
"717 989 LINE",
"652 1064 OFFCURVE",
"571 1102 OFFCURVE",
"474 1102 CURVE SMOOTH",
"198 1102 OFFCURVE",
"53 878 OFFCURVE",
"53 549 CURVE SMOOTH",
"53 524 LINE SMOOTH",
"54 211 OFFCURVE",
"199 -20 OFFCURVE",
"472 -20 CURVE SMOOTH",
"577 -20 OFFCURVE",
"665 25 OFFCURVE",
"736 116 CURVE",
"752 0 LINE",
"1056 0 LINE",
"1056 1536 LINE",
"238 1536 LINE",
"238 1345 LINE",
"717 1345 LINE"
);
},
{
closed = 1;
nodes = (
"390 725 OFFCURVE",
"435 842 OFFCURVE",
"560 842 CURVE SMOOTH",
"635 842 OFFCURVE",
"687 811 OFFCURVE",
"717 748 CURVE",
"717 333 LINE",
"686 271 OFFCURVE",
"633 240 OFFCURVE",
"558 240 CURVE SMOOTH",
"429 240 OFFCURVE",
"390 365 OFFCURVE",
"390 528 CURVE SMOOTH"
);
}
);
width = 1152;
}
);
note = uni018C;
unicode = 018C;
},
{
glyphname = uni018D;
lastChange = "2017-05-24 16:56:05 +0000";
layers = (
{
layerId = "D40DD59D-1539-4674-98F2-408D5EBDB9DF";
paths = (
{
closed = 1;
nodes = (
"945 -167 OFFCURVE",
"883 -103 OFFCURVE",
"792 -16 CURVE SMOOTH",
"690 80 LINE",
"726 82 LINE",
"927 121 OFFCURVE",
"1099 311 OFFCURVE",
"1099 590 CURVE SMOOTH",
"1099 614 LINE",
"1098 894 OFFCURVE",
"913 1102 OFFCURVE",
"574 1102 CURVE SMOOTH",
"235 1102 OFFCURVE",
"52 876 OFFCURVE",
"52 571 CURVE SMOOTH",
"52 550 LINE SMOOTH",
"52 329 OFFCURVE",
"194 156 OFFCURVE",
"377 5 CURVE SMOOTH",
"432 -38 OFFCURVE",
"487 -78 OFFCURVE",
"544 -115 CURVE",
"152 -115 LINE",
"152 -375 LINE",
"980 -375 LINE",
"980 -208 LINE"
);
},
{
closed = 1;
nodes = (
"761 372 OFFCURVE",
"719 243 OFFCURVE",
"579 243 CURVE SMOOTH",
"562 243 OFFCURVE",
"548 245 OFFCURVE",
"535 249 CURVE",
"456 296 OFFCURVE",
"389 401 OFFCURVE",
"389 550 CURVE SMOOTH",
"389 731 OFFCURVE",
"433 842 OFFCURVE",
"574 842 CURVE SMOOTH",
"719 842 OFFCURVE",
"761 723 OFFCURVE",
"761 571 CURVE SMOOTH"
);
}
);
width = 1152;
}
);
note = uni018D;
unicode = 018D;
},
{
glyphname = uni018E;
lastChange = "2017-05-24 16:56:05 +0000";
layers = (
{
layerId = "D40DD59D-1539-4674-98F2-408D5EBDB9DF";
paths = (
{
closed = 1;
nodes = (
"684 839 LINE",
"133 839 LINE",
"133 578 LINE",
"684 578 LINE",
"684 271 LINE",
"31 271 LINE",
"31 0 LINE",
"1035 0 LINE",
"1035 1456 LINE",
"33 1456 LINE",
"33 1186 LINE",
"684 1186 LINE"
);
}
);
width = 1146;
}
);
note = uni018E;
rightKerningGroup = H;
unicode = 018E;
},
{
glyphname = uni018F;
lastChange = "2017-05-24 16:56:05 +0000";
layers = (
{
layerId = "D40DD59D-1539-4674-98F2-408D5EBDB9DF";
paths = (
{
closed = 1;
nodes = (
"1340 1204 OFFCURVE",
"1099 1477 OFFCURVE",
"638 1477 CURVE SMOOTH",
"430 1477 OFFCURVE",
"207 1424 OFFCURVE",
"162 1404 CURVE",
"211 1122 LINE",
"336 1160 OFFCURVE",
"470 1179 OFFCURVE",
"614 1179 CURVE SMOOTH",
"886 1179 OFFCURVE",
"982 1032 OFFCURVE",
"993 847 CURVE",
"69 847 LINE",
"69 670 LINE SMOOTH",
"69 249 OFFCURVE",
"292 -21 OFFCURVE",
"708 -21 CURVE SMOOTH",
"828 -21 OFFCURVE",
"936 7 OFFCURVE",
"1032 63 CURVE SMOOTH",
"1224 175 OFFCURVE",
"1343 381 OFFCURVE",
"1343 640 CURVE SMOOTH",
"1343 817 LINE"
);
},
{
closed = 1;
nodes = (
"499 276 OFFCURVE",
"419 393 OFFCURVE",
"419 540 CURVE SMOOTH",
"419 571 LINE",
"990 571 LINE",
"971 403 OFFCURVE",
"879 276 OFFCURVE",
"708 276 CURVE SMOOTH"
);
}
);
width = 1430;
}
);
note = uni018F;
rightKerningGroup = D;
unicode = 018F;
},
{
glyphname = uni0190;
lastChange = "2017-05-24 16:56:05 +0000";
layers = (
{
layerId = "D40DD59D-1539-4674-98F2-408D5EBDB9DF";
paths = (
{
closed = 1;
nodes = (
"526 876 OFFCURVE",
"468 937 OFFCURVE",
"468 1054 CURVE SMOOTH",
"468 1141 OFFCURVE",
"530 1205 OFFCURVE",
"671 1205 CURVE SMOOTH",
"780 1205 OFFCURVE",
"855 1159 OFFCURVE",
"855 1060 CURVE",
"1205 1060 LINE",
"1205 1320 OFFCURVE",
"959 1476 OFFCURVE",
"671 1476 CURVE SMOOTH",
"340 1476 OFFCURVE",
"118 1333 OFFCURVE",
"118 1061 CURVE SMOOTH",
"118 917 OFFCURVE",
"206 807 OFFCURVE",
"341 747 CURVE",
"176 688 OFFCURVE",
"94 575 OFFCURVE",
"94 408 CURVE SMOOTH",
"94 113 OFFCURVE",
"330 -20 OFFCURVE",
"671 -20 CURVE SMOOTH",
"760 -20 OFFCURVE",
"848 -5 OFFCURVE",
"933 24 CURVE SMOOTH",
"1103 83 OFFCURVE",
"1226 205 OFFCURVE",
"1226 404 CURVE",
"875 404 LINE",
"875 311 OFFCURVE",
"798 250 OFFCURVE",
"671 250 CURVE SMOOTH",
"538 250 OFFCURVE",
"446 296 OFFCURVE",
"446 415 CURVE SMOOTH",
"446 562 OFFCURVE",
"515 613 OFFCURVE",
"655 613 CURVE SMOOTH",
"840 613 LINE",
"840 873 LINE",
"642 873 LINE SMOOTH"
);
}
);
width = 1289;
}
);
note = uni0190;
unicode = 0190;
},
{
glyphname = uni0191;
lastChange = "2017-05-24 16:56:05 +0000";
layers = (
{
layerId = "D40DD59D-1539-4674-98F2-408D5EBDB9DF";
paths = (
{
closed = 1;
nodes = (
"227 -122 OFFCURVE",
"190 -160 OFFCURVE",
"103 -160 CURVE SMOOTH",
"77 -160 OFFCURVE",
"48 -156 OFFCURVE",
"15 -148 CURVE",
"0 -420 LINE",
"50 -431 OFFCURVE",
"103 -437 OFFCURVE",
"160 -437 CURVE SMOOTH",
"415 -437 OFFCURVE",
"578 -288 OFFCURVE",
"578 -15 CURVE SMOOTH",
"578 580 LINE",
"1144 580 LINE",
"1144 850 LINE",
"578 850 LINE",
"578 1185 LINE",
"1201 1185 LINE",
"1201 1456 LINE",
"227 1456 LINE",
"227 -15 LINE SMOOTH"
);
}
);
width = 1237;
}
);
note = uni0191;
unicode = 0191;
},
{
glyphname = florin;
lastChange = "2017-05-24 16:56:05 +0000";
layers = (
{
layerId = "D40DD59D-1539-4674-98F2-408D5EBDB9DF";
paths = (
{
closed = 1;
nodes = (
"506 1172 LINE SMOOTH",
"507 1255 OFFCURVE",
"551 1297 OFFCURVE",
"638 1297 CURVE SMOOTH",
"675 1297 OFFCURVE",
"709 1294 OFFCURVE",
"738 1287 CURVE",
"764 1536 LINE",
"697 1550 OFFCURVE",
"641 1557 OFFCURVE",
"596 1557 CURVE SMOOTH",
"329 1557 OFFCURVE",
"171 1422 OFFCURVE",
"168 1177 CURVE SMOOTH",
"168 1082 LINE",
"11 1082 LINE",
"11 848 LINE",
"168 848 LINE",
"168 -35 LINE SMOOTH",
"168 -130 OFFCURVE",
"149 -177 OFFCURVE",
"61 -177 CURVE SMOOTH",
"29 -177 OFFCURVE",
"0 -173 OFFCURVE",
"-27 -165 CURVE",
"-42 -420 LINE",
"8 -431 OFFCURVE",
"61 -437 OFFCURVE",
"118 -437 CURVE SMOOTH",
"359 -437 OFFCURVE",
"505 -295 OFFCURVE",
"505 -35 CURVE SMOOTH",
"506 848 LINE",
"720 848 LINE",
"720 1082 LINE",
"506 1082 LINE"
);
}
);
width = 758;
}
);
note = florin;
unicode = 0192;
},
{
glyphname = uni0193;
lastChange = "2017-05-24 16:56:05 +0000";
layers = (
{
layerId = "D40DD59D-1539-4674-98F2-408D5EBDB9DF";
paths = (
{
closed = 1;
nodes = (
"1303 1309 OFFCURVE",
"1421 1325 OFFCURVE",
"1508 1325 CURVE SMOOTH",
"1535 1325 OFFCURVE",
"1568 1322 OFFCURVE",
"1605 1316 CURVE",
"1605 1585 LINE",
"1554 1596 OFFCURVE",
"1501 1602 OFFCURVE",
"1445 1602 CURVE SMOOTH",
"1260 1602 OFFCURVE",
"1133 1533 OFFCURVE",
"1064 1395 CURVE",
"970 1450 OFFCURVE",
"850 1477 OFFCURVE",
"704 1477 CURVE SMOOTH",
"341 1477 OFFCURVE",
"82 1221 OFFCURVE",
"82 768 CURVE SMOOTH",
"82 687 LINE SMOOTH",
"82 234 OFFCURVE",
"336 -20 OFFCURVE",
"723 -20 CURVE SMOOTH",
"1036 -20 OFFCURVE",
"1227 97 OFFCURVE",
"1302 180 CURVE",
"1302 778 LINE",
"707 778 LINE",
"707 537 LINE",
"951 537 LINE",
"951 311 LINE",
"906 270 OFFCURVE",
"839 250 OFFCURVE",
"748 250 CURVE SMOOTH",
"543 250 OFFCURVE",
"439 395 OFFCURVE",
"439 687 CURVE SMOOTH",
"439 776 LINE SMOOTH",
"440 1065 OFFCURVE",
"548 1207 OFFCURVE",
"716 1207 CURVE SMOOTH",
"879 1207 OFFCURVE",
"943 1125 OFFCURVE",
"964 981 CURVE",
"1303 981 LINE",
"1303 1180 LINE SMOOTH"
);
}
);
width = 1501;
}
);
leftKerningGroup = C;
note = uni0193;
unicode = 0193;
},
{
glyphname = uni0194;
lastChange = "2017-05-24 16:56:05 +0000";
layers = (
{
layerId = "D40DD59D-1539-4674-98F2-408D5EBDB9DF";
paths = (
{
closed = 1;
nodes = (
"1089 -114 OFFCURVE",
"1074 -63 OFFCURVE",
"1044 7 CURVE SMOOTH",
"868 392 LINE",
"1374 1456 LINE",
"965 1456 LINE",
"703 790 LINE",
"438 1456 LINE",
"31 1456 LINE",
"539 389 LINE",
"482 266 OFFCURVE",
"428 157 OFFCURVE",
"379 60 CURVE SMOOTH",
"329 -37 OFFCURVE",
"304 -106 OFFCURVE",
"304 -146 CURVE SMOOTH",
"304 -355 OFFCURVE",
"499 -437 OFFCURVE",
"702 -437 CURVE SMOOTH",
"906 -437 OFFCURVE",
"1089 -355 OFFCURVE",
"1089 -146 CURVE SMOOTH"
);
},
{
closed = 1;
nodes = (
"655 -93 OFFCURVE",
"671 -36 OFFCURVE",
"703 40 CURVE",
"734 -34 OFFCURVE",
"750 -91 OFFCURVE",
"750 -132 CURVE SMOOTH",
"750 -172 OFFCURVE",
"745 -207 OFFCURVE",
"702 -207 CURVE SMOOTH",
"671 -207 OFFCURVE",
"655 -182 OFFCURVE",
"655 -132 CURVE SMOOTH"
);
}
);
width = 1406;
}
);
note = uni0194;
unicode = 0194;
},
{
glyphname = uni0195;
lastChange = "2017-05-24 16:56:05 +0000";
layers = (
{
layerId = "D40DD59D-1539-4674-98F2-408D5EBDB9DF";
paths = (
{
closed = 1;
nodes = (
"590 1102 OFFCURVE",
"498 1057 OFFCURVE",
"425 967 CURVE",
"425 1536 LINE",
"88 1536 LINE",
"88 0 LINE",
"425 0 LINE",
"425 777 LINE",
"454 820 OFFCURVE",
"503 842 OFFCURVE",
"571 842 CURVE SMOOTH",
"708 842 OFFCURVE",
"725 768 OFFCURVE",
"725 659 CURVE SMOOTH",
"725 406 LINE SMOOTH",
"730 102 OFFCURVE",
"879 -20 OFFCURVE",
"1199 -20 CURVE SMOOTH",
"1523 -20 OFFCURVE",
"1670 106 OFFCURVE",
"1671 418 CURVE SMOOTH",
"1671 1082 LINE",
"1334 1082 LINE",
"1334 415 LINE SMOOTH",
"1333 298 OFFCURVE",
"1288 240 OFFCURVE",
"1199 240 CURVE SMOOTH",
"1110 240 OFFCURVE",
"1065 298 OFFCURVE",
"1064 415 CURVE",
"1064 660 LINE SMOOTH",
"1064 736 OFFCURVE",
"1055 808 OFFCURVE",
"1036 875 CURVE SMOOTH",
"998 1010 OFFCURVE",
"900 1102 OFFCURVE",
"701 1102 CURVE SMOOTH"
);
}
);
width = 1763;
}
);
note = uni0195;
unicode = 0195;
},
{
glyphname = uni0198;
lastChange = "2017-05-24 16:56:05 +0000";
layers = (
{
layerId = "D40DD59D-1539-4674-98F2-408D5EBDB9DF";
paths = (
{
closed = 1;
nodes = (
"833 824 LINE",
"977 1057 LINE SMOOTH",
"1034 1144 OFFCURVE",
"1072 1195 OFFCURVE",
"1131 1195 CURVE SMOOTH",
"1144 1195 OFFCURVE",
"1155 1193 OFFCURVE",
"1163 1190 CURVE",
"1201 1173 LINE",
"1328 1420 LINE",
"1252 1452 OFFCURVE",
"1185 1477 OFFCURVE",
"1076 1477 CURVE SMOOTH",
"880 1477 OFFCURVE",
"804 1359 OFFCURVE",
"689 1187 CURVE",
"584 999 LINE",
"462 802 LINE",
"462 1456 LINE",
"111 1456 LINE",
"111 0 LINE",
"462 0 LINE",
"462 384 LINE",
"606 541 LINE",
"916 0 LINE",
"1331 0 LINE"
);
}
);
width = 1310;
}
);
note = uni0198;
rightKerningGroup = K;
unicode = 0198;
},
{
glyphname = uni0199;
lastChange = "2017-05-24 16:56:05 +0000";
layers = (
{
layerId = "D40DD59D-1539-4674-98F2-408D5EBDB9DF";
paths = (
{
closed = 1;
nodes = (
"630 1333 OFFCURVE",
"658 1331 OFFCURVE",
"692 1326 CURVE",
"692 1542 LINE",
"650 1552 OFFCURVE",
"591 1557 OFFCURVE",
"514 1557 CURVE SMOOTH",
"219 1557 OFFCURVE",
"98 1439 OFFCURVE",
"98 1198 CURVE SMOOTH",
"98 0 LINE",
"435 0 LINE",
"435 309 LINE",
"529 403 LINE",
"766 0 LINE",
"1152 0 LINE",
"747 637 LINE",
"1127 1082 LINE",
"723 1082 LINE",
"435 722 LINE",
"435 1198 LINE SMOOTH",
"435 1307 OFFCURVE",
"533 1333 OFFCURVE",
"608 1333 CURVE SMOOTH"
);
}
);
width = 1120;
}
);
note = uni0199;
unicode = 0199;
},
{
glyphname = uni019B;
lastChange = "2017-05-24 16:56:05 +0000";
layers = (
{
layerId = "D40DD59D-1539-4674-98F2-408D5EBDB9DF";
paths = (
{
closed = 1;
nodes = (
"1101 240 LINE SMOOTH",
"1042 240 OFFCURVE",
"1011 305 OFFCURVE",
"990 358 CURVE SMOOTH",
"682 1128 LINE",
"790 1162 LINE",
"790 1365 LINE",
"609 1309 LINE",
"582 1377 LINE SMOOTH",
"534 1497 OFFCURVE",
"440 1557 OFFCURVE",
"299 1557 CURVE SMOOTH",
"224 1557 OFFCURVE",
"159 1549 OFFCURVE",
"104 1532 CURVE",
"113 1292 LINE",
"178 1295 LINE",
"241 1295 OFFCURVE",
"286 1269 OFFCURVE",
"311 1216 CURVE",
"188 1178 LINE",
"188 975 LINE",
"356 1027 LINE",
"-7 0 LINE",
"354 0 LINE",
"543 616 LINE",
"684 207 LINE SMOOTH",
"728 79 OFFCURVE",
"821 -19 OFFCURVE",
"1008 -19 CURVE SMOOTH",
"1069 -19 OFFCURVE",
"1110 -17 OFFCURVE",
"1133 -14 CURVE",
"1133 240 LINE"
);
}
);
width = 1117;
}
);
note = uni019B;
unicode = 019B;
},
{
glyphname = uni019C;
lastChange = "2017-05-24 16:56:05 +0000";
layers = (
{
layerId = "D40DD59D-1539-4674-98F2-408D5EBDB9DF";
paths = (
{
closed = 1;
nodes = (
"1729 1456 LINE",
"1391 1456 LINE",
"1391 319 LINE",
"1356 266 OFFCURVE",
"1301 240 OFFCURVE",
"1226 240 CURVE SMOOTH",
"1136 240 OFFCURVE",
"1091 300 OFFCURVE",
"1091 420 CURVE SMOOTH",
"1091 1456 LINE",
"754 1456 LINE",
"754 400 LINE",
"759 327 LINE",
"724 269 OFFCURVE",
"667 240 OFFCURVE",
"588 240 CURVE SMOOTH",
"498 240 OFFCURVE",
"453 300 OFFCURVE",
"453 420 CURVE SMOOTH",
"453 1456 LINE",
"116 1456 LINE",
"116 416 LINE SMOOTH",
"117 75 OFFCURVE",
"259 -20 OFFCURVE",
"478 -20 CURVE SMOOTH",
"622 -20 OFFCURVE",
"731 36 OFFCURVE",
"806 149 CURVE",
"862 36 OFFCURVE",
"965 -20 OFFCURVE",
"1115 -20 CURVE SMOOTH",
"1239 -20 OFFCURVE",
"1338 25 OFFCURVE",
"1412 116 CURVE",
"1429 0 LINE",
"1729 0 LINE"
);
}
);
width = 1845;
}
);
note = uni019C;
rightKerningGroup = H;
unicode = 019C;
},
{
glyphname = uni019D;
lastChange = "2017-05-24 16:56:05 +0000";
layers = (
{
layerId = "D40DD59D-1539-4674-98F2-408D5EBDB9DF";
paths = (
{
closed = 1;
nodes = (
"1443 1456 LINE",
"1093 1456 LINE",
"1093 550 LINE",
"578 1456 LINE",
"227 1456 LINE",
"227 -15 LINE SMOOTH",
"227 -122 OFFCURVE",
"190 -160 OFFCURVE",
"103 -160 CURVE SMOOTH",
"77 -160 OFFCURVE",
"48 -156 OFFCURVE",
"15 -148 CURVE",
"0 -420 LINE",
"50 -431 OFFCURVE",
"103 -437 OFFCURVE",
"160 -437 CURVE SMOOTH",
"415 -437 OFFCURVE",
"578 -288 OFFCURVE",
"578 -15 CURVE SMOOTH",
"578 906 LINE",
"1094 0 LINE",
"1443 0 LINE"
);
}
);
width = 1557;
}
);
note = uni019D;
rightKerningGroup = H;
unicode = 019D;
},
{
glyphname = Ohorn;
lastChange = "2017-05-24 16:56:05 +0000";
layers = (
{
layerId = "D40DD59D-1539-4674-98F2-408D5EBDB9DF";
paths = (
{
closed = 1;
nodes = (
"1346 896 OFFCURVE",
"1321 1019 OFFCURVE",
"1271 1126 CURVE",
"1414 1180 OFFCURVE",
"1485 1323 OFFCURVE",
"1485 1556 CURVE",
"1281 1556 LINE",
"1281 1404 OFFCURVE",
"1260 1302 OFFCURVE",
"1175 1274 CURVE",
"1058 1409 OFFCURVE",
"902 1476 OFFCURVE",
"709 1476 CURVE SMOOTH",
"334 1476 OFFCURVE",
"73 1202 OFFCURVE",
"73 757 CURVE SMOOTH",
"73 698 LINE SMOOTH",
"73 253 OFFCURVE",
"336 -20 OFFCURVE",
"711 -20 CURVE SMOOTH",
"1082 -20 OFFCURVE",
"1346 253 OFFCURVE",
"1346 698 CURVE SMOOTH",
"1346 757 LINE SMOOTH"
);
},
{
closed = 1;
nodes = (
"988 411 OFFCURVE",
"888 254 OFFCURVE",
"711 254 CURVE SMOOTH",
"526 254 OFFCURVE",
"429 413 OFFCURVE",
"429 698 CURVE SMOOTH",
"430 811 LINE SMOOTH",
"441 1071 OFFCURVE",
"534 1201 OFFCURVE",
"709 1201 CURVE SMOOTH",
"896 1201 OFFCURVE",
"989 1054 OFFCURVE",
"989 759 CURVE SMOOTH",
"989 692 LINE SMOOTH"
);
}
);
width = 1455;
}
);
leftKerningGroup = C;
note = Ohorn;
unicode = 01A0;
},
{
glyphname = ohorn;
lastChange = "2017-05-24 16:56:05 +0000";
layers = (
{
layerId = "D40DD59D-1539-4674-98F2-408D5EBDB9DF";
paths = (
{
closed = 1;
nodes = (
"1095 655 OFFCURVE",
"1076 747 OFFCURVE",
"1038 828 CURVE",
"1148 887 OFFCURVE",
"1203 1004 OFFCURVE",
"1203 1177 CURVE",
"1019 1177 LINE",
"1019 1064 OFFCURVE",
"998 989 OFFCURVE",
"957 950 CURVE",
"862 1051 OFFCURVE",
"733 1102 OFFCURVE",
"572 1102 CURVE SMOOTH",
"233 1102 OFFCURVE",
"50 867 OFFCURVE",
"50 551 CURVE SMOOTH",
"50 530 LINE SMOOTH",
"50 214 OFFCURVE",
"234 -20 OFFCURVE",
"574 -20 CURVE SMOOTH",
"913 -20 OFFCURVE",
"1095 214 OFFCURVE",
"1095 530 CURVE SMOOTH",
"1095 551 LINE SMOOTH"
);
},
{
closed = 1;
nodes = (
"388 718 OFFCURVE",
"431 842 OFFCURVE",
"572 842 CURVE SMOOTH",
"717 842 OFFCURVE",
"757 710 OFFCURVE",
"757 551 CURVE SMOOTH",
"757 359 OFFCURVE",
"715 240 OFFCURVE",
"574 240 CURVE SMOOTH",
"429 240 OFFCURVE",
"388 367 OFFCURVE",
"388 530 CURVE SMOOTH"
);
}
);
width = 1199;
}
);
leftKerningGroup = c;
note = ohorn;
unicode = 01A1;
},
{
glyphname = uni01A2;
lastChange = "2017-05-24 16:56:05 +0000";
layers = (
{
layerId = "D40DD59D-1539-4674-98F2-408D5EBDB9DF";
paths = (
{
closed = 1;
nodes = (
"1024 -20 OFFCURVE",
"1207 99 OFFCURVE",
"1282 182 CURVE",
"1282 993 LINE",
"1434 1061 LINE",
"1434 -417 LINE",
"1771 -417 LINE",
"1771 1456 LINE",
"1518 1456 LINE",
"1227 1325 LINE",
"1132 1398 OFFCURVE",
"964 1477 OFFCURVE",
"708 1477 CURVE SMOOTH",
"324 1477 OFFCURVE",
"70 1222 OFFCURVE",
"70 771 CURVE SMOOTH",
"70 686 LINE SMOOTH",
"70 235 OFFCURVE",
"323 -20 OFFCURVE",
"708 -20 CURVE SMOOTH"
);
},
{
closed = 1;
nodes = (
"825 1207 OFFCURVE",
"896 1185 OFFCURVE",
"944 1142 CURVE",
"944 315 LINE",
"915 287 OFFCURVE",
"850 250 OFFCURVE",
"729 250 CURVE SMOOTH",
"528 250 OFFCURVE",
"427 395 OFFCURVE",
"427 686 CURVE SMOOTH",
"427 777 LINE SMOOTH",
"428 1068 OFFCURVE",
"515 1207 OFFCURVE",
"730 1207 CURVE SMOOTH"
);
}
);
width = 1883;
}
);
leftKerningGroup = C;
note = uni01A2;
rightKerningGroup = H;
unicode = 01A2;
},
{
glyphname = uni01A3;
lastChange = "2017-05-24 16:56:05 +0000";
layers = (
{
layerId = "D40DD59D-1539-4674-98F2-408D5EBDB9DF";
paths = (
{
closed = 1;
nodes = (
"1443 -417 LINE",
"1443 1082 LINE",
"1223 1082 LINE",
"924 957 LINE",
"843 1034 OFFCURVE",
"721 1102 OFFCURVE",
"558 1102 CURVE SMOOTH",
"222 1102 OFFCURVE",
"53 865 OFFCURVE",
"53 552 CURVE SMOOTH",
"53 529 LINE SMOOTH",
"53 216 OFFCURVE",
"221 -20 OFFCURVE",
"560 -20 CURVE SMOOTH",
"821 -20 OFFCURVE",
"942 88 OFFCURVE",
"1013 216 CURVE",
"1013 688 LINE",
"1106 723 LINE",
"1106 -417 LINE"
);
},
{
closed = 1;
nodes = (
"405 240 OFFCURVE",
"390 369 OFFCURVE",
"390 529 CURVE SMOOTH",
"390 725 OFFCURVE",
"414 842 OFFCURVE",
"550 842 CURVE SMOOTH",
"605 842 OFFCURVE",
"647 822 OFFCURVE",
"676 783 CURVE",
"676 288 LINE",
"649 256 OFFCURVE",
"608 240 OFFCURVE",
"552 240 CURVE SMOOTH"
);
}
);
width = 1540;
}
);
note = uni01A3;
unicode = 01A3;
},
{
glyphname = uni01A4;
lastChange = "2017-05-24 16:56:05 +0000";
layers = (
{
layerId = "D40DD59D-1539-4674-98F2-408D5EBDB9DF";
paths = (
{
closed = 1;
nodes = (
"41 1001 OFFCURVE",
"47 949 OFFCURVE",
"58 901 CURVE",
"341 901 LINE",
"335 938 OFFCURVE",
"332 970 OFFCURVE",
"332 995 CURVE SMOOTH",
"332 1083 OFFCURVE",
"355 1181 OFFCURVE",
"467 1185 CURVE",
"467 0 LINE",
"818 0 LINE",
"818 494 LINE",
"1048 494 LINE SMOOTH",
"1397 494 OFFCURVE",
"1613 679 OFFCURVE",
"1613 962 CURVE SMOOTH",
"1613 1247 OFFCURVE",
"1397 1456 OFFCURVE",
"1048 1456 CURVE SMOOTH",
"467 1456 LINE",
"467 1456 LINE SMOOTH",
"194 1456 OFFCURVE",
"41 1305 OFFCURVE",
"41 1056 CURVE SMOOTH"
);
},
{
closed = 1;
nodes = (
"1195 1185 OFFCURVE",
"1257 1079 OFFCURVE",
"1257 960 CURVE SMOOTH",
"1257 847 OFFCURVE",
"1195 765 OFFCURVE",
"1048 765 CURVE SMOOTH",
"818 765 LINE",
"818 1185 LINE",
"1048 1185 LINE SMOOTH"
);
}
);
width = 1690;
}
);
note = uni01A4;
rightKerningGroup = P;
unicode = 01A4;
},
{
glyphname = uni01A5;
lastChange = "2017-05-24 16:56:05 +0000";
layers = (
{
layerId = "D40DD59D-1539-4674-98F2-408D5EBDB9DF";
paths = (
{
closed = 1;
nodes = (
"952 -20 OFFCURVE",
"1099 218 OFFCURVE",
"1099 533 CURVE SMOOTH",
"1099 554 LINE SMOOTH",
"1099 883 OFFCURVE",
"953 1102 OFFCURVE",
"678 1102 CURVE SMOOTH",
"579 1102 OFFCURVE",
"498 1067 OFFCURVE",
"435 996 CURVE",
"435 1062 LINE SMOOTH",
"435 1171 OFFCURVE",
"536 1197 OFFCURVE",
"609 1197 CURVE SMOOTH",
"630 1197 OFFCURVE",
"658 1195 OFFCURVE",
"692 1190 CURVE",
"692 1406 LINE",
"642 1416 OFFCURVE",
"582 1421 OFFCURVE",
"513 1421 CURVE SMOOTH",
"456 1421 OFFCURVE",
"396 1414 OFFCURVE",
"333 1400 CURVE SMOOTH",
"207 1371 OFFCURVE",
"105 1285 OFFCURVE",
"98 1082 CURVE",
"98 1082 LINE",
"98 -416 LINE",
"435 -416 LINE",
"435 89 LINE",
"499 16 OFFCURVE",
"580 -20 OFFCURVE",
"679 -20 CURVE SMOOTH"
);
},
{
closed = 1;
nodes = (
"719 842 OFFCURVE",
"762 722 OFFCURVE",
"762 554 CURVE SMOOTH",
"762 363 OFFCURVE",
"723 240 OFFCURVE",
"596 240 CURVE SMOOTH",
"518 240 OFFCURVE",
"464 270 OFFCURVE",
"435 329 CURVE",
"435 756 LINE",
"462 813 OFFCURVE",
"515 842 OFFCURVE",
"594 842 CURVE SMOOTH"
);
}
);
width = 1153;
}
);
note = uni01A5;
unicode = 01A5;
},
{
glyphname = uni01A6;
lastChange = "2017-05-24 16:56:05 +0000";
layers = (
{
layerId = "D40DD59D-1539-4674-98F2-408D5EBDB9DF";
paths = (
{
closed = 1;
nodes = (
"1135 674 OFFCURVE",
"1235 792 OFFCURVE",
"1235 1016 CURVE SMOOTH",
"1235 1300 OFFCURVE",
"1024 1453 OFFCURVE",
"693 1456 CURVE SMOOTH",
"462 1456 LINE",
"462 1560 LINE",
"112 1560 LINE",
"112 1456 LINE",
"111 1456 LINE",
"111 0 LINE",
"462 0 LINE",
"462 514 LINE",
"651 514 LINE",
"1082 -349 LINE",
"1458 -349 LINE",
"1458 -334 LINE",
"980 602 LINE"
);
},
{
closed = 1;
nodes = (
"819 1183 OFFCURVE",
"884 1116 OFFCURVE",
"884 984 CURVE SMOOTH",
"884 851 OFFCURVE",
"817 785 OFFCURVE",
"684 785 CURVE SMOOTH",
"462 785 LINE",
"462 1185 LINE",
"690 1185 LINE SMOOTH"
);
}
);
width = 1418;
}
);
note = uni01A6;
unicode = 01A6;
},
{
glyphname = uni01A7;
lastChange = "2017-05-24 16:56:05 +0000";
layers = (
{
layerId = "D40DD59D-1539-4674-98F2-408D5EBDB9DF";
paths = (
{
closed = 1;
nodes = (
"421 503 OFFCURVE",
"512 544 OFFCURVE",
"681 601 CURVE SMOOTH",
"766 629 OFFCURVE",
"846 663 OFFCURVE",
"921 702 CURVE SMOOTH",
"1071 780 OFFCURVE",
"1174 892 OFFCURVE",
"1174 1067 CURVE SMOOTH",
"1174 1316 OFFCURVE",
"937 1476 OFFCURVE",
"614 1476 CURVE SMOOTH",
"297 1476 OFFCURVE",
"70 1299 OFFCURVE",
"70 1024 CURVE",
"420 1024 LINE",
"420 1133 OFFCURVE",
"487 1211 OFFCURVE",
"622 1211 CURVE SMOOTH",
"755 1211 OFFCURVE",
"825 1144 OFFCURVE",
"825 1064 CURVE SMOOTH",
"825 977 OFFCURVE",
"725 924 OFFCURVE",
"552 868 CURVE SMOOTH",
"247 769 OFFCURVE",
"70 633 OFFCURVE",
"70 389 CURVE SMOOTH",
"70 126 OFFCURVE",
"282 -20 OFFCURVE",
"609 -20 CURVE SMOOTH",
"708 -20 OFFCURVE",
"805 -3 OFFCURVE",
"898 31 CURVE SMOOTH",
"1085 99 OFFCURVE",
"1218 243 OFFCURVE",
"1218 472 CURVE",
"866 472 LINE",
"866 301 OFFCURVE",
"773 244 OFFCURVE",
"609 244 CURVE SMOOTH",
"476 244 OFFCURVE",
"421 308 OFFCURVE",
"421 387 CURVE SMOOTH"
);
}
);
width = 1282;
}
);
note = uni01A7;
unicode = 01A7;
},
{
glyphname = uni01A8;
lastChange = "2017-05-24 16:56:05 +0000";
layers = (
{
layerId = "D40DD59D-1539-4674-98F2-408D5EBDB9DF";
paths = (
{
closed = 1;
nodes = (
"388 333 OFFCURVE",
"404 356 OFFCURVE",
"436 374 CURVE SMOOTH",
"467 391 OFFCURVE",
"524 409 OFFCURVE",
"605 427 CURVE SMOOTH",
"816 474 OFFCURVE",
"981 572 OFFCURVE",
"981 760 CURVE SMOOTH",
"981 943 OFFCURVE",
"818 1102 OFFCURVE",
"535 1102 CURVE SMOOTH",
"244 1102 OFFCURVE",
"62 958 OFFCURVE",
"62 750 CURVE",
"399 750 LINE",
"399 837 OFFCURVE",
"445 880 OFFCURVE",
"536 880 CURVE SMOOTH",
"605 880 OFFCURVE",
"661 840 OFFCURVE",
"661 777 CURVE SMOOTH",
"661 721 OFFCURVE",
"601 682 OFFCURVE",
"480 659 CURVE SMOOTH",
"256 616 OFFCURVE",
"63 541 OFFCURVE",
"63 314 CURVE SMOOTH",
"63 123 OFFCURVE",
"245 -20 OFFCURVE",
"536 -20 CURVE SMOOTH",
"847 -20 OFFCURVE",
"1014 172 OFFCURVE",
"1014 347 CURVE",
"700 347 LINE",
"696 247 OFFCURVE",
"627 203 OFFCURVE",
"527 203 CURVE SMOOTH",
"434 203 OFFCURVE",
"388 237 OFFCURVE",
"388 304 CURVE SMOOTH"
);
}
);
width = 1050;
}
);
note = uni01A8;
unicode = 01A8;
},
{
glyphname = uni01AA;
lastChange = "2017-05-24 16:56:05 +0000";
layers = (
{
layerId = "D40DD59D-1539-4674-98F2-408D5EBDB9DF";
paths = (
{
closed = 1;
nodes = (
"1108 -171 OFFCURVE",
"1075 -174 OFFCURVE",
"1048 -174 CURVE SMOOTH",
"955 -174 OFFCURVE",
"909 -121 OFFCURVE",
"909 -15 CURVE SMOOTH",
"909 1157 LINE SMOOTH",
"909 1390 OFFCURVE",
"714 1581 OFFCURVE",
"475 1581 CURVE SMOOTH",
"236 1581 OFFCURVE",
"43 1390 OFFCURVE",
"43 1157 CURVE SMOOTH",
"43 924 OFFCURVE",
"236 735 OFFCURVE",
"475 735 CURVE SMOOTH",
"508 735 OFFCURVE",
"540 738 OFFCURVE",
"571 745 CURVE",
"571 -15 LINE SMOOTH",
"571 -288 OFFCURVE",
"729 -437 OFFCURVE",
"985 -437 CURVE SMOOTH",
"1041 -437 OFFCURVE",
"1094 -431 OFFCURVE",
"1145 -420 CURVE",
"1145 -165 LINE"
);
},
{
closed = 1;
nodes = (
"396 1009 OFFCURVE",
"333 1059 OFFCURVE",
"333 1159 CURVE SMOOTH",
"333 1259 OFFCURVE",
"396 1310 OFFCURVE",
"477 1310 CURVE SMOOTH",
"554 1310 OFFCURVE",
"617 1259 OFFCURVE",
"617 1159 CURVE SMOOTH",
"617 1059 OFFCURVE",
"554 1009 OFFCURVE",
"477 1009 CURVE SMOOTH"
);
}
);
width = 1138;
}
);
note = uni01AA;
unicode = 01AA;
},
{
glyphname = uni01AB;
lastChange = "2017-05-24 16:56:05 +0000";
layers = (
{
layerId = "D40DD59D-1539-4674-98F2-408D5EBDB9DF";
paths = (
{
closed = 1;
nodes = (
"514 244 OFFCURVE",
"487 266 OFFCURVE",
"487 353 CURVE SMOOTH",
"487 848 LINE",
"665 848 LINE",
"665 1082 LINE",
"487 1082 LINE",
"487 1351 LINE",
"150 1351 LINE",
"150 1082 LINE",
"13 1082 LINE",
"13 848 LINE",
"150 848 LINE",
"150 294 LINE SMOOTH",
"155 97 OFFCURVE",
"254 -7 OFFCURVE",
"449 -19 CURVE",
"449 -57 LINE SMOOTH",
"449 -168 OFFCURVE",
"351 -192 OFFCURVE",
"276 -192 CURVE SMOOTH",
"255 -192 OFFCURVE",
"227 -190 OFFCURVE",
"193 -185 CURVE",
"193 -401 LINE",
"234 -411 OFFCURVE",
"279 -416 OFFCURVE",
"329 -416 CURVE SMOOTH",
"546 -416 OFFCURVE",
"681 -289 OFFCURVE",
"681 -57 CURVE SMOOTH",
"681 250 LINE",
"658 246 OFFCURVE",
"630 244 OFFCURVE",
"597 244 CURVE SMOOTH"
);
}
);
width = 704;
}
);
note = uni01AB;
unicode = 01AB;
},
{
glyphname = uni01AC;
lastChange = "2017-05-24 16:56:05 +0000";
layers = (
{
layerId = "D40DD59D-1539-4674-98F2-408D5EBDB9DF";
paths = (
{
closed = 1;
nodes = (
"30 1001 OFFCURVE",
"36 949 OFFCURVE",
"47 901 CURVE",
"330 901 LINE",
"324 938 OFFCURVE",
"321 970 OFFCURVE",
"321 995 CURVE SMOOTH",
"321 1084 OFFCURVE",
"345 1185 OFFCURVE",
"461 1185 CURVE SMOOTH",
"691 1185 LINE",
"691 0 LINE",
"1042 0 LINE",
"1042 1185 LINE",
"1479 1185 LINE",
"1479 1456 LINE",
"461 1456 LINE SMOOTH",
"182 1456 OFFCURVE",
"30 1305 OFFCURVE",
"30 1056 CURVE SMOOTH"
);
}
);
width = 1517;
}
);
note = uni01AC;
unicode = 01AC;
},
{
glyphname = uni01AD;
lastChange = "2017-05-24 16:56:05 +0000";
layers = (
{
layerId = "D40DD59D-1539-4674-98F2-408D5EBDB9DF";
paths = (
{
closed = 1;
nodes = (
"680 1357 OFFCURVE",
"708 1355 OFFCURVE",
"742 1350 CURVE",
"742 1566 LINE",
"693 1576 OFFCURVE",
"633 1581 OFFCURVE",
"563 1581 CURVE SMOOTH",
"503 1581 OFFCURVE",
"441 1573 OFFCURVE",
"378 1558 CURVE SMOOTH",
"250 1527 OFFCURVE",
"149 1436 OFFCURVE",
"148 1227 CURVE SMOOTH",
"148 1082 LINE",
"11 1082 LINE",
"11 848 LINE",
"148 848 LINE",
"148 311 LINE SMOOTH",
"148 76 OFFCURVE",
"272 -20 OFFCURVE",
"489 -20 CURVE SMOOTH",
"556 -20 OFFCURVE",
"620 -10 OFFCURVE",
"679 9 CURVE",
"679 250 LINE",
"656 246 OFFCURVE",
"628 244 OFFCURVE",
"595 244 CURVE SMOOTH",
"512 244 OFFCURVE",
"485 266 OFFCURVE",
"485 353 CURVE SMOOTH",
"485 848 LINE",
"663 848 LINE",
"663 1082 LINE",
"485 1082 LINE",
"485 1222 LINE SMOOTH",
"485 1331 OFFCURVE",
"586 1357 OFFCURVE",
"659 1357 CURVE SMOOTH"
);
}
);
width = 780;
}
);
note = uni01AD;
unicode = 01AD;
},
{
glyphname = uni01AE;
lastChange = "2017-05-24 16:56:05 +0000";
layers = (
{
layerId = "D40DD59D-1539-4674-98F2-408D5EBDB9DF";
paths = (
{
closed = 1;
nodes = (
"465 -15 LINE SMOOTH",
"465 -288 OFFCURVE",
"620 -437 OFFCURVE",
"875 -437 CURVE SMOOTH",
"932 -437 OFFCURVE",
"986 -431 OFFCURVE",
"1036 -420 CURVE",
"1021 -150 LINE",
"988 -158 OFFCURVE",
"955 -162 OFFCURVE",
"922 -162 CURVE SMOOTH",
"851 -162 OFFCURVE",
"816 -113 OFFCURVE",
"816 -15 CURVE SMOOTH",
"816 1185 LINE",
"1254 1185 LINE",
"1254 1456 LINE",
"37 1456 LINE",
"37 1185 LINE",
"465 1185 LINE"
);
}
);
width = 1292;
}
);
leftKerningGroup = T;
note = uni01AE;
rightKerningGroup = T;
unicode = 01AE;
},
{
glyphname = Uhorn;
lastChange = "2017-05-24 16:56:05 +0000";
layers = (
{
layerId = "D40DD59D-1539-4674-98F2-408D5EBDB9DF";
paths = (
{
closed = 1;
nodes = (
"1026 -20 OFFCURVE",
"1251 164 OFFCURVE",
"1252 501 CURVE SMOOTH",
"1252 1060 LINE",
"1561 1072 OFFCURVE",
"1645 1246 OFFCURVE",
"1645 1537 CURVE",
"1440 1537 LINE",
"1440 1354 OFFCURVE",
"1435 1237 OFFCURVE",
"1252 1224 CURVE",
"1252 1456 LINE",
"901 1456 LINE",
"901 505 LINE SMOOTH",
"901 325 OFFCURVE",
"825 250 OFFCURVE",
"681 250 CURVE SMOOTH",
"536 250 OFFCURVE",
"462 330 OFFCURVE",
"458 489 CURVE",
"458 1456 LINE",
"106 1456 LINE",
"106 505 LINE SMOOTH",
"106 164 OFFCURVE",
"338 -20 OFFCURVE",
"681 -20 CURVE SMOOTH"
);
}
);
width = 1475;
}
);
note = Uhorn;
unicode = 01AF;
},
{
glyphname = uhorn;
lastChange = "2017-05-24 16:56:05 +0000";
layers = (
{
layerId = "D40DD59D-1539-4674-98F2-408D5EBDB9DF";
paths = (
{
closed = 1;
nodes = (
"1065 797 LINE",
"1276 832 OFFCURVE",
"1350 962 OFFCURVE",
"1350 1181 CURVE",
"1166 1181 LINE",
"1166 1060 OFFCURVE",
"1150 982 OFFCURVE",
"1065 949 CURVE",
"1065 1082 LINE",
"727 1082 LINE",
"727 325 LINE",
"696 268 OFFCURVE",
"641 240 OFFCURVE",
"562 240 CURVE SMOOTH",
"471 240 OFFCURVE",
"426 287 OFFCURVE",
"426 380 CURVE SMOOTH",
"426 1082 LINE",
"89 1082 LINE",
"89 382 LINE SMOOTH",
"89 97 OFFCURVE",
"236 -20 OFFCURVE",
"451 -20 CURVE SMOOTH",
"572 -20 OFFCURVE",
"668 25 OFFCURVE",
"739 116 CURVE",
"749 0 LINE",
"1065 0 LINE"
);
}
);
width = 1231;
}
);
leftKerningGroup = u;
note = uhorn;
unicode = 01B0;
},
{
glyphname = uni01B1;
lastChange = "2017-05-24 16:56:05 +0000";
layers = (
{
layerId = "D40DD59D-1539-4674-98F2-408D5EBDB9DF";
paths = (
{
closed = 1;
nodes = (
"863 357 OFFCURVE",
"802 254 OFFCURVE",
"683 254 CURVE SMOOTH",
"560 254 OFFCURVE",
"498 364 OFFCURVE",
"498 584 CURVE SMOOTH",
"498 661 LINE SMOOTH",
"498 822 OFFCURVE",
"511 942 OFFCURVE",
"537 1021 CURVE SMOOTH",
"563 1099 OFFCURVE",
"595 1151 OFFCURVE",
"632 1177 CURVE",
"632 1456 LINE",
"119 1456 LINE",
"119 1185 LINE",
"344 1185 LINE",
"205 1068 OFFCURVE",
"97 884 OFFCURVE",
"97 661 CURVE SMOOTH",
"97 586 LINE SMOOTH",
"97 231 OFFCURVE",
"336 -20 OFFCURVE",
"683 -20 CURVE SMOOTH",
"1031 -20 OFFCURVE",
"1268 231 OFFCURVE",
"1268 586 CURVE SMOOTH",
"1268 661 LINE SMOOTH",
"1268 882 OFFCURVE",
"1160 1068 OFFCURVE",
"1020 1185 CURVE",
"1246 1185 LINE",
"1246 1456 LINE",
"727 1456 LINE",
"727 1177 LINE",
"768 1152 OFFCURVE",
"801 1100 OFFCURVE",
"828 1022 CURVE SMOOTH",
"854 944 OFFCURVE",
"867 824 OFFCURVE",
"867 661 CURVE SMOOTH",
"867 563 LINE SMOOTH"
);
}
);
width = 1367;
}
);
note = uni01B1;
unicode = 01B1;
},
{
glyphname = uni01B2;
lastChange = "2017-05-24 16:56:05 +0000";
layers = (
{
layerId = "D40DD59D-1539-4674-98F2-408D5EBDB9DF";
paths = (
{
closed = 1;
nodes = (
"1027 -20 OFFCURVE",
"1253 164 OFFCURVE",
"1253 505 CURVE SMOOTH",
"1253 1053 LINE SMOOTH",
"1253 1326 OFFCURVE",
"1100 1475 OFFCURVE",
"844 1475 CURVE SMOOTH",
"788 1475 OFFCURVE",
"735 1469 OFFCURVE",
"684 1458 CURVE",
"684 1189 LINE",
"723 1195 OFFCURVE",
"756 1198 OFFCURVE",
"782 1198 CURVE SMOOTH",
"867 1198 OFFCURVE",
"903 1172 OFFCURVE",
"903 1053 CURVE SMOOTH",
"903 505 LINE SMOOTH",
"903 325 OFFCURVE",
"826 250 OFFCURVE",
"682 250 CURVE SMOOTH",
"537 250 OFFCURVE",
"463 330 OFFCURVE",
"459 489 CURVE",
"459 1456 LINE",
"107 1456 LINE",
"107 505 LINE SMOOTH",
"107 164 OFFCURVE",
"341 -20 OFFCURVE",
"682 -20 CURVE SMOOTH"
);
}
);
width = 1360;
}
);
note = uni01B2;
unicode = 01B2;
},
{
glyphname = uni01B3;
lastChange = "2017-05-24 16:56:05 +0000";
layers = (
{
layerId = "D40DD59D-1539-4674-98F2-408D5EBDB9DF";
paths = (
{
closed = 1;
nodes = (
"1112 1108 OFFCURVE",
"1161 1195 OFFCURVE",
"1234 1195 CURVE SMOOTH",
"1247 1195 OFFCURVE",
"1258 1193 OFFCURVE",
"1266 1190 CURVE",
"1304 1173 LINE",
"1431 1420 LINE",
"1350 1455 OFFCURVE",
"1275 1477 OFFCURVE",
"1158 1477 CURVE SMOOTH",
"954 1477 OFFCURVE",
"854 1324 OFFCURVE",
"753 1089 CURVE SMOOTH",
"645 831 LINE",
"377 1456 LINE",
"-4 1456 LINE",
"467 525 LINE",
"467 0 LINE",
"824 0 LINE",
"824 528 LINE",
"1041 963 LINE SMOOTH"
);
}
);
width = 1435;
}
);
note = uni01B3;
unicode = 01B3;
},
{
glyphname = uni01B4;
lastChange = "2017-05-24 16:56:05 +0000";
layers = (
{
layerId = "D40DD59D-1539-4674-98F2-408D5EBDB9DF";
paths = (
{
closed = 1;
nodes = (
"358 -437 OFFCURVE",
"423 -422 OFFCURVE",
"470 -391 CURVE SMOOTH",
"565 -331 OFFCURVE",
"608 -239 OFFCURVE",
"635 -158 CURVE SMOOTH",
"977 885 LINE SMOOTH",
"998 950 OFFCURVE",
"1017 995 OFFCURVE",
"1034 1020 CURVE SMOOTH",
"1051 1045 OFFCURVE",
"1070 1058 OFFCURVE",
"1092 1058 CURVE SMOOTH",
"1112 1058 OFFCURVE",
"1137 1051 OFFCURVE",
"1166 1036 CURVE",
"1243 1237 LINE",
"1162 1300 OFFCURVE",
"1077 1331 OFFCURVE",
"988 1331 CURVE SMOOTH",
"796 1331 OFFCURVE",
"734 1164 OFFCURVE",
"670 957 CURVE SMOOTH",
"527 467 LINE",
"525 477 LINE",
"356 1082 LINE",
"-5 1082 LINE",
"373 -11 LINE",
"345 -82 LINE",
"324 -143 OFFCURVE",
"289 -176 OFFCURVE",
"181 -176 CURVE SMOOTH",
"137 -176 LINE",
"137 -417 LINE",
"213 -434 LINE",
"277 -437 LINE"
);
}
);
width = 1230;
}
);
note = uni01B4;
unicode = 01B4;
},
{
glyphname = uni01B5;
lastChange = "2017-05-24 16:56:05 +0000";
layers = (
{
layerId = "D40DD59D-1539-4674-98F2-408D5EBDB9DF";
paths = (
{
closed = 1;
nodes = (
"523 842 LINE",
"153 842 LINE",
"153 651 LINE",
"391 651 LINE",
"67 185 LINE",
"67 0 LINE",
"1201 0 LINE",
"1201 270 LINE",
"506 270 LINE",
"766 651 LINE",
"1136 651 LINE",
"1136 842 LINE",
"897 842 LINE",
"1194 1276 LINE",
"1194 1456 LINE",
"62 1456 LINE",
"62 1185 LINE",
"762 1185 LINE"
);
}
);
width = 1250;
}
);
note = uni01B5;
unicode = 01B5;
},
{
glyphname = uni01B6;
lastChange = "2017-05-24 16:56:05 +0000";
layers = (
{
layerId = "D40DD59D-1539-4674-98F2-408D5EBDB9DF";
paths = (
{
closed = 1;
nodes = (
"416 652 LINE",
"127 652 LINE",
"127 461 LINE",
"272 461 LINE",
"65 188 LINE",
"65 0 LINE",
"984 0 LINE",
"984 260 LINE",
"492 260 LINE",
"643 461 LINE",
"925 461 LINE",
"925 652 LINE",
"786 652 LINE",
"973 900 LINE",
"973 1082 LINE",
"86 1082 LINE",
"86 822 LINE",
"545 822 LINE"
);
}
);
width = 1052;
}
);
leftKerningGroup = z;
note = uni01B6;
rightKerningGroup = z;
unicode = 01B6;
},
{
glyphname = uni01B7;
lastChange = "2017-05-24 16:56:05 +0000";
layers = (
{
layerId = "D40DD59D-1539-4674-98F2-408D5EBDB9DF";
paths = (
{
closed = 1;
nodes = (
"381 777 LINE",
"381 595 LINE",
"667 595 LINE SMOOTH",
"847 595 OFFCURVE",
"934 490 OFFCURVE",
"934 210 CURVE SMOOTH",
"934 -45 OFFCURVE",
"856 -166 OFFCURVE",
"665 -166 CURVE SMOOTH",
"502 -166 OFFCURVE",
"418 -86 OFFCURVE",
"412 75 CURVE",
"61 75 LINE",
"77 -228 OFFCURVE",
"306 -436 OFFCURVE",
"665 -436 CURVE SMOOTH",
"1049 -436 OFFCURVE",
"1283 -195 OFFCURVE",
"1283 210 CURVE SMOOTH",
"1283 562 OFFCURVE",
"1099 789 OFFCURVE",
"808 842 CURVE",
"1175 1280 LINE",
"1175 1456 LINE",
"53 1456 LINE",
"53 1185 LINE",
"731 1185 LINE"
);
}
);
width = 1347;
}
);
note = uni01B7;
unicode = 01B7;
},
{
glyphname = uni01B8;
lastChange = "2017-05-24 16:56:05 +0000";
layers = (
{
layerId = "D40DD59D-1539-4674-98F2-408D5EBDB9DF";
paths = (
{
closed = 1;
nodes = (
"1293 1185 LINE",
"1293 1456 LINE",
"177 1456 LINE",
"177 1280 LINE",
"543 843 LINE",
"250 791 OFFCURVE",
"62 563 OFFCURVE",
"62 210 CURVE SMOOTH",
"62 -195 OFFCURVE",
"296 -436 OFFCURVE",
"681 -436 CURVE SMOOTH",
"1038 -436 OFFCURVE",
"1268 -228 OFFCURVE",
"1285 75 CURVE",
"934 75 LINE",
"928 -86 OFFCURVE",
"844 -166 OFFCURVE",
"681 -166 CURVE SMOOTH",
"492 -166 OFFCURVE",
"412 -45 OFFCURVE",
"412 210 CURVE SMOOTH",
"412 490 OFFCURVE",
"498 595 OFFCURVE",
"679 595 CURVE SMOOTH",
"971 595 LINE",
"971 777 LINE",
"621 1185 LINE"
);
}
);
width = 1347;
}
);
note = uni01B8;
unicode = 01B8;
},
{
glyphname = uni01B9;
lastChange = "2017-05-24 16:56:05 +0000";
layers = (
{
layerId = "D40DD59D-1539-4674-98F2-408D5EBDB9DF";
paths = (
{
closed = 1;
nodes = (
"1053 1082 LINE",
"58 1082 LINE",
"57 866 LINE",
"401 498 LINE",
"169 447 OFFCURVE",
"38 286 OFFCURVE",
"38 33 CURVE SMOOTH",
"38 -239 OFFCURVE",
"268 -395 OFFCURVE",
"588 -395 CURVE SMOOTH",
"674 -395 OFFCURVE",
"757 -380 OFFCURVE",
"838 -351 CURVE SMOOTH",
"998 -292 OFFCURVE",
"1113 -170 OFFCURVE",
"1113 29 CURVE",
"774 29 LINE",
"774 -63 OFFCURVE",
"703 -135 OFFCURVE",
"588 -135 CURVE SMOOTH",
"455 -135 OFFCURVE",
"375 -56 OFFCURVE",
"375 41 CURVE SMOOTH",
"375 232 OFFCURVE",
"466 306 OFFCURVE",
"635 306 CURVE SMOOTH",
"764 306 LINE",
"764 499 LINE",
"439 822 LINE",
"1053 822 LINE"
);
}
);
width = 1187;
}
);
note = uni01B9;
unicode = 01B9;
},
{
glyphname = uni01BA;
lastChange = "2017-05-24 16:56:05 +0000";
layers = (
{
layerId = "D40DD59D-1539-4674-98F2-408D5EBDB9DF";
paths = (
{
closed = 1;
nodes = (
"654 327 OFFCURVE",
"638 302 OFFCURVE",
"605 285 CURVE SMOOTH",
"572 268 OFFCURVE",
"517 252 OFFCURVE",
"440 237 CURVE SMOOTH",
"189 188 OFFCURVE",
"56 93 OFFCURVE",
"56 -102 CURVE SMOOTH",
"56 -293 OFFCURVE",
"240 -436 OFFCURVE",
"529 -436 CURVE SMOOTH",
"840 -436 OFFCURVE",
"1007 -244 OFFCURVE",
"1007 -69 CURVE",
"692 -69 LINE",
"689 -177 OFFCURVE",
"605 -213 OFFCURVE",
"520 -213 CURVE SMOOTH",
"441 -213 OFFCURVE",
"381 -180 OFFCURVE",
"381 -112 CURVE SMOOTH",
"381 -89 OFFCURVE",
"394 -67 OFFCURVE",
"420 -47 CURVE SMOOTH",
"445 -28 OFFCURVE",
"504 -8 OFFCURVE",
"597 11 CURVE SMOOTH",
"781 50 OFFCURVE",
"973 144 OFFCURVE",
"973 344 CURVE SMOOTH",
"973 481 OFFCURVE",
"882 606 OFFCURVE",
"715 659 CURVE",
"988 900 LINE",
"988 1082 LINE",
"106 1082 LINE",
"106 822 LINE",
"440 822 LINE",
"269 652 LINE",
"269 464 LINE",
"529 464 LINE SMOOTH",
"598 464 OFFCURVE",
"654 424 OFFCURVE",
"654 361 CURVE SMOOTH"
);
}
);
width = 1053;
}
);
note = uni01BA;
unicode = 01BA;
},
{
glyphname = uni01BB;
lastChange = "2017-05-24 16:56:05 +0000";
layers = (
{
layerId = "D40DD59D-1539-4674-98F2-408D5EBDB9DF";
paths = (
{
closed = 1;
nodes = (
"720 477 LINE",
"787 542 OFFCURVE",
"842 600 OFFCURVE",
"885 651 CURVE",
"1181 651 LINE",
"1181 842 LINE",
"1017 842 LINE",
"1052 912 OFFCURVE",
"1069 983 OFFCURVE",
"1069 1055 CURVE SMOOTH",
"1069 1320 OFFCURVE",
"900 1477 OFFCURVE",
"579 1477 CURVE SMOOTH",
"270 1477 OFFCURVE",
"60 1256 OFFCURVE",
"60 988 CURVE",
"398 988 LINE",
"398 1119 OFFCURVE",
"466 1217 OFFCURVE",
"571 1217 CURVE SMOOTH",
"678 1217 OFFCURVE",
"731 1153 OFFCURVE",
"731 1025 CURVE SMOOTH",
"731 974 OFFCURVE",
"707 913 OFFCURVE",
"659 842 CURVE",
"255 842 LINE",
"255 651 LINE",
"500 651 LINE",
"90 220 LINE",
"90 0 LINE",
"1106 0 LINE",
"1106 260 LINE",
"532 260 LINE"
);
}
);
width = 1261;
}
);
note = uni01BB;
unicode = 01BB;
},
{
glyphname = uni01BC;
lastChange = "2017-05-24 16:56:05 +0000";
layers = (
{
layerId = "D40DD59D-1539-4674-98F2-408D5EBDB9DF";
paths = (
{
closed = 1;
nodes = (
"230 712 LINE",
"498 649 LINE",
"525 682 OFFCURVE",
"577 725 OFFCURVE",
"674 725 CURVE SMOOTH",
"821 725 OFFCURVE",
"882 635 OFFCURVE",
"882 492 CURVE SMOOTH",
"882 356 OFFCURVE",
"845 240 OFFCURVE",
"712 240 CURVE SMOOTH",
"612 240 OFFCURVE",
"545 307 OFFCURVE",
"540 414 CURVE",
"202 414 LINE",
"201 325 OFFCURVE",
"225 248 OFFCURVE",
"274 183 CURVE SMOOTH",
"373 53 OFFCURVE",
"541 -20 OFFCURVE",
"714 -20 CURVE SMOOTH",
"829 -20 OFFCURVE",
"923 3 OFFCURVE",
"998 50 CURVE SMOOTH",
"1147 143 OFFCURVE",
"1219 302 OFFCURVE",
"1219 469 CURVE SMOOTH",
"1219 781 OFFCURVE",
"1057 958 OFFCURVE",
"769 958 CURVE SMOOTH",
"677 958 OFFCURVE",
"592 924 OFFCURVE",
"560 905 CURVE",
"593 1194 LINE",
"1170 1194 LINE",
"1170 1456 LINE",
"59 1456 LINE",
"59 1194 LINE",
"288 1194 LINE"
);
}
);
width = 1299;
}
);
note = uni01BC;
unicode = 01BC;
},
{
glyphname = uni01BD;
lastChange = "2017-05-24 16:56:05 +0000";
layers = (
{
layerId = "D40DD59D-1539-4674-98F2-408D5EBDB9DF";
paths = (
{
closed = 1;
nodes = (
"176 471 LINE",
"484 458 LINE",
"511 485 OFFCURVE",
"558 498 OFFCURVE",
"627 498 CURVE SMOOTH",
"729 498 OFFCURVE",
"780 456 OFFCURVE",
"780 371 CURVE SMOOTH",
"780 286 OFFCURVE",
"731 243 OFFCURVE",
"632 243 CURVE SMOOTH",
"529 243 OFFCURVE",
"474 276 OFFCURVE",
"467 341 CURVE",
"128 324 LINE",
"128 85 OFFCURVE",
"368 -17 OFFCURVE",
"632 -17 CURVE SMOOTH",
"973 -17 OFFCURVE",
"1117 135 OFFCURVE",
"1117 348 CURVE SMOOTH",
"1117 575 OFFCURVE",
"974 706 OFFCURVE",
"727 706 CURVE SMOOTH",
"643 706 OFFCURVE",
"570 691 OFFCURVE",
"508 661 CURVE",
"533 830 LINE",
"1037 830 LINE",
"1037 1082 LINE",
"60 1082 LINE",
"60 830 LINE",
"226 830 LINE"
);
}
);
width = 1175;
}
);
note = uni01BD;
unicode = 01BD;
},
{
glyphname = uni01BE;
lastChange = "2017-05-24 16:56:05 +0000";
layers = (
{
layerId = "D40DD59D-1539-4674-98F2-408D5EBDB9DF";
paths = (
{
closed = 1;
nodes = (
"987 479 OFFCURVE",
"902 540 OFFCURVE",
"809 584 CURVE SMOOTH",
"716 628 OFFCURVE",
"631 679 OFFCURVE",
"631 824 CURVE SMOOTH",
"631 848 LINE",
"809 848 LINE",
"809 1082 LINE",
"631 1082 LINE",
"631 1351 LINE",
"294 1351 LINE",
"294 1082 LINE",
"157 1082 LINE",
"157 848 LINE",
"294 848 LINE",
"294 621 OFFCURVE",
"380 534 OFFCURVE",
"478 476 CURVE SMOOTH",
"576 418 OFFCURVE",
"662 383 OFFCURVE",
"662 304 CURVE SMOOTH",
"662 239 OFFCURVE",
"604 203 OFFCURVE",
"523 203 CURVE SMOOTH",
"436 203 OFFCURVE",
"354 239 OFFCURVE",
"350 347 CURVE",
"36 347 LINE",
"36 172 OFFCURVE",
"203 -20 OFFCURVE",
"514 -20 CURVE SMOOTH",
"805 -20 OFFCURVE",
"987 123 OFFCURVE",
"987 314 CURVE SMOOTH"
);
}
);
width = 1050;
}
);
note = uni01BE;
unicode = 01BE;
},
{
glyphname = uni01BF;
lastChange = "2017-05-24 16:56:05 +0000";
layers = (
{
layerId = "D40DD59D-1539-4674-98F2-408D5EBDB9DF";
paths = (
{
closed = 1;
nodes = (
"1099 883 OFFCURVE",
"953 1102 OFFCURVE",
"678 1102 CURVE SMOOTH",
"573 1102 OFFCURVE",
"488 1062 OFFCURVE",
"423 983 CURVE",
"413 1082 LINE",
"98 1082 LINE",
"98 -416 LINE",
"435 -416 LINE",
"435 -173 LINE",
"565 -136 OFFCURVE",
"680 -89 OFFCURVE",
"780 -32 CURVE SMOOTH",
"980 81 OFFCURVE",
"1099 256 OFFCURVE",
"1099 533 CURVE SMOOTH",
"1099 554 LINE SMOOTH"
);
},
{
closed = 1;
nodes = (
"719 842 OFFCURVE",
"762 722 OFFCURVE",
"762 554 CURVE SMOOTH",
"762 533 LINE SMOOTH",
"762 296 OFFCURVE",
"634 146 OFFCURVE",
"435 82 CURVE",
"435 756 LINE",
"462 813 OFFCURVE",
"515 842 OFFCURVE",
"594 842 CURVE SMOOTH"
);
}
);
width = 1153;
}
);
note = uni01BF;
unicode = 01BF;
},
{
glyphname = uni01C0;
lastChange = "2017-05-24 16:56:05 +0000";
layers = (
{
layerId = "D40DD59D-1539-4674-98F2-408D5EBDB9DF";
paths = (
{
closed = 1;
nodes = (
"138 0 LINE",
"322 0 LINE",
"322 1456 LINE",
"138 1456 LINE"
);
}
);
width = 460;
}
);
note = uni01C0;
unicode = 01C0;
},
{
glyphname = uni01C5;
lastChange = "2017-05-24 16:56:05 +0000";
layers = (
{
layerId = "D40DD59D-1539-4674-98F2-408D5EBDB9DF";
paths = (
{
closed = 1;
nodes = (
"1380 1514 LINE",
"1674 1252 LINE",
"1913 1252 LINE",
"2205 1512 LINE",
"2205 1528 LINE",
"1918 1528 LINE",
"1794 1392 LINE",
"1669 1528 LINE",
"1380 1528 LINE"
);
},
{
closed = 1;
nodes = (
"977 1 OFFCURVE",
"1254 288 OFFCURVE",
"1254 697 CURVE SMOOTH",
"1254 758 LINE SMOOTH",
"1254 895 OFFCURVE",
"1225 1017 OFFCURVE",
"1168 1122 CURVE SMOOTH",
"1052 1332 OFFCURVE",
"842 1456 OFFCURVE",
"579 1456 CURVE SMOOTH",
"111 1456 LINE",
"111 0 LINE",
"586 0 LINE SMOOTH"
);
},
{
closed = 1;
nodes = (
"795 1179 OFFCURVE",
"896 1037 OFFCURVE",
"896 760 CURVE SMOOTH",
"895 649 LINE SMOOTH",
"884 396 OFFCURVE",
"780 270 OFFCURVE",
"584 270 CURVE SMOOTH",
"462 270 LINE",
"462 1185 LINE",
"592 1185 LINE SMOOTH"
);
},
{
closed = 1;
nodes = (
"1324 188 LINE",
"1324 0 LINE",
"2242 0 LINE",
"2242 260 LINE",
"1751 260 LINE",
"2232 900 LINE",
"2232 1082 LINE",
"1344 1082 LINE",
"1344 822 LINE",
"1803 822 LINE"
);
}
);
width = 2312;
}
);
note = uni01C5;
rightKerningGroup = z;
unicode = 01C5;
},
{
glyphname = uni01C6;
lastChange = "2017-05-24 16:56:05 +0000";
layers = (
{
layerId = "D40DD59D-1539-4674-98F2-408D5EBDB9DF";
paths = (
{
closed = 1;
nodes = (
"1056 1560 LINE",
"717 1560 LINE",
"717 989 LINE",
"652 1064 OFFCURVE",
"571 1102 OFFCURVE",
"474 1102 CURVE SMOOTH",
"198 1102 OFFCURVE",
"53 878 OFFCURVE",
"53 549 CURVE SMOOTH",
"53 524 LINE SMOOTH",
"54 211 OFFCURVE",
"199 -20 OFFCURVE",
"472 -20 CURVE SMOOTH",
"581 -20 OFFCURVE",
"670 27 OFFCURVE",
"740 122 CURVE",
"762 0 LINE",
"1056 0 LINE"
);
},
{
closed = 1;
nodes = (
"1190 1514 LINE",
"1484 1252 LINE",
"1723 1252 LINE",
"2015 1512 LINE",
"2015 1528 LINE",
"1728 1528 LINE",
"1604 1392 LINE",
"1479 1528 LINE",
"1190 1528 LINE"
);
},
{
closed = 1;
nodes = (
"1134 188 LINE",
"1134 0 LINE",
"2052 0 LINE",
"2052 260 LINE",
"1561 260 LINE",
"2042 900 LINE",
"2042 1082 LINE",
"1154 1082 LINE",
"1154 822 LINE",
"1613 822 LINE"
);
},
{
closed = 1;
nodes = (
"390 725 OFFCURVE",
"435 842 OFFCURVE",
"560 842 CURVE SMOOTH",
"635 842 OFFCURVE",
"687 811 OFFCURVE",
"717 748 CURVE",
"717 333 LINE",
"686 271 OFFCURVE",
"633 240 OFFCURVE",
"558 240 CURVE SMOOTH",
"429 240 OFFCURVE",
"390 365 OFFCURVE",
"390 528 CURVE SMOOTH"
);
}
);
width = 2122;
}
);
leftKerningGroup = c;
note = uni01C6;
rightKerningGroup = z;
unicode = 01C6;
},
{
glyphname = uni01E4;
lastChange = "2017-05-24 16:56:05 +0000";
layers = (
{
layerId = "D40DD59D-1539-4674-98F2-408D5EBDB9DF";
paths = (
{
closed = 1;
nodes = (
"1480 327 LINE",
"1480 482 LINE",
"1302 482 LINE",
"1302 778 LINE",
"707 778 LINE",
"707 537 LINE",
"951 537 LINE",
"951 482 LINE",
"749 482 LINE",
"749 327 LINE",
"951 327 LINE",
"951 311 LINE",
"906 270 OFFCURVE",
"839 250 OFFCURVE",
"748 250 CURVE SMOOTH",
"543 250 OFFCURVE",
"439 395 OFFCURVE",
"439 687 CURVE SMOOTH",
"439 776 LINE SMOOTH",
"440 1065 OFFCURVE",
"548 1207 OFFCURVE",
"716 1207 CURVE SMOOTH",
"879 1207 OFFCURVE",
"943 1125 OFFCURVE",
"964 981 CURVE",
"1301 981 LINE",
"1272 1272 OFFCURVE",
"1105 1477 OFFCURVE",
"704 1477 CURVE SMOOTH",
"341 1477 OFFCURVE",
"82 1221 OFFCURVE",
"82 768 CURVE SMOOTH",
"82 687 LINE SMOOTH",
"82 234 OFFCURVE",
"336 -20 OFFCURVE",
"723 -20 CURVE SMOOTH",
"1036 -20 OFFCURVE",
"1227 97 OFFCURVE",
"1302 180 CURVE",
"1302 327 LINE"
);
}
);
width = 1475;
}
);
note = uni01E4;
unicode = 01E4;
},
{
glyphname = uni01E5;
lastChange = "2017-05-24 16:56:05 +0000";
layers = (
{
layerId = "D40DD59D-1539-4674-98F2-408D5EBDB9DF";
paths = (
{
closed = 1;
nodes = (
"1079 -55 LINE",
"1079 1082 LINE",
"774 1082 LINE",
"762 988 LINE",
"700 1064 OFFCURVE",
"612 1102 OFFCURVE",
"498 1102 CURVE SMOOTH",
"222 1102 OFFCURVE",
"54 878 OFFCURVE",
"54 549 CURVE SMOOTH",
"54 528 LINE SMOOTH",
"54 213 OFFCURVE",
"221 -20 OFFCURVE",
"496 -20 CURVE SMOOTH",
"595 -20 OFFCURVE",
"677 16 OFFCURVE",
"741 87 CURVE",
"741 -55 LINE",
"51 -55 LINE",
"51 -196 LINE",
"717 -196 LINE",
"682 -263 OFFCURVE",
"616 -297 OFFCURVE",
"517 -297 CURVE SMOOTH",
"402 -297 OFFCURVE",
"311 -273 OFFCURVE",
"244 -225 CURVE",
"125 -415 LINE",
"257 -522 OFFCURVE",
"386 -544 OFFCURVE",
"529 -544 CURVE SMOOTH",
"814 -544 OFFCURVE",
"1019 -421 OFFCURVE",
"1068 -196 CURVE",
"1174 -196 LINE",
"1174 -55 LINE"
);
},
{
closed = 1;
nodes = (
"391 725 OFFCURVE",
"459 842 OFFCURVE",
"584 842 CURVE SMOOTH",
"657 842 OFFCURVE",
"709 817 OFFCURVE",
"741 768 CURVE",
"741 313 LINE",
"708 264 OFFCURVE",
"655 240 OFFCURVE",
"582 240 CURVE SMOOTH",
"453 240 OFFCURVE",
"391 365 OFFCURVE",
"391 528 CURVE SMOOTH"
);
}
);
width = 1179;
}
);
leftKerningGroup = c;
note = uni01E5;
unicode = 01E5;
},
{
glyphname = uni01EF;
lastChange = "2017-05-24 16:56:05 +0000";
layers = (
{
layerId = "D40DD59D-1539-4674-98F2-408D5EBDB9DF";
paths = (
{
closed = 1;
nodes = (
"195 1514 LINE",
"490 1252 LINE",
"729 1252 LINE",
"1021 1512 LINE",
"1021 1528 LINE",
"734 1528 LINE",
"610 1392 LINE",
"485 1528 LINE",
"195 1528 LINE"
);
},
{
closed = 1;
nodes = (
"718 306 OFFCURVE",
"809 232 OFFCURVE",
"809 41 CURVE SMOOTH",
"809 -56 OFFCURVE",
"729 -135 OFFCURVE",
"596 -135 CURVE SMOOTH",
"481 -135 OFFCURVE",
"410 -63 OFFCURVE",
"410 29 CURVE",
"71 29 LINE",
"71 -70 OFFCURVE",
"97 -151 OFFCURVE",
"149 -213 CURVE SMOOTH",
"252 -338 OFFCURVE",
"424 -395 OFFCURVE",
"596 -395 CURVE SMOOTH",
"916 -395 OFFCURVE",
"1146 -239 OFFCURVE",
"1146 33 CURVE SMOOTH",
"1146 286 OFFCURVE",
"1015 447 OFFCURVE",
"783 498 CURVE",
"1127 866 LINE",
"1126 1082 LINE",
"131 1082 LINE",
"131 822 LINE",
"745 822 LINE",
"420 499 LINE",
"420 306 LINE",
"549 306 LINE SMOOTH"
);
}
);
width = 1182;
}
);
note = uni01EF;
unicode = 01EF;
},
{
glyphname = uni01F6;
lastChange = "2017-05-24 16:56:05 +0000";
layers = (
{
layerId = "D40DD59D-1539-4674-98F2-408D5EBDB9DF";
paths = (
{
closed = 1;
nodes = (
"462 878 LINE",
"462 1456 LINE",
"111 1456 LINE",
"111 0 LINE",
"462 0 LINE",
"462 608 LINE",
"978 608 LINE",
"978 500 LINE",
"978 500 LINE",
"978 164 OFFCURVE",
"1179 -20 OFFCURVE",
"1520 -20 CURVE SMOOTH",
"1864 -20 OFFCURVE",
"2061 162 OFFCURVE",
"2062 502 CURVE SMOOTH",
"2062 1082 LINE",
"1711 1082 LINE",
"1711 505 LINE SMOOTH",
"1711 325 OFFCURVE",
"1665 250 OFFCURVE",
"1520 250 CURVE SMOOTH",
"1377 250 OFFCURVE",
"1328 325 OFFCURVE",
"1328 505 CURVE SMOOTH",
"1328 1456 LINE",
"978 1456 LINE",
"978 878 LINE"
);
}
);
width = 2170;
}
);
note = uni01F6;
unicode = 01F6;
},
{
glyphname = uni01F7;
lastChange = "2017-05-24 16:56:05 +0000";
layers = (
{
layerId = "D40DD59D-1539-4674-98F2-408D5EBDB9DF";
paths = (
{
closed = 1;
nodes = (
"1304 1251 OFFCURVE",
"1060 1477 OFFCURVE",
"695 1477 CURVE SMOOTH",
"606 1477 OFFCURVE",
"528 1461 OFFCURVE",
"460 1428 CURVE",
"460 1456 LINE",
"111 1456 LINE",
"111 -417 LINE",
"460 -417 LINE",
"460 -142 LINE",
"1021 46 OFFCURVE",
"1309 375 OFFCURVE",
"1309 776 CURVE SMOOTH",
"1309 844 LINE"
);
},
{
closed = 1;
nodes = (
"918 1206 OFFCURVE",
"951 1047 OFFCURVE",
"951 832 CURVE SMOOTH",
"951 776 LINE SMOOTH",
"951 508 OFFCURVE",
"785 286 OFFCURVE",
"460 142 CURVE",
"460 1105 LINE",
"531 1172 OFFCURVE",
"609 1206 OFFCURVE",
"695 1206 CURVE SMOOTH"
);
}
);
width = 1379;
}
);
note = uni01F7;
unicode = 01F7;
},
{
glyphname = uni021C;
lastChange = "2017-05-24 16:56:05 +0000";
layers = (
{
layerId = "D40DD59D-1539-4674-98F2-408D5EBDB9DF";
paths = (
{
closed = 1;
nodes = (
"1160 488 OFFCURVE",
"1098 592 OFFCURVE",
"975 659 CURVE",
"1084 768 OFFCURVE",
"1138 902 OFFCURVE",
"1138 1061 CURVE SMOOTH",
"1138 1333 OFFCURVE",
"921 1475 OFFCURVE",
"590 1475 CURVE SMOOTH",
"496 1475 OFFCURVE",
"408 1459 OFFCURVE",
"326 1427 CURVE SMOOTH",
"162 1363 OFFCURVE",
"51 1237 OFFCURVE",
"51 1058 CURVE",
"400 1058 LINE",
"400 1157 OFFCURVE",
"491 1205 OFFCURVE",
"590 1205 CURVE SMOOTH",
"738 1205 OFFCURVE",
"793 1130 OFFCURVE",
"793 1011 CURVE SMOOTH",
"793 871 OFFCURVE",
"736 781 OFFCURVE",
"555 695 CURVE SMOOTH",
"464 652 OFFCURVE",
"334 604 OFFCURVE",
"163 552 CURVE",
"163 299 LINE",
"415 360 OFFCURVE",
"612 428 OFFCURVE",
"753 503 CURVE",
"790 479 OFFCURVE",
"808 430 OFFCURVE",
"808 355 CURVE SMOOTH",
"808 90 OFFCURVE",
"592 -84 OFFCURVE",
"163 -168 CURVE",
"163 -436 LINE",
"354 -411 OFFCURVE",
"525 -365 OFFCURVE",
"676 -298 CURVE SMOOTH",
"976 -165 OFFCURVE",
"1160 52 OFFCURVE",
"1160 348 CURVE SMOOTH"
);
}
);
width = 1236;
}
);
note = uni021C;
unicode = 021C;
},
{
glyphname = uni021D;
lastChange = "2017-05-24 16:56:05 +0000";
layers = (
{
layerId = "D40DD59D-1539-4674-98F2-408D5EBDB9DF";
paths = (
{
closed = 1;
nodes = (
"990 311 OFFCURVE",
"941 402 OFFCURVE",
"843 457 CURVE",
"928 546 OFFCURVE",
"971 656 OFFCURVE",
"971 786 CURVE SMOOTH",
"971 991 OFFCURVE",
"784 1101 OFFCURVE",
"499 1101 CURVE SMOOTH",
"254 1101 OFFCURVE",
"55 979 OFFCURVE",
"55 768 CURVE",
"393 768 LINE",
"393 830 OFFCURVE",
"436 861 OFFCURVE",
"522 861 CURVE SMOOTH",
"615 861 OFFCURVE",
"634 806 OFFCURVE",
"634 734 CURVE SMOOTH",
"634 582 OFFCURVE",
"508 483 OFFCURVE",
"189 378 CURVE",
"189 144 LINE",
"373 194 OFFCURVE",
"521 248 OFFCURVE",
"633 306 CURVE",
"646 279 OFFCURVE",
"653 248 OFFCURVE",
"653 213 CURVE SMOOTH",
"653 22 OFFCURVE",
"526 -73 OFFCURVE",
"189 -196 CURVE",
"189 -436 LINE",
"660 -335 OFFCURVE",
"990 -136 OFFCURVE",
"990 185 CURVE SMOOTH"
);
}
);
width = 1041;
}
);
note = uni021D;
unicode = 021D;
},
{
glyphname = uni0220;
lastChange = "2017-05-24 16:56:05 +0000";
layers = (
{
layerId = "D40DD59D-1539-4674-98F2-408D5EBDB9DF";
paths = (
{
closed = 1;
nodes = (
"1186 1314 OFFCURVE",
"981 1477 OFFCURVE",
"710 1477 CURVE SMOOTH",
"617 1477 OFFCURVE",
"530 1458 OFFCURVE",
"448 1421 CURVE",
"448 1456 LINE",
"111 1456 LINE",
"111 0 LINE",
"448 0 LINE",
"448 1159 LINE",
"518 1198 OFFCURVE",
"588 1218 OFFCURVE",
"659 1218 CURVE SMOOTH",
"784 1218 OFFCURVE",
"847 1157 OFFCURVE",
"847 1034 CURVE SMOOTH",
"847 -417 LINE",
"1186 -417 LINE",
"1186 1034 LINE SMOOTH"
);
}
);
width = 1293;
}
);
note = uni0220;
unicode = 0220;
},
{
glyphname = uni0221;
lastChange = "2017-05-24 16:56:05 +0000";
layers = (
{
layerId = "D40DD59D-1539-4674-98F2-408D5EBDB9DF";
paths = (
{
closed = 1;
nodes = (
"652 1064 OFFCURVE",
"571 1102 OFFCURVE",
"474 1102 CURVE SMOOTH",
"198 1102 OFFCURVE",
"53 878 OFFCURVE",
"53 549 CURVE SMOOTH",
"53 524 LINE SMOOTH",
"54 211 OFFCURVE",
"199 -20 OFFCURVE",
"472 -20 CURVE SMOOTH",
"569 -20 OFFCURVE",
"651 18 OFFCURVE",
"718 94 CURVE",
"718 -3 LINE",
"441 -217 LINE",
"581 -416 LINE",
"768 -267 LINE",
"831 -380 OFFCURVE",
"953 -436 OFFCURVE",
"1136 -436 CURVE SMOOTH",
"1395 -436 OFFCURVE",
"1516 -321 OFFCURVE",
"1516 -152 CURVE SMOOTH",
"1516 17 OFFCURVE",
"1399 126 OFFCURVE",
"1164 126 CURVE",
"1056 121 LINE",
"1056 1536 LINE",
"717 1536 LINE",
"717 989 LINE"
);
},
{
closed = 1;
nodes = (
"390 725 OFFCURVE",
"435 842 OFFCURVE",
"560 842 CURVE SMOOTH",
"635 842 OFFCURVE",
"687 811 OFFCURVE",
"717 748 CURVE",
"717 333 LINE",
"686 271 OFFCURVE",
"633 240 OFFCURVE",
"558 240 CURVE SMOOTH",
"429 240 OFFCURVE",
"390 365 OFFCURVE",
"390 528 CURVE SMOOTH"
);
},
{
closed = 1;
nodes = (
"1081 -94 OFFCURVE",
"1105 -91 OFFCURVE",
"1130 -91 CURVE SMOOTH",
"1195 -91 OFFCURVE",
"1228 -114 OFFCURVE",
"1228 -161 CURVE SMOOTH",
"1228 -216 OFFCURVE",
"1184 -234 OFFCURVE",
"1140 -234 CURVE SMOOTH",
"1084 -234 OFFCURVE",
"1056 -197 OFFCURVE",
"1056 -122 CURVE SMOOTH",
"1056 -100 LINE"
);
}
);
width = 1546;
}
);
leftKerningGroup = c;
note = uni0221;
unicode = 0221;
},
{
glyphname = uni0222;
lastChange = "2017-05-24 16:56:05 +0000";
layers = (
{
layerId = "D40DD59D-1539-4674-98F2-408D5EBDB9DF";
paths = (
{
closed = 1;
nodes = (
"1201 623 OFFCURVE",
"1149 739 OFFCURVE",
"1044 820 CURVE",
"1149 884 OFFCURVE",
"1202 980 OFFCURVE",
"1202 1108 CURVE SMOOTH",
"1202 1363 OFFCURVE",
"1023 1476 OFFCURVE",
"759 1476 CURVE",
"759 1216 LINE",
"815 1201 OFFCURVE",
"846 1179 OFFCURVE",
"846 1108 CURVE SMOOTH",
"846 1008 OFFCURVE",
"795 969 OFFCURVE",
"647 969 CURVE SMOOTH",
"470 969 OFFCURVE",
"428 1008 OFFCURVE",
"428 1108 CURVE SMOOTH",
"428 1179 OFFCURVE",
"458 1201 OFFCURVE",
"514 1216 CURVE",
"514 1476 LINE",
"250 1476 OFFCURVE",
"71 1363 OFFCURVE",
"71 1108 CURVE SMOOTH",
"71 979 OFFCURVE",
"123 882 OFFCURVE",
"228 819 CURVE",
"123 738 OFFCURVE",
"71 621 OFFCURVE",
"71 468 CURVE SMOOTH",
"71 153 OFFCURVE",
"305 -20 OFFCURVE",
"626 -20 CURVE SMOOTH",
"647 -20 LINE SMOOTH",
"968 -20 OFFCURVE",
"1201 154 OFFCURVE",
"1201 470 CURVE SMOOTH"
);
},
{
closed = 1;
nodes = (
"776 694 OFFCURVE",
"844 606 OFFCURVE",
"844 470 CURVE SMOOTH",
"844 333 OFFCURVE",
"776 248 OFFCURVE",
"647 248 CURVE SMOOTH",
"626 248 LINE SMOOTH",
"502 248 OFFCURVE",
"428 335 OFFCURVE",
"428 468 CURVE SMOOTH",
"428 607 OFFCURVE",
"502 694 OFFCURVE",
"626 694 CURVE SMOOTH",
"647 694 LINE SMOOTH"
);
}
);
width = 1273;
}
);
note = uni0222;
unicode = 0222;
},
{
glyphname = uni0223;
lastChange = "2017-05-24 16:56:05 +0000";
layers = (
{
layerId = "D40DD59D-1539-4674-98F2-408D5EBDB9DF";
paths = (
{
closed = 1;
nodes = (
"1164 617 OFFCURVE",
"1112 732 OFFCURVE",
"1008 808 CURVE",
"1113 880 OFFCURVE",
"1165 992 OFFCURVE",
"1165 1144 CURVE SMOOTH",
"1165 1413 OFFCURVE",
"994 1557 OFFCURVE",
"731 1557 CURVE",
"731 1305 LINE",
"795 1280 OFFCURVE",
"827 1224 OFFCURVE",
"827 1137 CURVE SMOOTH",
"827 1005 OFFCURVE",
"775 943 OFFCURVE",
"619 943 CURVE SMOOTH",
"598 943 LINE SMOOTH",
"442 943 OFFCURVE",
"390 1005 OFFCURVE",
"390 1137 CURVE SMOOTH",
"390 1224 OFFCURVE",
"422 1280 OFFCURVE",
"486 1305 CURVE",
"486 1557 LINE",
"225 1557 OFFCURVE",
"53 1413 OFFCURVE",
"53 1144 CURVE SMOOTH",
"53 992 OFFCURVE",
"105 880 OFFCURVE",
"209 808 CURVE",
"105 732 OFFCURVE",
"53 616 OFFCURVE",
"53 461 CURVE SMOOTH",
"53 148 OFFCURVE",
"279 -20 OFFCURVE",
"598 -20 CURVE SMOOTH",
"619 -20 LINE SMOOTH",
"939 -20 OFFCURVE",
"1164 147 OFFCURVE",
"1164 463 CURVE SMOOTH"
);
},
{
closed = 1;
nodes = (
"756 683 OFFCURVE",
"826 595 OFFCURVE",
"826 463 CURVE SMOOTH",
"826 328 OFFCURVE",
"756 240 OFFCURVE",
"619 240 CURVE SMOOTH",
"598 240 LINE SMOOTH",
"466 240 OFFCURVE",
"391 329 OFFCURVE",
"391 461 CURVE SMOOTH",
"391 596 OFFCURVE",
"466 683 OFFCURVE",
"598 683 CURVE SMOOTH",
"619 683 LINE SMOOTH"
);
}
);
width = 1217;
}
);
note = uni0223;
unicode = 0223;
},
{
glyphname = uni0224;
lastChange = "2017-05-24 16:56:05 +0000";
layers = (
{
layerId = "D40DD59D-1539-4674-98F2-408D5EBDB9DF";
paths = (
{
closed = 1;
nodes = (
"67 185 LINE",
"67 0 LINE",
"888 0 LINE SMOOTH",
"1016 0 OFFCURVE",
"1029 -112 OFFCURVE",
"1029 -201 CURVE SMOOTH",
"1029 -226 OFFCURVE",
"1026 -258 OFFCURVE",
"1020 -295 CURVE",
"1302 -295 LINE",
"1313 -247 OFFCURVE",
"1319 -195 OFFCURVE",
"1319 -140 CURVE SMOOTH",
"1319 107 OFFCURVE",
"1170 267 OFFCURVE",
"895 270 CURVE SMOOTH",
"506 270 LINE",
"1194 1276 LINE",
"1194 1456 LINE",
"62 1456 LINE",
"62 1185 LINE",
"762 1185 LINE"
);
}
);
width = 1350;
}
);
note = uni0224;
unicode = 0224;
},
{
glyphname = uni0225;
lastChange = "2017-05-24 16:56:05 +0000";
layers = (
{
layerId = "D40DD59D-1539-4674-98F2-408D5EBDB9DF";
paths = (
{
closed = 1;
nodes = (
"87 1082 LINE",
"87 822 LINE",
"546 822 LINE",
"67 188 LINE",
"67 0 LINE",
"735 0 LINE SMOOTH",
"863 0 OFFCURVE",
"891 -112 OFFCURVE",
"891 -201 CURVE SMOOTH",
"891 -226 OFFCURVE",
"888 -258 OFFCURVE",
"882 -295 CURVE",
"1149 -295 LINE",
"1160 -247 OFFCURVE",
"1166 -195 OFFCURVE",
"1166 -140 CURVE SMOOTH",
"1166 108 OFFCURVE",
"1015 259 OFFCURVE",
"739 260 CURVE SMOOTH",
"494 260 LINE",
"975 900 LINE",
"975 1082 LINE"
);
}
);
width = 1194;
}
);
note = uni0225;
unicode = 0225;
},
{
glyphname = uni0234;
lastChange = "2017-05-24 16:56:05 +0000";
layers = (
{
layerId = "D40DD59D-1539-4674-98F2-408D5EBDB9DF";
paths = (
{
closed = 1;
nodes = (
"298 0 LINE",
"298 -2 LINE",
"20 -217 LINE",
"161 -416 LINE",
"348 -267 LINE",
"409 -380 OFFCURVE",
"532 -436 OFFCURVE",
"715 -436 CURVE SMOOTH",
"975 -436 OFFCURVE",
"1095 -321 OFFCURVE",
"1095 -152 CURVE SMOOTH",
"1095 17 OFFCURVE",
"976 126 OFFCURVE",
"743 126 CURVE",
"635 121 LINE",
"635 1536 LINE",
"296 1536 LINE",
"296 0 LINE"
);
},
{
closed = 1;
nodes = (
"660 -94 OFFCURVE",
"684 -91 OFFCURVE",
"709 -91 CURVE SMOOTH",
"775 -91 OFFCURVE",
"808 -114 OFFCURVE",
"808 -161 CURVE SMOOTH",
"808 -216 OFFCURVE",
"763 -234 OFFCURVE",
"719 -234 CURVE SMOOTH",
"663 -234 OFFCURVE",
"635 -197 OFFCURVE",
"635 -122 CURVE SMOOTH",
"635 -100 LINE"
);
}
);
width = 1125;
}
);
note = uni0234;
unicode = 0234;
},
{
glyphname = uni0235;
lastChange = "2017-05-24 16:56:05 +0000";
layers = (
{
layerId = "D40DD59D-1539-4674-98F2-408D5EBDB9DF";
paths = (
{
closed = 1;
nodes = (
"594 1102 OFFCURVE",
"491 1053 OFFCURVE",
"416 956 CURVE",
"405 1082 LINE",
"89 1082 LINE",
"89 0 LINE",
"426 0 LINE",
"426 765 LINE",
"457 816 OFFCURVE",
"506 842 OFFCURVE",
"572 842 CURVE SMOOTH",
"669 842 OFFCURVE",
"725 813 OFFCURVE",
"725 682 CURVE SMOOTH",
"725 -4 LINE",
"449 -217 LINE",
"589 -416 LINE",
"776 -268 LINE",
"839 -380 OFFCURVE",
"962 -436 OFFCURVE",
"1144 -436 CURVE SMOOTH",
"1403 -436 OFFCURVE",
"1524 -321 OFFCURVE",
"1524 -152 CURVE SMOOTH",
"1524 17 OFFCURVE",
"1407 126 OFFCURVE",
"1172 126 CURVE",
"1064 121 LINE",
"1064 686 LINE",
"1063 995 OFFCURVE",
"924 1102 OFFCURVE",
"724 1102 CURVE SMOOTH"
);
},
{
closed = 1;
nodes = (
"1089 -94 OFFCURVE",
"1113 -91 OFFCURVE",
"1138 -91 CURVE SMOOTH",
"1203 -91 OFFCURVE",
"1236 -114 OFFCURVE",
"1236 -161 CURVE SMOOTH",
"1236 -216 OFFCURVE",
"1192 -234 OFFCURVE",
"1148 -234 CURVE SMOOTH",
"1092 -234 OFFCURVE",
"1064 -197 OFFCURVE",
"1064 -122 CURVE SMOOTH",
"1064 -100 LINE"
);
}
);
width = 1554;
}
);
leftKerningGroup = m;
note = uni0235;
unicode = 0235;
},
{
glyphname = uni0236;
lastChange = "2017-05-24 16:56:05 +0000";
layers = (
{
layerId = "D40DD59D-1539-4674-98F2-408D5EBDB9DF";
paths = (
{
closed = 1;
nodes = (
"1095 433 OFFCURVE",
"976 542 OFFCURVE",
"743 542 CURVE",
"635 537 LINE",
"635 848 LINE",
"813 848 LINE",
"813 1082 LINE",
"635 1082 LINE",
"635 1351 LINE",
"298 1351 LINE",
"298 1082 LINE",
"160 1082 LINE",
"160 848 LINE",
"298 848 LINE",
"298 414 LINE",
"20 199 LINE",
"161 0 LINE",
"348 149 LINE",
"409 36 OFFCURVE",
"532 -20 OFFCURVE",
"715 -20 CURVE SMOOTH",
"975 -20 OFFCURVE",
"1095 95 OFFCURVE",
"1095 264 CURVE SMOOTH"
);
},
{
closed = 1;
nodes = (
"660 322 OFFCURVE",
"684 325 OFFCURVE",
"709 325 CURVE SMOOTH",
"775 325 OFFCURVE",
"808 302 OFFCURVE",
"808 255 CURVE SMOOTH",
"808 200 OFFCURVE",
"763 182 OFFCURVE",
"719 182 CURVE SMOOTH",
"663 182 OFFCURVE",
"635 219 OFFCURVE",
"635 294 CURVE SMOOTH",
"635 316 LINE"
);
}
);
width = 1125;
}
);
note = uni0236;
unicode = 0236;
},
{
glyphname = uni0237;
lastChange = "2017-05-24 16:56:05 +0000";
layers = (
{
layerId = "D40DD59D-1539-4674-98F2-408D5EBDB9DF";
paths = (
{
closed = 1;
nodes = (
"140 -123 OFFCURVE",
"100 -177 OFFCURVE",
"21 -177 CURVE SMOOTH",
"-10 -177 OFFCURVE",
"-43 -173 OFFCURVE",
"-78 -165 CURVE",
"-93 -420 LINE",
"-43 -431 OFFCURVE",
"11 -437 OFFCURVE",
"68 -437 CURVE SMOOTH",
"321 -437 OFFCURVE",
"477 -288 OFFCURVE",
"477 -15 CURVE SMOOTH",
"477 1082 LINE",
"140 1082 LINE",
"140 -15 LINE SMOOTH"
);
}
);
width = 605;
}
);
note = uni0237;
unicode = 0237;
},
{
glyphname = uni0238;
lastChange = "2017-05-24 16:56:05 +0000";
layers = (
{
layerId = "D40DD59D-1539-4674-98F2-408D5EBDB9DF";
paths = (
{
closed = 1;
nodes = (
"1770 870 OFFCURVE",
"1638 1102 OFFCURVE",
"1349 1102 CURVE SMOOTH",
"1251 1102 OFFCURVE",
"1170 1066 OFFCURVE",
"1106 995 CURVE",
"1106 1536 LINE",
"768 1536 LINE",
"768 988 LINE",
"703 1064 OFFCURVE",
"621 1102 OFFCURVE",
"524 1102 CURVE SMOOTH",
"248 1102 OFFCURVE",
"103 878 OFFCURVE",
"103 549 CURVE SMOOTH",
"103 524 LINE SMOOTH",
"104 211 OFFCURVE",
"249 -20 OFFCURVE",
"522 -20 CURVE SMOOTH",
"629 -20 OFFCURVE",
"717 26 OFFCURVE",
"787 117 CURVE",
"803 0 LINE",
"1106 0 LINE",
"1106 87 LINE",
"1170 16 OFFCURVE",
"1252 -20 OFFCURVE",
"1351 -20 CURVE SMOOTH",
"1639 -20 OFFCURVE",
"1770 205 OFFCURVE",
"1770 532 CURVE SMOOTH",
"1770 553 LINE SMOOTH"
);
},
{
closed = 1;
nodes = (
"1405 842 OFFCURVE",
"1433 710 OFFCURVE",
"1433 553 CURVE SMOOTH",
"1433 340 OFFCURVE",
"1407 239 OFFCURVE",
"1266 239 CURVE SMOOTH",
"1188 239 OFFCURVE",
"1135 268 OFFCURVE",
"1106 326 CURVE",
"1106 755 LINE",
"1135 813 OFFCURVE",
"1187 842 OFFCURVE",
"1264 842 CURVE SMOOTH"
);
},
{
closed = 1;
nodes = (
"441 725 OFFCURVE",
"485 842 OFFCURVE",
"610 842 CURVE SMOOTH",
"685 842 OFFCURVE",
"738 810 OFFCURVE",
"768 746 CURVE",
"768 334 LINE",
"737 271 OFFCURVE",
"683 240 OFFCURVE",
"608 240 CURVE SMOOTH",
"480 240 OFFCURVE",
"441 365 OFFCURVE",
"441 528 CURVE SMOOTH"
);
}
);
width = 1874;
}
);
note = uni0238;
rightKerningGroup = b;
unicode = 0238;
},
{
glyphname = uni0239;
lastChange = "2017-05-24 16:56:05 +0000";
layers = (
{
layerId = "D40DD59D-1539-4674-98F2-408D5EBDB9DF";
paths = (
{
closed = 1;
nodes = (
"1575 -20 OFFCURVE",
"1720 218 OFFCURVE",
"1720 533 CURVE SMOOTH",
"1720 554 LINE SMOOTH",
"1720 883 OFFCURVE",
"1573 1102 OFFCURVE",
"1298 1102 CURVE SMOOTH",
"1193 1102 OFFCURVE",
"1109 1062 OFFCURVE",
"1044 983 CURVE",
"1033 1082 LINE",
"764 1082 LINE",
"740 966 LINE",
"673 1057 OFFCURVE",
"584 1102 OFFCURVE",
"473 1102 CURVE SMOOTH",
"200 1102 OFFCURVE",
"53 881 OFFCURVE",
"53 552 CURVE SMOOTH",
"53 527 LINE SMOOTH",
"54 214 OFFCURVE",
"200 -20 OFFCURVE",
"471 -20 CURVE SMOOTH",
"572 -20 OFFCURVE",
"654 17 OFFCURVE",
"717 90 CURVE",
"717 -416 LINE",
"1056 -416 LINE",
"1056 88 LINE",
"1121 16 OFFCURVE",
"1202 -20 OFFCURVE",
"1300 -20 CURVE SMOOTH"
);
},
{
closed = 1;
nodes = (
"390 728 OFFCURVE",
"432 842 OFFCURVE",
"559 842 CURVE SMOOTH",
"636 842 OFFCURVE",
"689 813 OFFCURVE",
"717 756 CURVE",
"717 327 LINE",
"688 269 OFFCURVE",
"634 240 OFFCURVE",
"557 240 CURVE SMOOTH",
"429 240 OFFCURVE",
"390 370 OFFCURVE",
"390 531 CURVE SMOOTH"
);
},
{
closed = 1;
nodes = (
"1340 842 OFFCURVE",
"1383 722 OFFCURVE",
"1383 554 CURVE SMOOTH",
"1383 363 OFFCURVE",
"1344 240 OFFCURVE",
"1217 240 CURVE SMOOTH",
"1140 240 OFFCURVE",
"1086 269 OFFCURVE",
"1056 327 CURVE",
"1056 757 LINE",
"1084 814 OFFCURVE",
"1137 842 OFFCURVE",
"1215 842 CURVE SMOOTH"
);
}
);
width = 1773;
}
);
note = uni0239;
rightKerningGroup = b;
unicode = 0239;
},
{
glyphname = uni023A;
lastChange = "2017-05-24 16:56:05 +0000";
layers = (
{
layerId = "D40DD59D-1539-4674-98F2-408D5EBDB9DF";
paths = (
{
closed = 1;
nodes = (
"185 0 LINE",
"373 0 LINE",
"457 272 LINE",
"938 272 LINE",
"1022 0 LINE",
"1400 0 LINE",
"1034 990 LINE",
"1455 1481 LINE",
"1238 1481 LINE",
"969 1167 LINE",
"862 1456 LINE",
"531 1456 LINE",
"17 57 LINE",
"-225 -225 LINE",
"-8 -225 LINE"
);
},
{
closed = 1;
nodes = (
"601 738 LINE",
"697 1050 LINE",
"742 903 LINE"
);
},
{
closed = 1;
nodes = (
"854 543 LINE",
"651 543 LINE",
"800 717 LINE"
);
}
);
width = 1395;
}
);
note = uni023A;
unicode = 023A;
},
{
glyphname = uni023B;
lastChange = "2017-05-24 16:56:05 +0000";
layers = (
{
layerId = "D40DD59D-1539-4674-98F2-408D5EBDB9DF";
paths = (
{
closed = 1;
nodes = (
"1046 -20 OFFCURVE",
"1274 188 OFFCURVE",
"1289 493 CURVE",
"939 493 LINE",
"934 334 OFFCURVE",
"850 255 OFFCURVE",
"687 255 CURVE SMOOTH",
"654 255 OFFCURVE",
"625 259 OFFCURVE",
"599 266 CURVE",
"876 1143 LINE",
"917 1104 OFFCURVE",
"938 1040 OFFCURVE",
"941 953 CURVE",
"1291 953 LINE",
"1272 1169 OFFCURVE",
"1164 1343 OFFCURVE",
"965 1426 CURVE",
"1014 1581 LINE",
"827 1581 LINE",
"792 1470 LINE",
"757 1475 OFFCURVE",
"720 1477 OFFCURVE",
"682 1477 CURVE SMOOTH",
"313 1477 OFFCURVE",
"70 1206 OFFCURVE",
"70 767 CURVE SMOOTH",
"70 670 LINE SMOOTH",
"74 384 OFFCURVE",
"167 184 OFFCURVE",
"350 69 CURVE",
"289 -125 LINE",
"476 -125 LINE",
"515 0 LINE",
"569 -13 OFFCURVE",
"626 -20 OFFCURVE",
"687 -20 CURVE SMOOTH"
);
},
{
closed = 1;
nodes = (
"427 1081 OFFCURVE",
"510 1202 OFFCURVE",
"682 1202 CURVE",
"707 1201 LINE",
"459 413 LINE",
"437 478 OFFCURVE",
"426 569 OFFCURVE",
"426 688 CURVE SMOOTH",
"426 777 LINE SMOOTH"
);
}
);
width = 1344;
}
);
note = uni023B;
unicode = 023B;
},
{
glyphname = uni023C;
lastChange = "2017-05-24 16:56:05 +0000";
layers = (
{
layerId = "D40DD59D-1539-4674-98F2-408D5EBDB9DF";
paths = (
{
closed = 1;
nodes = (
"820 -20 OFFCURVE",
"1018 142 OFFCURVE",
"1017 386 CURVE",
"700 386 LINE",
"702 289 OFFCURVE",
"653 240 OFFCURVE",
"552 240 CURVE",
"534 241 LINE",
"690 742 LINE",
"697 719 OFFCURVE",
"701 695 OFFCURVE",
"700 668 CURVE",
"1017 668 LINE",
"1018 856 OFFCURVE",
"930 990 OFFCURVE",
"787 1055 CURVE",
"912 1456 LINE",
"725 1456 LINE",
"614 1100 LINE",
"558 1102 LINE",
"222 1102 OFFCURVE",
"53 865 OFFCURVE",
"53 552 CURVE SMOOTH",
"53 307 OFFCURVE",
"131 139 OFFCURVE",
"287 47 CURVE",
"143 -417 LINE",
"330 -417 LINE",
"456 -12 LINE",
"489 -17 OFFCURVE",
"524 -20 OFFCURVE",
"560 -20 CURVE SMOOTH"
);
},
{
closed = 1;
nodes = (
"390 720 OFFCURVE",
"413 832 OFFCURVE",
"534 841 CURVE",
"397 402 LINE",
"392 436 OFFCURVE",
"390 478 OFFCURVE",
"390 529 CURVE SMOOTH"
);
}
);
width = 1065;
}
);
note = uni023C;
unicode = 023C;
},
{
glyphname = uni023E;
lastChange = "2017-05-24 16:56:05 +0000";
layers = (
{
layerId = "D40DD59D-1539-4674-98F2-408D5EBDB9DF";
paths = (
{
closed = 1;
nodes = (
"465 336 LINE",
"236 -125 LINE",
"423 -125 LINE",
"485 0 LINE",
"816 0 LINE",
"816 668 LINE",
"1073 1185 LINE",
"1254 1185 LINE",
"1254 1456 LINE",
"1207 1456 LINE",
"1269 1581 LINE",
"1083 1581 LINE",
"1021 1456 LINE",
"37 1456 LINE",
"37 1185 LINE",
"465 1185 LINE"
);
},
{
closed = 1;
nodes = (
"816 1043 LINE",
"816 1185 LINE",
"886 1185 LINE"
);
}
);
width = 1292;
}
);
note = uni023E;
unicode = 023E;
},
{
glyphname = uni023F;
lastChange = "2017-05-24 16:56:05 +0000";
layers = (
{
layerId = "D40DD59D-1539-4674-98F2-408D5EBDB9DF";
paths = (
{
closed = 1;
nodes = (
"651 237 OFFCURVE",
"605 203 OFFCURVE",
"513 203 CURVE SMOOTH",
"410 203 OFFCURVE",
"374 239 OFFCURVE",
"349 347 CURVE",
"36 228 LINE",
"229 -147 LINE SMOOTH",
"302 -290 OFFCURVE",
"408 -436 OFFCURVE",
"607 -436 CURVE SMOOTH",
"750 -436 OFFCURVE",
"842 -364 OFFCURVE",
"921 -300 CURVE",
"808 -114 LINE",
"764 -151 OFFCURVE",
"689 -194 OFFCURVE",
"620 -194 CURVE SMOOTH",
"536 -194 OFFCURVE",
"493 -91 OFFCURVE",
"462 -15 CURVE",
"475 -18 OFFCURVE",
"489 -20 OFFCURVE",
"504 -20 CURVE SMOOTH",
"795 -20 OFFCURVE",
"976 123 OFFCURVE",
"976 314 CURVE SMOOTH",
"976 510 OFFCURVE",
"843 605 OFFCURVE",
"584 654 CURVE SMOOTH",
"480 674 OFFCURVE",
"378 698 OFFCURVE",
"378 777 CURVE SMOOTH",
"378 840 OFFCURVE",
"434 880 OFFCURVE",
"503 880 CURVE SMOOTH",
"595 880 OFFCURVE",
"641 837 OFFCURVE",
"641 750 CURVE",
"978 750 LINE",
"978 958 OFFCURVE",
"796 1102 OFFCURVE",
"504 1102 CURVE SMOOTH",
"221 1102 OFFCURVE",
"59 943 OFFCURVE",
"59 760 CURVE SMOOTH",
"59 564 OFFCURVE",
"248 467 OFFCURVE",
"436 427 CURVE SMOOTH",
"529 407 OFFCURVE",
"589 387 OFFCURVE",
"614 368 CURVE SMOOTH",
"639 349 OFFCURVE",
"651 327 OFFCURVE",
"651 304 CURVE SMOOTH"
);
}
);
width = 1040;
}
);
leftKerningGroup = s;
note = uni023F;
unicode = 023F;
},
{
glyphname = uni0240;
lastChange = "2017-05-24 16:56:05 +0000";
layers = (
{
layerId = "D40DD59D-1539-4674-98F2-408D5EBDB9DF";
paths = (
{
closed = 1;
nodes = (
"67 188 LINE",
"67 0 LINE",
"456 0 LINE SMOOTH",
"581 -1 OFFCURVE",
"645 -103 OFFCURVE",
"713 -218 CURVE SMOOTH",
"781 -333 OFFCURVE",
"871 -436 OFFCURVE",
"1048 -436 CURVE SMOOTH",
"1177 -436 OFFCURVE",
"1289 -367 OFFCURVE",
"1364 -300 CURVE",
"1251 -114 LINE",
"1220 -142 OFFCURVE",
"1150 -194 OFFCURVE",
"1087 -194 CURVE SMOOTH",
"996 -194 OFFCURVE",
"941 -89 OFFCURVE",
"873 32 CURVE SMOOTH",
"805 153 OFFCURVE",
"711 260 OFFCURVE",
"539 260 CURVE SMOOTH",
"494 260 LINE",
"975 900 LINE",
"975 1082 LINE",
"87 1082 LINE",
"87 822 LINE",
"546 822 LINE"
);
}
);
width = 1335;
}
);
leftKerningGroup = z;
note = uni0240;
unicode = 0240;
},
{
glyphname = uni0241;
lastChange = "2017-05-24 16:56:05 +0000";
layers = (
{
layerId = "D40DD59D-1539-4674-98F2-408D5EBDB9DF";
paths = (
{
closed = 1;
nodes = (
"712 281 LINE",
"924 356 OFFCURVE",
"1039 554 OFFCURVE",
"1039 798 CURVE SMOOTH",
"1039 926 LINE SMOOTH",
"1039 1239 OFFCURVE",
"850 1476 OFFCURVE",
"514 1476 CURVE SMOOTH",
"245 1476 OFFCURVE",
"35 1303 OFFCURVE",
"36 1028 CURVE",
"372 1028 LINE",
"369 1125 OFFCURVE",
"419 1202 OFFCURVE",
"522 1202 CURVE SMOOTH",
"661 1202 OFFCURVE",
"682 1067 OFFCURVE",
"682 926 CURVE SMOOTH",
"682 798 LINE SMOOTH",
"682 651 OFFCURVE",
"661 523 OFFCURVE",
"520 523 CURVE SMOOTH",
"361 523 LINE",
"361 0 LINE",
"712 0 LINE"
);
}
);
width = 1061;
}
);
note = uni0241;
unicode = 0241;
},
{
glyphname = uni0242;
lastChange = "2017-05-24 16:56:05 +0000";
layers = (
{
layerId = "D40DD59D-1539-4674-98F2-408D5EBDB9DF";
paths = (
{
closed = 1;
nodes = (
"731 332 LINE",
"902 363 OFFCURVE",
"1024 480 OFFCURVE",
"1024 687 CURVE SMOOTH",
"1024 906 OFFCURVE",
"892 1102 OFFCURVE",
"556 1102 CURVE SMOOTH",
"264 1102 OFFCURVE",
"101 913 OFFCURVE",
"101 686 CURVE",
"438 686 LINE",
"438 790 OFFCURVE",
"477 842 OFFCURVE",
"556 842 CURVE SMOOTH",
"664 842 OFFCURVE",
"687 767 OFFCURVE",
"687 680 CURVE SMOOTH",
"687 591 OFFCURVE",
"657 497 OFFCURVE",
"514 497 CURVE SMOOTH",
"394 497 LINE",
"394 0 LINE",
"731 0 LINE"
);
}
);
width = 1070;
}
);
note = uni0242;
unicode = 0242;
},
{
glyphname = uni0244;
lastChange = "2017-05-24 16:56:05 +0000";
layers = (
{
layerId = "D40DD59D-1539-4674-98F2-408D5EBDB9DF";
paths = (
{
closed = 1;
nodes = (
"1151 -20 OFFCURVE",
"1374 162 OFFCURVE",
"1378 495 CURVE SMOOTH",
"1378 651 LINE",
"1570 651 LINE",
"1570 842 LINE",
"1378 842 LINE",
"1378 1456 LINE",
"1027 1456 LINE",
"1027 842 LINE",
"584 842 LINE",
"584 1456 LINE",
"231 1456 LINE",
"231 842 LINE",
"41 842 LINE",
"41 651 LINE",
"231 651 LINE",
"231 505 LINE SMOOTH",
"231 164 OFFCURVE",
"464 -20 OFFCURVE",
"807 -20 CURVE SMOOTH"
);
},
{
closed = 1;
nodes = (
"1027 651 LINE",
"1027 505 LINE SMOOTH",
"1027 325 OFFCURVE",
"951 250 OFFCURVE",
"807 250 CURVE SMOOTH",
"663 250 OFFCURVE",
"584 325 OFFCURVE",
"584 505 CURVE SMOOTH",
"584 651 LINE"
);
}
);
width = 1611;
}
);
note = uni0244;
unicode = 0244;
},
{
glyphname = uni0245;
lastChange = "2017-05-24 16:56:05 +0000";
layers = (
{
layerId = "D40DD59D-1539-4674-98F2-408D5EBDB9DF";
paths = (
{
closed = 1;
nodes = (
"676 1062 LINE",
"966 0 LINE",
"1358 0 LINE",
"867 1456 LINE",
"484 1456 LINE",
"-3 0 LINE",
"387 0 LINE"
);
}
);
width = 1355;
}
);
leftKerningGroup = A;
note = uni0245;
rightKerningGroup = A;
unicode = 0245;
},
{
glyphname = uni0246;
lastChange = "2017-05-24 16:56:05 +0000";
layers = (
{
layerId = "D40DD59D-1539-4674-98F2-408D5EBDB9DF";
paths = (
{
closed = 1;
nodes = (
"370 -125 LINE",
"558 -125 LINE",
"596 0 LINE",
"1113 0 LINE",
"1113 270 LINE",
"678 270 LINE",
"783 617 LINE",
"1013 617 LINE",
"1013 878 LINE",
"862 878 LINE",
"955 1185 LINE",
"1116 1185 LINE",
"1116 1456 LINE",
"1037 1456 LINE",
"1075 1581 LINE",
"888 1581 LINE",
"850 1456 LINE",
"111 1456 LINE",
"111 0 LINE",
"408 0 LINE"
);
},
{
closed = 1;
nodes = (
"768 1185 LINE",
"675 878 LINE",
"462 878 LINE",
"462 1185 LINE"
);
},
{
closed = 1;
nodes = (
"595 617 LINE",
"490 270 LINE",
"462 270 LINE",
"462 617 LINE"
);
}
);
width = 1146;
}
);
note = uni0246;
unicode = 0246;
},
{
glyphname = uni0247;
lastChange = "2017-05-24 16:56:05 +0000";
layers = (
{
layerId = "D40DD59D-1539-4674-98F2-408D5EBDB9DF";
paths = (
{
closed = 1;
nodes = (
"827 -20 OFFCURVE",
"978 75 OFFCURVE",
"1045 170 CURVE",
"892 352 LINE",
"825 272 OFFCURVE",
"726 240 OFFCURVE",
"630 240 CURVE",
"574 244 LINE",
"633 435 LINE",
"1074 435 LINE",
"1074 583 LINE",
"1071 811 OFFCURVE",
"988 966 OFFCURVE",
"824 1049 CURVE",
"950 1456 LINE",
"762 1456 LINE",
"651 1098 LINE",
"583 1102 LINE",
"236 1102 OFFCURVE",
"61 859 OFFCURVE",
"61 543 CURVE SMOOTH",
"61 505 LINE SMOOTH",
"61 313 OFFCURVE",
"155 141 OFFCURVE",
"324 49 CURVE",
"179 -417 LINE",
"369 -417 LINE",
"495 -9 LINE",
"535 -16 OFFCURVE",
"576 -20 OFFCURVE",
"619 -20 CURVE SMOOTH"
);
},
{
closed = 1;
nodes = (
"371 747 OFFCURVE",
"426 842 OFFCURVE",
"571 842 CURVE",
"510 646 LINE",
"366 646 LINE"
);
},
{
closed = 1;
nodes = (
"699 646 LINE",
"737 771 LINE",
"757 744 OFFCURVE",
"767 711 OFFCURVE",
"767 672 CURVE SMOOTH",
"767 646 LINE"
);
},
{
closed = 1;
nodes = (
"410 324 LINE",
"383 355 OFFCURVE",
"368 392 OFFCURVE",
"366 435 CURVE",
"444 435 LINE"
);
}
);
width = 1116;
}
);
note = uni0247;
unicode = 0247;
},
{
glyphname = uni024A;
lastChange = "2017-05-24 16:56:05 +0000";
layers = (
{
layerId = "D40DD59D-1539-4674-98F2-408D5EBDB9DF";
paths = (
{
closed = 1;
nodes = (
"939 1461 OFFCURVE",
"834 1476 OFFCURVE",
"718 1476 CURVE SMOOTH",
"343 1476 OFFCURVE",
"70 1211 OFFCURVE",
"70 770 CURVE SMOOTH",
"70 686 LINE SMOOTH",
"70 533 OFFCURVE",
"99 405 OFFCURVE",
"158 300 CURVE SMOOTH",
"275 90 OFFCURVE",
"481 -20 OFFCURVE",
"718 -20 CURVE SMOOTH",
"799 -20 OFFCURVE",
"876 -12 OFFCURVE",
"948 3 CURVE",
"948 -15 LINE SMOOTH",
"948 -106 OFFCURVE",
"971 -183 OFFCURVE",
"1017 -246 CURVE SMOOTH",
"1109 -371 OFFCURVE",
"1266 -437 OFFCURVE",
"1433 -437 CURVE SMOOTH",
"1489 -437 OFFCURVE",
"1542 -431 OFFCURVE",
"1593 -420 CURVE",
"1593 -151 LINE",
"1554 -157 OFFCURVE",
"1521 -160 OFFCURVE",
"1495 -160 CURVE SMOOTH",
"1408 -160 OFFCURVE",
"1297 -134 OFFCURVE",
"1297 -15 CURVE SMOOTH",
"1297 1456 LINE",
"1038 1456 LINE",
"1032 1430 LINE"
);
},
{
closed = 1;
nodes = (
"860 1202 OFFCURVE",
"919 1165 OFFCURVE",
"948 1137 CURVE",
"948 319 LINE",
"919 291 OFFCURVE",
"860 254 OFFCURVE",
"740 254 CURVE SMOOTH",
"531 254 OFFCURVE",
"427 398 OFFCURVE",
"427 686 CURVE SMOOTH",
"427 791 LINE SMOOTH",
"432 1065 OFFCURVE",
"537 1202 OFFCURVE",
"740 1202 CURVE SMOOTH"
);
}
);
width = 1603;
}
);
leftKerningGroup = C;
note = uni024A;
unicode = 024A;
},
{
glyphname = uni024B;
lastChange = "2017-05-24 16:56:05 +0000";
layers = (
{
layerId = "D40DD59D-1539-4674-98F2-408D5EBDB9DF";
paths = (
{
closed = 1;
nodes = (
"673 1057 OFFCURVE",
"584 1102 OFFCURVE",
"473 1102 CURVE SMOOTH",
"200 1102 OFFCURVE",
"53 881 OFFCURVE",
"53 552 CURVE SMOOTH",
"53 527 LINE SMOOTH",
"54 214 OFFCURVE",
"200 -20 OFFCURVE",
"471 -20 CURVE SMOOTH",
"572 -20 OFFCURVE",
"654 17 OFFCURVE",
"717 90 CURVE",
"717 -77 LINE SMOOTH",
"717 -184 OFFCURVE",
"740 -263 OFFCURVE",
"785 -314 CURVE SMOOTH",
"875 -416 OFFCURVE",
"1015 -436 OFFCURVE",
"1132 -436 CURVE SMOOTH",
"1203 -436 OFFCURVE",
"1262 -431 OFFCURVE",
"1311 -421 CURVE",
"1311 -205 LINE",
"1277 -210 OFFCURVE",
"1249 -212 OFFCURVE",
"1228 -212 CURVE SMOOTH",
"1153 -212 OFFCURVE",
"1056 -188 OFFCURVE",
"1056 -77 CURVE SMOOTH",
"1056 1082 LINE",
"764 1082 LINE",
"740 966 LINE"
);
},
{
closed = 1;
nodes = (
"390 728 OFFCURVE",
"432 842 OFFCURVE",
"559 842 CURVE SMOOTH",
"636 842 OFFCURVE",
"689 813 OFFCURVE",
"717 756 CURVE",
"717 327 LINE",
"688 269 OFFCURVE",
"634 240 OFFCURVE",
"557 240 CURVE SMOOTH",
"429 240 OFFCURVE",
"390 370 OFFCURVE",
"390 531 CURVE SMOOTH"
);
}
);
width = 1313;
}
);
leftKerningGroup = c;
note = uni024B;
unicode = 024B;
},
{
glyphname = uni024C;
lastChange = "2017-05-24 16:56:05 +0000";
layers = (
{
layerId = "D40DD59D-1539-4674-98F2-408D5EBDB9DF";
paths = (
{
closed = 1;
nodes = (
"1353 15 LINE",
"1050 602 LINE",
"1203 675 OFFCURVE",
"1304 792 OFFCURVE",
"1304 1016 CURVE SMOOTH",
"1304 1303 OFFCURVE",
"1089 1456 OFFCURVE",
"753 1456 CURVE SMOOTH",
"180 1456 LINE",
"180 785 LINE",
"18 785 LINE",
"18 514 LINE",
"180 514 LINE",
"180 0 LINE",
"531 0 LINE",
"531 514 LINE",
"720 514 LINE",
"977 0 LINE",
"1353 0 LINE"
);
},
{
closed = 1;
nodes = (
"888 1183 OFFCURVE",
"953 1116 OFFCURVE",
"953 984 CURVE SMOOTH",
"953 851 OFFCURVE",
"886 785 OFFCURVE",
"753 785 CURVE SMOOTH",
"531 785 LINE",
"531 1185 LINE",
"759 1185 LINE SMOOTH"
);
}
);
width = 1405;
}
);
note = uni024C;
unicode = 024C;
},
{
glyphname = uni024E;
lastChange = "2017-05-24 16:56:05 +0000";
layers = (
{
layerId = "D40DD59D-1539-4674-98F2-408D5EBDB9DF";
paths = (
{
closed = 1;
nodes = (
"1474 1008 LINE",
"1474 1179 LINE",
"1266 1179 LINE",
"1405 1456 LINE",
"1026 1456 LINE",
"909 1179 LINE",
"607 1179 LINE",
"490 1456 LINE",
"111 1456 LINE",
"250 1179 LINE",
"41 1179 LINE",
"41 1008 LINE",
"336 1008 LINE",
"580 523 LINE",
"580 0 LINE",
"936 0 LINE",
"936 523 LINE",
"1180 1008 LINE"
);
},
{
closed = 1;
nodes = (
"836 1008 LINE",
"758 824 LINE",
"680 1008 LINE"
);
}
);
width = 1515;
}
);
leftKerningGroup = Y;
note = uni024E;
rightKerningGroup = Y;
unicode = 024E;
},
{
glyphname = uni024F;
lastChange = "2017-05-24 16:56:05 +0000";
layers = (
{
layerId = "D40DD59D-1539-4674-98F2-408D5EBDB9DF";
paths = (
{
closed = 1;
nodes = (
"449 -437 OFFCURVE",
"514 -421 OFFCURVE",
"561 -390 CURVE SMOOTH",
"656 -328 OFFCURVE",
"699 -234 OFFCURVE",
"724 -161 CURVE SMOOTH",
"984 584 LINE",
"1190 584 LINE",
"1190 745 LINE",
"1040 745 LINE",
"1158 1082 LINE",
"797 1082 LINE",
"698 745 LINE",
"541 745 LINE",
"446 1082 LINE",
"85 1082 LINE",
"201 745 LINE",
"41 745 LINE",
"41 584 LINE",
"257 584 LINE",
"462 -10 LINE",
"434 -82 LINE",
"414 -143 OFFCURVE",
"378 -176 OFFCURVE",
"270 -176 CURVE SMOOTH",
"226 -176 LINE",
"226 -417 LINE",
"302 -434 LINE",
"366 -437 LINE"
);
},
{
closed = 1;
nodes = (
"618 472 LINE",
"586 584 LINE",
"650 584 LINE"
);
}
);
width = 1231;
}
);
note = uni024F;
unicode = 024F;
},
{
glyphname = uni0250;
lastChange = "2017-05-24 16:56:05 +0000";
layers = (
{
layerId = "D40DD59D-1539-4674-98F2-408D5EBDB9DF";
paths = (
{
closed = 1;
nodes = (
"679 254 OFFCURVE",
"639 215 OFFCURVE",
"560 215 CURVE SMOOTH",
"473 215 OFFCURVE",
"430 265 OFFCURVE",
"430 364 CURVE SMOOTH",
"430 421 LINE",
"534 421 LINE SMOOTH",
"882 421 OFFCURVE",
"1042 554 OFFCURVE",
"1042 777 CURVE SMOOTH",
"1042 969 OFFCURVE",
"875 1102 OFFCURVE",
"675 1102 CURVE SMOOTH",
"564 1102 OFFCURVE",
"478 1063 OFFCURVE",
"415 984 CURVE",
"407 1023 OFFCURVE",
"397 1056 OFFCURVE",
"384 1082 CURVE",
"46 1082 LINE",
"46 1065 LINE",
"75 1011 OFFCURVE",
"91 935 OFFCURVE",
"92 837 CURVE SMOOTH",
"92 366 LINE SMOOTH",
"92 109 OFFCURVE",
"285 -20 OFFCURVE",
"542 -20 CURVE SMOOTH",
"831 -20 OFFCURVE",
"1017 132 OFFCURVE",
"1017 333 CURVE",
"679 333 LINE"
);
},
{
closed = 1;
nodes = (
"658 862 OFFCURVE",
"705 820 OFFCURVE",
"705 759 CURVE SMOOTH",
"705 678 OFFCURVE",
"663 601 OFFCURVE",
"536 601 CURVE SMOOTH",
"430 601 LINE",
"430 774 LINE",
"454 819 OFFCURVE",
"511 862 OFFCURVE",
"595 862 CURVE SMOOTH"
);
}
);
width = 1088;
}
);
note = uni0250;
unicode = 0250;
},
{
glyphname = uni0251;
lastChange = "2017-05-24 16:56:05 +0000";
layers = (
{
layerId = "D40DD59D-1539-4674-98F2-408D5EBDB9DF";
paths = (
{
closed = 1;
nodes = (
"1123 242 OFFCURVE",
"1118 241 OFFCURVE",
"1111 241 CURVE SMOOTH",
"1066 241 OFFCURVE",
"1043 279 OFFCURVE",
"1041 354 CURVE",
"1041 1082 LINE",
"746 1082 LINE",
"723 958 LINE",
"663 1054 OFFCURVE",
"583 1102 OFFCURVE",
"484 1102 CURVE SMOOTH",
"209 1102 OFFCURVE",
"61 868 OFFCURVE",
"61 539 CURVE SMOOTH",
"61 518 LINE SMOOTH",
"61 203 OFFCURVE",
"207 -20 OFFCURVE",
"482 -20 CURVE SMOOTH",
"595 -20 OFFCURVE",
"682 36 OFFCURVE",
"744 149 CURVE",
"795 36 OFFCURVE",
"890 -21 OFFCURVE",
"1027 -21 CURVE SMOOTH",
"1078 -21 OFFCURVE",
"1119 -14 OFFCURVE",
"1152 0 CURVE",
"1127 244 LINE"
);
},
{
closed = 1;
nodes = (
"399 715 OFFCURVE",
"444 842 OFFCURVE",
"569 842 CURVE SMOOTH",
"630 842 OFFCURVE",
"675 817 OFFCURVE",
"704 768 CURVE",
"704 352 LINE",
"707 307 LINE",
"678 262 OFFCURVE",
"631 240 OFFCURVE",
"567 240 CURVE SMOOTH",
"438 240 OFFCURVE",
"399 355 OFFCURVE",
"399 518 CURVE SMOOTH"
);
}
);
width = 1200;
}
);
note = uni0251;
unicode = 0251;
},
{
glyphname = uni0252;
lastChange = "2017-05-24 16:56:05 +0000";
layers = (
{
layerId = "D40DD59D-1539-4674-98F2-408D5EBDB9DF";
paths = (
{
closed = 1;
nodes = (
"1139 877 OFFCURVE",
"993 1100 OFFCURVE",
"718 1100 CURVE SMOOTH",
"605 1100 OFFCURVE",
"518 1044 OFFCURVE",
"456 931 CURVE",
"405 1044 OFFCURVE",
"310 1101 OFFCURVE",
"172 1101 CURVE SMOOTH",
"122 1101 OFFCURVE",
"81 1094 OFFCURVE",
"48 1080 CURVE",
"73 836 LINE",
"77 838 OFFCURVE",
"82 839 OFFCURVE",
"89 839 CURVE SMOOTH",
"134 839 OFFCURVE",
"157 801 OFFCURVE",
"159 726 CURVE SMOOTH",
"159 -2 LINE",
"454 -2 LINE",
"477 122 LINE",
"537 26 OFFCURVE",
"617 -22 OFFCURVE",
"716 -22 CURVE SMOOTH",
"991 -22 OFFCURVE",
"1139 212 OFFCURVE",
"1139 541 CURVE SMOOTH",
"1139 562 LINE SMOOTH"
);
},
{
closed = 1;
nodes = (
"493 773 LINE",
"522 818 OFFCURVE",
"569 840 OFFCURVE",
"633 840 CURVE SMOOTH",
"762 840 OFFCURVE",
"801 725 OFFCURVE",
"801 562 CURVE SMOOTH",
"801 365 OFFCURVE",
"756 238 OFFCURVE",
"631 238 CURVE SMOOTH",
"570 238 OFFCURVE",
"525 262 OFFCURVE",
"496 311 CURVE",
"496 728 LINE"
);
}
);
width = 1200;
}
);
note = uni0252;
unicode = 0252;
},
{
glyphname = uni0253;
lastChange = "2017-05-24 16:56:05 +0000";
layers = (
{
layerId = "D40DD59D-1539-4674-98F2-408D5EBDB9DF";
paths = (
{
closed = 1;
nodes = (
"630 1357 OFFCURVE",
"658 1355 OFFCURVE",
"692 1350 CURVE",
"692 1566 LINE",
"642 1576 OFFCURVE",
"582 1581 OFFCURVE",
"513 1581 CURVE SMOOTH",
"455 1581 OFFCURVE",
"394 1574 OFFCURVE",
"330 1559 CURVE SMOOTH",
"201 1529 OFFCURVE",
"98 1437 OFFCURVE",
"98 1222 CURVE SMOOTH",
"98 0 LINE",
"400 0 LINE",
"415 111 LINE",
"481 24 OFFCURVE",
"569 -20 OFFCURVE",
"679 -20 CURVE SMOOTH",
"967 -20 OFFCURVE",
"1099 205 OFFCURVE",
"1099 532 CURVE SMOOTH",
"1099 557 LINE",
"1098 873 OFFCURVE",
"965 1102 OFFCURVE",
"677 1102 CURVE SMOOTH",
"579 1102 OFFCURVE",
"498 1067 OFFCURVE",
"435 996 CURVE",
"435 1222 LINE SMOOTH",
"435 1331 OFFCURVE",
"536 1357 OFFCURVE",
"609 1357 CURVE SMOOTH"
);
},
{
closed = 1;
nodes = (
"734 842 OFFCURVE",
"762 710 OFFCURVE",
"762 553 CURVE SMOOTH",
"762 340 OFFCURVE",
"736 239 OFFCURVE",
"595 239 CURVE SMOOTH",
"517 239 OFFCURVE",
"464 267 OFFCURVE",
"435 324 CURVE",
"435 756 LINE",
"464 813 OFFCURVE",
"516 842 OFFCURVE",
"593 842 CURVE SMOOTH"
);
}
);
width = 1153;
}
);
note = uni0253;
unicode = 0253;
},
{
glyphname = uni0254;
lastChange = "2017-05-24 16:56:05 +0000";
layers = (
{
layerId = "D40DD59D-1539-4674-98F2-408D5EBDB9DF";
paths = (
{
closed = 1;
nodes = (
"47 142 OFFCURVE",
"245 -20 OFFCURVE",
"505 -20 CURVE SMOOTH",
"842 -20 OFFCURVE",
"1012 216 OFFCURVE",
"1012 529 CURVE SMOOTH",
"1012 558 LINE",
"1009 870 OFFCURVE",
"840 1102 OFFCURVE",
"507 1102 CURVE SMOOTH",
"236 1102 OFFCURVE",
"47 943 OFFCURVE",
"48 668 CURVE",
"364 668 LINE",
"363 765 OFFCURVE",
"412 842 OFFCURVE",
"515 842 CURVE SMOOTH",
"652 842 OFFCURVE",
"675 708 OFFCURVE",
"675 552 CURVE SMOOTH",
"675 353 OFFCURVE",
"652 240 OFFCURVE",
"513 240 CURVE SMOOTH",
"412 240 OFFCURVE",
"363 289 OFFCURVE",
"364 386 CURVE",
"48 386 LINE"
);
}
);
width = 1065;
}
);
note = uni0254;
unicode = 0254;
},
